<?xml version="1.0" encoding="UTF-8" standalone="no"?>
<!-- Created with Inkscape (http://www.inkscape.org/) -->

<svg
   version="1.1"
   id="svg1"
   width="3464"
   height="3464"
   viewBox="0 0 3464 3464"
   xmlns="http://www.w3.org/2000/svg"
   xmlns:svg="http://www.w3.org/2000/svg">
  <defs
     id="defs1" />
  <g
     id="g1">
    <path
       style="fill:#000000"
       d="m 924.60899,2886.4166 c -27.0384,-2.0276 -46.0907,-5.1479 -54.2546,-8.8854 -3.0131,-1.3795 -10.5907,-5.884 -16.8391,-10.0101 -6.2484,-4.1261 -11.5688,-7.502 -11.8232,-7.502 -0.2543,0 -4.6521,-2.6053 -9.7728,-5.7895 -10.718,-6.6648 -15.1496,-8.678 -17.2923,-7.8558 -2.7735,1.0643 -1.7181,6.0159 2.482,11.6453 8.4571,11.335 5.11,11.4013 -24,0.475 -6.325,-2.374 -14.425,-5.7018 -18,-7.3949 -7.3542,-3.4831 -8.2892,-3.6415 -9.9171,-1.68 -1.383,1.6664 0.1138,8.8997 3.0647,14.8101 2.6541,5.3159 2.4153,6.7898 -1.1003,6.7898 -3.9184,0 -21.83,-7.4441 -35.7309,-14.85 -15.85,-8.4442 -24.8379,-14.6048 -49.0939,-33.6505 -4.5527,-3.5747 -8.7263,-6.4995 -9.2748,-6.4995 -1.8378,0 -2.9477,5.0617 -2.9477,13.4427 0,12.123 -1.6249,12.7699 -12.5,4.977 -2.75,-1.9706 -11.2658,-9.652 -18.9239,-17.0697 -16.6385,-16.1161 -23.0785,-20.0676 -25.4248,-15.6 -0.5055,0.9625 -1.2355,3.6601 -1.6222,5.9948 -0.3867,2.3346 -1.1088,4.4954 -1.6046,4.8019 -0.9965,0.6158 -7.4219,-2.2127 -13.078,-5.7572 -25.4275,-15.9345 -24.0671,-15.4128 -34.53,-13.2424 -9.2561,1.9201 -41.8604,-21.4139 -88.1878,-63.1136 -6.7058,-6.0359 -19.012,-16.0071 -24.7332,-20.0401 -2.2574,-1.5914 -6.8933,-5.2559 -10.3019,-8.1434 -8.9795,-7.6067 -12.0773,-7.0741 -12.1073,2.0818 -0.03,9.321 -2.6911,11.1528 -7.8698,5.4182 -22.0029,-24.3646 -28.581,-30.8361 -31.0516,-30.5486 -1.7888,0.2083 -2.9977,1.2819 -3.9954,3.5486 -2.6103,5.9305 -5.9922,4.0964 -15.7487,-8.5412 -3.6979,-4.7899 -8.8127,-11.1838 -11.3664,-14.2088 -6.1207,-7.2505 -8.2685,-10.6828 -7.4816,-11.956 0.9159,-1.482 5.3248,-1.2933 11.3098,0.4841 5.2957,1.5726 8.5521,1.2822 13.4842,-1.2028 2.2886,-1.1531 2.592,-1.7206 1.7556,-3.2833 -1.7253,-3.2239 -11.3118,-7.183 -19.6594,-8.1192 -6.8222,-0.765 -16.8156,-3.8453 -20.0161,-6.1695 -2.6203,-1.9028 -7.2109,-2.5733 -8.9437,-1.3062 -1.631,1.1926 -1.6351,1.5162 -0.069,5.4308 5.0691,12.669 -1.201,11.4001 -13.2668,-2.6849 -4.7041,-5.4914 -6.7947,-7.2307 -8.4136,-7 -1.8987,0.2706 -2.161,0.9591 -2.2119,5.807 -0.074,7.0492 -0.2387,8 -1.3851,8 -1.6175,0 -12.1492,-14.2106 -12.7471,-17.1998 -0.5965,-2.9826 -5.8597,-8.1965 -7.3464,-7.2777 -0.477,0.2948 -0.7933,3.2022 -0.7029,6.4609 0.09,3.2588 -0.1225,6.2117 -0.4729,6.5621 -1.6975,1.6976 -5.3525,-1.428 -9.7997,-8.3801 -9.4359,-14.751 -12.4026,-17.9878 -15.424,-16.8284 -0.7039,0.2701 -1.5596,1.8904 -1.9016,3.6007 -1.3592,6.7959 -5.9068,4.4748 -9.2163,-4.7041 -3.4006,-9.4315 -7.3715,-17.2336 -8.7712,-17.2336 -0.7866,0 -1.9903,0.675 -2.675,1.5 -2.2174,2.6718 -4.9859,1.7781 -6.6219,-2.1376 -1.9076,-4.5655 -5.9306,-20.4883 -8.8079,-34.8614 -2.5901,-12.9387 -3.907,-14.078 -9.1096,-7.8811 -4.3543,5.1865 -5.5054,4.0041 -9.0234,-9.2684 -2.6512,-10.0025 -3.0453,-10.779 -6.8748,-13.5463 -6.9409,-5.0156 -9.9949,-13.5245 -14.1075,-39.3052 -2.7593,-17.2973 -2.8996,-27.6107 -0.5499,-40.4249 2.8991,-15.8099 2.8335,-16.7068 -1.405,-19.2076 -4.5569,-2.6886 -4.5601,-5.5634 -0.014,-12.4128 7.775,-11.7135 6.8844,-15.1535 -3.0984,-11.9676 -5.6234,1.7946 -2.5139,-10.174 8.1803,-31.4871 4.0017,-7.975 9.6529,-19.3787 12.5583,-25.3416 2.9054,-5.9628 6.8939,-12.7128 8.8634,-15 1.9694,-2.2871 4.3627,-5.3959 5.3185,-6.9084 0.9558,-1.5125 2.3756,-2.75 3.1553,-2.75 0.7796,0 4.8244,-3.1588 8.9883,-7.0197 4.1639,-3.8608 10.034,-8.5954 13.0447,-10.5213 6.4394,-4.1192 8.9663,-8.1111 7.5285,-11.8928 -1.4764,-3.8832 0.092,-6.5126 6.0462,-10.1369 25.1554,-15.3117 31.1154,-18.0142 50.6579,-22.9706 11.5287,-2.9239 11.0606,-1.45 -3.2039,10.0874 -10.3039,8.3341 -20.0655,18.1585 -26.9678,27.1414 -4.3094,5.6084 -4.6951,6.5445 -4.1204,10 0.5635,3.3888 0.176,4.4237 -3.487,9.3125 -2.2666,3.025 -5.1551,6.625 -6.4188,8 -3.4745,3.7804 -14.5215,23.3168 -16.0426,28.3711 -1.1323,3.7622 -1.1239,4.7353 0.054,6.2898 2.4884,3.2839 1.4012,9.4139 -3.1147,17.5619 -2.3907,4.3134 -8.4179,21.0606 -8.4233,23.4048 0,1.1701 0.6702,2.6877 1.4952,3.3724 1.8121,1.5039 1.8872,4.5047 0.3045,12.1673 -1.1366,5.5032 -1.0818,5.9087 1.1166,8.2488 2.4474,2.605 2.4765,4.5514 0.1958,13.0839 -0.5881,2.2 -1.08,9.7771 -1.0931,16.8379 l -0.024,12.8379 3.9096,-0.6605 c 4.4676,-0.7548 4.2562,-1.0805 6.554,10.0979 1.7701,8.6116 7.544,25.6567 10.3862,30.6614 6.3635,11.205 19.4714,29.1653 26.9392,36.912 13.0245,13.5109 23.1092,20.6263 35.7086,25.195 10.2762,3.7263 13.5024,4.0508 13.5024,1.3578 0,-0.7278 -2.3207,-5.3544 -5.1572,-10.2814 -7.3118,-12.7005 -10.4771,-20.0249 -14.8583,-34.3823 -6.9228,-22.686 -7.5033,-27.2438 -7.3323,-57.5757 0.1387,-24.6149 0.3751,-28.0821 2.6762,-39.2493 1.7782,-8.6299 3.4638,-13.8919 5.7046,-17.8083 7.9892,-13.9637 22.4161,-24.5273 33.7999,-24.7488 4.6608,-0.091 6.4148,0.3896 9.8781,2.7051 8.9274,5.9688 21.522,26.0002 26.1565,41.6013 2.3196,7.8087 4.9891,26.2312 5.5063,38 0.6047,13.7582 1.9512,19.4151 8.5228,35.8061 8.9581,22.343 29.6083,60.6579 34.2377,63.5254 1.2085,0.7485 3.032,0.3551 7,-1.5102 2.9511,-1.3873 9.8657,-4.4664 15.3657,-6.8424 11.5779,-5.0017 13.0398,-5.9323 24.6666,-15.7028 9.8019,-8.2369 17.2489,-17.032 23.846,-28.1625 3.7359,-6.3031 5.2995,-7.9909 9.0842,-9.8055 3.8928,-1.8665 5.0507,-3.1653 7.7988,-8.7476 4.1877,-8.5063 11.7626,-30.1277 13.6846,-39.0605 0.8284,-3.85 1.9273,-11.3994 2.4419,-16.7763 0.5147,-5.377 1.4103,-10.6631 1.9903,-11.7468 0.58,-1.0837 2.8188,-2.8704 4.9752,-3.9705 5.0506,-2.5767 6.0061,-6.5203 3.1512,-13.0064 -3.2904,-7.4754 -3.593,-11.206 -1.2241,-15.0917 2.4129,-3.9579 2.597,-7.3892 0.5853,-10.9083 -0.786,-1.375 -1.4451,-4.877 -1.4645,-7.7821 -0.02,-2.9052 -0.7105,-6.8976 -1.5355,-8.8721 -0.825,-1.9745 -1.5,-4.3864 -1.5,-5.3598 0,-0.9733 -1.8255,-7.2893 -4.0567,-14.0355 -3.5805,-10.826 -3.883,-12.4393 -2.5775,-13.7448 2.2518,-2.2519 4.0284,-0.9198 5.3467,4.009 1.7891,6.6894 6.0206,12.5421 10.0228,13.8629 2.8109,0.9277 4.5872,0.7733 10.0881,-0.8767 3.6722,-1.1015 8.4424,-2.3848 10.6007,-2.8518 4.9831,-1.0783 5.393,-2.4472 1.3023,-4.3491 -2.3175,-1.0774 -3.3686,-2.3451 -3.7311,-4.5 -0.4135,-2.4572 -1.0467,-3.0562 -3.5,-3.3106 -5.6687,-0.5878 -10.2909,-2.2144 -10.9151,-3.8412 -1.1369,-2.9625 1.9863,-5.9443 8.0859,-7.7197 3.2086,-0.934 6.9123,-2.02 8.2303,-2.4133 1.3181,-0.3934 2.8931,-1.5481 3.5,-2.5661 0.9159,-1.5361 0.6342,-2.2084 -1.6564,-3.9528 -1.518,-1.156 -4.218,-2.581 -6,-3.1668 -2.5089,-0.8247 -3.1836,-1.5687 -2.99,-3.2973 0.1375,-1.2277 0.3625,-3.2367 0.5,-4.4644 0.197,-1.7589 -0.4922,-2.4747 -3.25,-3.3754 -5.3675,-1.7531 -5.1317,-4.4831 0.9149,-10.5936 3.9366,-3.9782 4.8171,-5.4169 3.9525,-6.4586 -1.4883,-1.7933 -6.2773,-1.6967 -9.9464,0.2007 -1.6389,0.8474 -3.4165,1.2709 -3.9504,0.9409 -1.626,-1.0049 -1.0833,-5.2873 0.8461,-6.6751 0.9992,-0.7187 2.882,-3.2192 4.1841,-5.5567 1.6934,-3.0399 3.0083,-4.25 4.6183,-4.25 5.8487,0 10.8417,-4.5349 8.3279,-7.5639 -1.8685,-2.2514 -5.8068,-1.6904 -8.4947,1.2099 -1.8407,1.9861 -2.4523,2.2416 -2.4523,1.0242 0,-2.4955 3.3568,-7.4563 8.9153,-13.1753 5.5515,-5.7118 9.0289,-12.2875 9.0628,-17.1379 0.026,-3.6578 -1.4152,-4.4849 -6.4027,-3.6755 -6.0297,0.9785 -5.6646,-1.3124 2.9376,-18.43 8.974,-17.8575 10.3981,-23.7995 6.3786,-26.6149 -1.2851,-0.9001 -3.3064,-1.6366 -4.4916,-1.6366 -2.9514,0 -4.7546,-2.4509 -4.0039,-5.442 1.2009,-4.7849 16.7736,-13.9581 28.8659,-17.0036 7.2615,-1.8289 7.738,-2.1423 7.738,-5.0904 0,-2.8749 -2.7491,-4.8491 -9,-6.4631 -2.475,-0.6391 -5.9882,-2.0257 -7.8071,-3.0814 -4.288,-2.4887 -6.5948,-2.4215 -10.2749,0.2992 -2.3633,1.7473 -3.3639,1.9837 -4.7095,1.1123 -2.468,-1.5983 -1.9498,-7.3123 0.8703,-9.5959 2.183,-1.7677 2.2982,-1.7481 5.0127,0.8526 3.4712,3.3255 5.4746,2.922 14.0589,-2.8317 9.733,-6.5238 8.9393,-9.9197 -3.1504,-13.4798 -5.7876,-1.7044 -6.4833,-2.1806 -6.3474,-4.3452 0.3974,-6.3311 2.8616,-11.6364 8.0036,-17.231 2.932,-3.1899 5.609,-6.9083 5.949,-8.263 1.1874,-4.7311 -3.899,-8.0016 -14.0639,-9.043 -4.2177,-0.4321 -6.9112,-1.1943 -7.2389,-2.0484 -0.2871,-0.7481 1.1025,-3.1582 3.0878,-5.3558 1.9854,-2.1975 3.6098,-4.6988 3.6098,-5.5584 0,-2.6711 -2.0116,-5.4853 -4.6335,-6.4822 -4.295,-1.6329 -2.5859,-4.2297 4.1335,-6.2801 13.0371,-3.9781 13.3762,-5.0381 4.098,-12.8079 -9.4493,-7.9131 -10.0002,-10.3385 -3.7019,-16.2983 3.7571,-3.5552 3.864,-5.354 0.6039,-10.158 -1.375,-2.0262 -2.4982,-4.8587 -2.496,-6.2944 0.01,-3.7961 2.6754,-19.792 5.6092,-33.6105 1.4013,-6.6 3.1437,-15.15 3.872,-19 2.1075,-11.1396 5.1376,-23.856 9.5314,-40 2.2453,-8.25 4.9769,-18.375 6.0703,-22.5 2.6964,-10.1734 3.9045,-13 5.5559,-13 1.9997,0 3.0393,3.2417 4.3297,13.5 1.4166,11.2611 9.8467,46.9 16.6764,70.5 1.9292,6.6663 8.6732,24.0712 14.3368,37 9.5072,21.703 12.2035,32.0894 11.5921,44.654 -0.3237,6.6518 -1.072,10.4066 -2.8962,14.5312 -3.64,8.2308 -13.6816,40.6796 -13.6816,44.2114 0,2.6316 1.9404,4.4783 7.201,6.8534 4.2897,1.9367 7.2218,5.8426 6.3791,8.4977 -0.3222,1.0151 -2.8766,4.5246 -5.6764,7.7989 -2.7999,3.2744 -6.0063,7.8002 -7.1255,10.0574 l -2.0349,4.104 2.1284,6.15 c 1.1705,3.3825 2.1283,7.2955 2.1283,8.6956 0,3.0935 -2.0787,7.3027 -4.8409,9.8025 -3.1345,2.8366 -3.5934,6.8723 -1.2939,11.3798 1.0938,2.1438 2.6965,4.4854 3.5617,5.2034 2.6207,2.175 1.7915,5.613 -2.6769,11.0986 -16.6065,20.3868 -18.4325,23.6893 -16.6982,30.2005 0.6243,2.3439 2.0498,6.4022 3.1678,9.0185 l 2.0326,4.7569 -7.6261,7.9821 c -8.7078,9.1144 -9.5335,11.9486 -5.0375,17.2918 3.4926,4.1507 3.0524,5.8333 -6.595,25.2123 -6.1125,12.2782 -9.3643,17.5496 -13.9795,22.6618 -3.3078,3.664 -6.0141,7.3158 -6.0141,8.1152 0,0.7993 0.9031,2.6014 2.007,4.0047 2.3728,3.0166 1.6647,5.8606 -2.4009,9.6426 -1.4334,1.3334 -2.6061,3.4709 -2.6061,4.75 0,1.8667 0.5427,2.3287 2.75,2.341 3.3416,0.019 4.5798,0.7809 6.1693,3.798 1.099,2.0858 0.8187,2.7472 -2.8503,6.7276 -5.7091,6.1937 -5.429,7.4458 1.681,7.5155 10.0247,0.098 16.5747,3.7291 10.7338,5.9497 -3.3294,1.2659 -14.8557,-0.5443 -16.5627,-2.6012 -1.505,-1.8134 -4.3497,-1.7983 -5.8681,0.031 -2.0028,2.4133 0.3338,5.0286 5.7277,6.4111 6.0356,1.5468 9.2193,3.6619 9.2193,6.1249 0,1.3397 -2.4431,3.069 -8.75,6.1933 -13.9444,6.9078 -12.4024,8.5955 10.8839,11.9121 7.2646,1.0347 7.9059,0.9629 13.2559,-1.4842 9.7098,-4.4414 15.4723,-4.3563 26.1102,0.3854 6.4193,2.8614 7.9864,3.1174 10.0129,1.6355 1.65,-1.2065 1.7443,-1.7543 0.6975,-4.0517 -2.4375,-5.3499 -1.738,-6.5625 3.7856,-6.5625 2.7478,0 7.5853,0.8759 10.75,1.9464 23.2735,7.8726 24.7342,5.5757 7.2166,-11.3484 -6.0294,-5.825 -10.9626,-10.9945 -10.9626,-11.4875 0,-1.1335 2.5159,-2.1176 5.3318,-2.0857 1.1925,0.014 4.8255,0.9135 8.0734,2 8.1205,2.7164 10.5948,2.6181 10.5948,-0.421 0,-2.4991 -4.0397,-6.6353 -10.8257,-11.0844 -5.0568,-3.3154 -17.9638,-6.6291 -28.2609,-7.2556 -7.9098,-0.4812 -9.0922,-0.2954 -15,2.357 -7.7042,3.4589 -15.0274,3.8452 -19.3391,1.0201 l -2.8376,-1.8594 4.106,-3.6406 c 4.3671,-3.8722 11.1573,-13.4307 11.1573,-15.706 0,-2.1419 -3.3768,-3.4101 -7.3594,-2.7638 -3.3789,0.5483 -3.6406,0.41 -3.6406,-1.9237 0,-1.6587 1.3425,-3.7273 3.9446,-6.0782 l 3.9447,-3.5638 6.3053,2.5502 c 9.0521,3.6611 13.4412,4.4731 22.3763,4.1397 9.8408,-0.3673 10.7901,-2.0132 4.3896,-7.6114 -2.3164,-2.026 -4.6115,-4.1337 -5.1001,-4.6837 -2.1858,-2.4599 -5.8896,-8.768 -6.4431,-10.9733 -0.7482,-2.9812 -3.7202,-5.0027 -8.7199,-5.931 -2.0914,-0.3883 -4.0353,-1.3126 -4.3197,-2.0539 -1.6835,-4.387 11.9145,-19.8001 25.4892,-28.8915 7.7195,-5.17 8.5825,-7.1238 4.1242,-9.3363 -3.3959,-1.6853 -5.9911,-5.0676 -5.9911,-7.8083 0,-2.0867 -0.5289,-2.3064 -6.4616,-2.6842 -3.5539,-0.2262 -6.7579,-0.7077 -7.1201,-1.0698 -1.4707,-1.4707 0.8845,-8.2545 3.9195,-11.2895 6.0552,-6.0552 20.8007,-8.3938 27.3608,-4.3395 2.7908,1.7249 4.2188,1.9801 7.618,1.3615 7.3557,-1.3385 12.3598,-0.6691 22.8935,3.0623 15.031,5.3246 32.8952,9.7482 34.1796,8.4638 1.4286,-1.4286 -12.5763,-14.1491 -21.7546,-19.7592 -1.5756,-0.9631 -5.993,-3.8364 -9.8163,-6.3851 -12.774,-8.5153 -29.5252,-11.6601 -44.0688,-8.2733 -2.2759,0.53 -2.75,0.3056 -2.75,-1.3018 0,-1.0683 1.1678,-3.0332 2.595,-4.3666 3.8751,-3.6202 5.3992,-7.1854 4.7587,-11.132 -0.5267,-3.2455 -0.2414,-3.7044 4.4383,-7.1396 7.3492,-5.3948 7.9292,-7.7046 2.708,-10.7852 -1.925,-1.1358 -3.4961,-2.5831 -3.4913,-3.2163 0,-0.6331 2.5924,-2.8207 5.75,-4.8612 6.6606,-4.3041 12.2413,-9.2072 12.2413,-10.7551 0,-0.5928 -1.0977,-1.5779 -2.4393,-2.1892 -1.9082,-0.8694 -3.3279,-0.7559 -6.5203,0.5214 -2.2445,0.8981 -4.9897,1.6329 -6.1005,1.6329 -1.1108,0 -3.7837,0.9 -5.9399,2 -7.5493,3.8514 -8.8019,2.2328 -4.0594,-5.2454 3.5403,-5.5824 22.8365,-20.4346 27.7455,-21.3555 8.8795,-1.6658 6.0148,-6.4865 -7.9246,-13.3355 -15.213,-7.4747 -16.7621,-8.5654 -16.7581,-11.7989 0,-3.156 4.9009,-15.7009 8.5913,-22.0091 1.3657,-2.3345 3.8091,-4.9302 5.4297,-5.7682 1.6391,-0.8476 3.2331,-2.6652 3.5923,-4.0962 0.7221,-2.8773 -1.1823,-10.3912 -2.6338,-10.3912 -0.5152,0 -1.6515,-1.0908 -2.5251,-2.424 -1.4855,-2.2671 -1.4276,-2.7688 0.8945,-7.75 6.398,-13.7252 7.0217,-16.8166 3.3977,-16.8413 -3.7976,-0.026 -4.8768,-1.4373 -7.7426,-10.1263 -1.5207,-4.6106 -6.6974,-17.8274 -11.5037,-29.3706 -15.6761,-37.6485 -21.4368,-57.5702 -28.4794,-98.4878 -0.6154,-3.575 -2.4072,-10.325 -3.982,-15 -9.2895,-27.578 -9.6247,-35.0961 -2.2852,-51.25 6.2105,-13.669 7.4333,-9.4524 5.1778,17.8548 -1.8905,22.8886 1.4314,34.5719 9.3779,32.9826 5.9788,-1.1957 6.5915,-2.6961 7.1854,-17.5954 0.7455,-18.7024 2.7433,-28.6597 7.8229,-38.992 3.1839,-6.4761 4.7146,-8.5761 6.4289,-8.8196 2.7688,-0.3932 2.8174,0.5908 0.5001,10.1222 -1.2816,5.2714 -1.7499,11.3452 -1.75,22.6974 -10e-5,17.3318 0.3447,19.3316 4.0091,23.25 3.0466,3.2578 6.6947,3.5461 9.4908,0.75 1.7966,-1.7966 2,-3.3333 2,-15.1133 0,-9.5804 0.5398,-15.4403 2.0035,-21.75 4.1232,-17.7745 5.5462,-21.1367 8.9462,-21.1367 2.2889,0 2.9716,2.4274 1.8283,6.5 -4.0581,14.4549 -5.017,19.1697 -5.4949,27.0174 -0.5565,9.1375 1.479,22.2861 3.902,25.2057 1.4532,1.751 5.9027,1.6041 8.5981,-0.2838 3.7412,-2.6204 4.933,-6.4565 5.6806,-18.2835 0.74,-11.7078 2.2147,-17.0178 5.8064,-20.9058 3.4864,-3.7742 6.3124,-2.9374 10.1324,3 3.883,6.0353 7.1238,9.2247 10.3764,10.2116 3.1997,0.971 18.1337,19.1141 25.5251,31.0104 12.0665,19.4206 23.0909,40.8467 31.1839,60.6063 4.312,10.5281 5.3159,14.7844 3.8362,16.2642 -0.7364,0.7364 -5.3242,-3.167 -5.3242,-4.53 0,-0.4613 -2.9829,-6.3454 -6.6286,-13.0757 -3.6457,-6.7302 -8.4427,-15.6118 -10.66,-19.7368 -2.2172,-4.125 -5.0306,-8.85 -6.252,-10.5 -1.2213,-1.65 -3.8874,-6.15 -5.9247,-10 -2.0372,-3.85 -4.5484,-7.87 -5.5804,-8.9333 -1.8097,-1.8645 -1.9016,-1.8677 -2.5844,-0.088 -0.3893,1.0147 0.019,4.3597 0.9074,7.4333 0.8885,3.0736 2.5935,8.9634 3.7889,13.0884 1.1954,4.125 2.9891,9.525 3.9859,12 1.9885,4.9373 3.3445,15 2.0214,15 -1.2424,0 -14.3233,-16.7516 -17.5696,-22.5 -1.553,-2.75 -4.3857,-6.6543 -6.2948,-8.6763 -1.9091,-2.022 -5.133,-6.747 -7.1643,-10.5 -3.8714,-7.153 -7.0448,-9.4268 -7.0448,-5.0477 0,7.3447 29.2599,50.2215 37.0055,54.2269 3.0512,1.5778 5.9626,6.682 13.6882,23.9971 5.1294,11.4966 5.1739,13.3842 0.5535,23.5 -5.6364,12.3403 -12.7936,35.8768 -14.7483,48.5 -0.3407,2.2 -1.0082,6.025 -1.4834,8.5 -2.3756,12.3735 -3.3269,33.9172 -2.1057,47.6884 3.2961,37.1721 12.117,67.1668 28.2664,96.1176 10.1704,18.2323 29.151,41.2801 43.4909,52.8103 2.6566,2.136 5.456,4.4767 6.2209,5.2016 2.4191,2.2925 18.3872,12.6194 24.112,15.5936 9.0486,4.7011 8.7165,3.0139 4.6745,23.749 -1.9663,10.0867 -4.0618,21.6682 -4.6567,25.7366 -0.5949,4.0684 -1.2697,7.7015 -1.4996,8.0735 -0.23,0.372 -0.9052,4.5961 -1.5005,9.3868 -1.5389,12.3841 -2.9889,14.8727 -11.4602,19.6686 -20.0826,11.3696 -45.3047,32.215 -56.1488,46.4054 -2.9709,3.8877 -7.446,9.5436 -9.9446,12.5686 -11.0304,13.3543 -25.9316,37.8659 -24.1205,39.6769 1.6314,1.6314 14.6468,-10.7585 22.9915,-21.8865 6.1673,-8.2244 14.9795,-16.7904 17.273,-16.7904 2.9102,0 1.1407,3.0621 -6.1496,10.6419 -4.1479,4.3125 -7.786,8.8149 -8.0848,10.0053 -0.3035,1.2092 0.2082,3.3112 1.1594,4.763 1.4286,2.1803 1.5888,3.9663 0.995,11.0942 -0.8392,10.0743 0.3062,11.0047 5.2269,4.2456 1.7017,-2.3375 4.5573,-5.825 6.3457,-7.75 1.7885,-1.925 6.3293,-8.5629 10.0908,-14.7508 23.9257,-39.3594 35.2374,-54.2492 41.2129,-54.2492 2.2404,0 2.0629,3.7161 -0.8723,18.2664 -6.6066,32.7501 -8.1412,36.9839 -16.0544,44.2935 -3.9894,3.6851 -5.4777,5.7808 -5.4777,7.7133 v 2.6535 l 11.75,-0.5448 c 17.0438,-0.7902 17.7662,-1.2441 20.2513,-12.723 1.7408,-8.0413 3.5934,-11.5191 6.5286,-12.2558 6.1656,-1.5474 15.739,0.6613 38.9701,8.9911 7.766,2.7846 11.5324,3.5879 16.8594,3.5957 l 6.8594,0.01 -0.457,3.25 c -0.2514,1.7875 -0.7459,3.925 -1.0989,4.75 -0.3531,0.825 -0.2116,2.175 0.3142,3 0.7659,1.2015 2.9029,1.4411 10.7395,1.2042 12.3518,-0.3735 17.2834,-1.5841 17.2834,-4.2427 0,-1.9851 -0.8879,-2.9831 -6.75,-7.5869 -6.6984,-5.2606 -2.9696,-5.5975 9.25,-0.8358 5.6704,2.2097 9.0893,2.8103 18,3.1625 7.7769,0.3074 12.3728,1.0009 15.6854,2.3667 5.1513,2.1241 12.5139,2.4413 22.6495,0.9758 3.48421,-0.5037 6.94801,-0.6806 7.69731,-0.3931 0.7494,0.2876 2.247,3.2963 3.328,6.6861 6.4829,20.3283 6.4785,20.6632 -0.2731,20.6632 -6.0322,0 -10.18301,3.3196 -8.76101,7.0067 2.46011,6.3781 11.36801,9.8124 18.15731,7.0002 4.6216,-1.9144 8.3326,0.086 11.5402,6.2202 3.0224,5.7804 2.7317,8.9043 -1.06,11.3887 -2.0861,1.3668 -3.3691,1.4702 -7.6776,0.6183 -2.8451,-0.5626 -5.7609,-0.7972 -6.4795,-0.5215 -2.4556,0.9423 -1.4162,5.0564 1.9435,7.6925 2.6903,2.1109 3.0619,2.8553 2.1578,4.3225 -1.4145,2.2952 -5.6973,4.369 -10.2754,4.9754 -3.2151,0.4259 -4.8608,-0.3461 -14.32411,-6.7192 -5.8804,-3.9603 -11.9554,-8.5608 -13.5,-10.2235 -6.6913,-7.2028 -8.6376,-8.7089 -13.2213,-10.2314 -2.6685,-0.8863 -5.6621,-2.5069 -6.6526,-3.6013 -1.6437,-1.8163 -1.6625,-2.1281 -0.2155,-3.5751 1.887,-1.8869 8.2791,-3.2488 15.5311,-3.3089 4.4089,-0.037 5.25,-0.3374 5.25,-1.8774 0,-1.7989 -7.1934,-7.3461 -13.5,-10.4107 -1.65,-0.8018 -7.6375,-2.0036 -13.3056,-2.6707 -5.6681,-0.667 -12.1931,-1.884 -14.5,-2.7043 -9.7627,-3.4716 -17.1902,-4.3964 -25.1446,-3.1308 -6.1392,0.9767 -7.5498,1.5355 -7.5498,2.9904 0,2.006 4.484,5.0634 10.5,7.1593 2.2,0.7665 8.725,3.0244 14.5,5.0175 15.0207,5.1842 20.5437,8.267 25.2309,14.0831 5.4066,6.7088 7.0357,10.6687 5.7644,14.0123 -1.04,2.7355 -1.321,2.6982 -6.1502,-0.8159 -3.1397,-2.2847 -4.8451,-1.572 -4.8451,2.0248 0,6.3216 9.5815,16.3392 25.9696,27.1515 3.5583,2.3476 7.5535,5.7918 8.8782,7.6536 3.2155,4.5192 9.8674,6.0269 19.76141,4.479 11.472,-1.7948 11.8406,-2.2054 9.0318,-10.0601 -1.5171,-4.2427 -1.1245,-5.9452 1.3709,-5.9452 1.0149,0 2.6206,-0.7875 3.5682,-1.75 2.9506,-2.9968 6.8281,-5.2365 9.0776,-5.2434 1.1868,0 4.3494,1.1305 7.0282,2.5203 6.6005,3.4244 11.1103,4.0361 15.3617,2.0833 7.2416,-3.3264 17.3052,-9.1569 17.662,-10.2329 0.5453,-1.6447 -2.925,-2.2581 -9.4562,-1.6716 -8.1427,0.7313 -13.8696,-1.0283 -16.2953,-5.0065 -2.4243,-3.976 -2.4436,-5.2137 -0.1176,-7.5397 1.2418,-1.2418 3.9975,-2.0419 8.4718,-2.4597 6.6155,-0.6178 12.6877,-2.8794 12.6877,-4.7255 0,-2.6292 -4.0398,-4.7456 -10.3481,-5.4211 -5.587,-0.5983 -7.463,-1.3404 -12.1305,-4.7985 -3.0368,-2.2498 -5.5214,-4.6539 -5.5214,-5.3422 0,-0.6884 -1.9816,-7.2503 -4.4036,-14.5821 -2.422,-7.3317 -5.5931,-18.0554 -7.047,-23.8304 -1.4538,-5.775 -4.891,-17.0905 -7.6382,-25.1455 -2.7472,-8.0551 -6.6584,-21.1051 -8.6917,-29 -3.6347,-14.1134 -3.6965,-14.6736 -3.6778,-33.3545 0.017,-16.7226 0.2919,-19.9589 2.2952,-27 5.6115,-19.7231 9.136,-24.2655 26.3518,-33.9617 6.4287,-3.6208 13.953,-8.3732 16.7205,-10.5608 l 5.032,-3.9775 36.7794,-0.022 c 33.6399,-0.02 37.1275,-0.18 40.858,-1.8743 6.1047,-2.7727 8.7153,-6.7056 10.848,-16.3432 l 0.6062,-2.7395 10.7336,0.5534 c 15.1323,0.7801 14.8034,0.6599 16.1199,5.8883 1.1439,4.5431 5.6384,10.6103 9.5008,12.8255 1.5195,0.8715 13.7679,1.3553 43.6129,1.7226 l 41.5,0.5108 13.1077,4.1726 c 14.9719,4.766 39.2252,9.8862 53.8923,11.3774 5.5,0.5591 14.95,1.881 21,2.9375 13.1446,2.2954 30.2921,5.2076 44,7.4726 10.7842,1.7819 21.042,3.9416 43,9.0536 7.7,1.7926 16.475,3.7679 19.5,4.3896 14.7414,3.0294 20.694,4.3853 22.7971,5.193 1.2633,0.4851 3.2883,0.8717 4.5,0.8589 1.8997,-0.02 1.5688,-0.605 -2.4039,-4.25 -2.5337,-2.3247 -6.4978,-5.737 -8.809,-7.5828 -3.8511,-3.0756 -4.0733,-3.4986 -2.6589,-5.0614 2.9912,-3.3052 0.415,-8.2812 -10.0059,-19.327 -2.9807,-3.1594 -5.4194,-6.1969 -5.4194,-6.75 0,-2.0981 5.8287,-0.8767 11.0588,2.3174 2.9927,1.8277 8.9448,5.4711 13.2269,8.0966 4.2821,2.6254 12.1242,8.8026 17.4269,13.7271 8.3386,7.7438 10.0565,8.9131 12.7144,8.6535 4.4846,-0.4381 4.6873,-4.9296 0.571,-12.6525 -2.8312,-5.3119 -16.2264,-19.7459 -25.498,-27.4753 -2.8706,-2.3932 -2.9431,-2.6449 -1.6793,-5.8367 0.7264,-1.8346 1.5492,-7.1607 1.8283,-11.8357 0.6914,-11.5768 0.6983,-11.5902 4.5969,-8.8794 6.0839,4.2304 21.6438,17.9522 24.5763,21.6732 1.6065,2.0384 5.5463,8.575 8.7552,14.5259 6.1561,11.4162 9.111,14.6513 19.0432,20.8492 8.7307,5.4481 21.0443,17.2692 24.1754,23.2086 2.3659,4.4877 2.6963,6.2377 2.6666,14.1225 -0.025,6.7537 -0.6241,10.7472 -2.3983,16 -5.0626,14.9887 -8.275,18.935 -35.0028,43 -7.9412,7.15 -18.0662,16.4119 -22.5,20.5819 -4.4338,4.1701 -10.9865,9.7844 -14.5615,12.4764 -3.575,2.692 -9.425,7.6143 -13,10.9385 -10.2694,9.5487 -23.5552,20.5957 -30.8218,25.6278 -9.1448,6.3328 -26.3961,15.769 -30.2313,16.536 l -3.1522,0.6305 0.2317,-4.8956 c 0.1274,-2.6925 0.1736,-5.458 0.1026,-6.1455 -0.3714,-3.5976 -9.5424,1.1675 -15.8895,8.2559 -2.9854,3.3339 -7.2935,6.6255 -11.6402,8.8935 -6.2111,3.2408 -7.6838,3.6006 -14.7375,3.6006 h -7.8367 l -2.472,3.9159 c -1.3596,2.1538 -2.8999,4.1804 -3.4227,4.5035 -0.5229,0.3232 -4.2536,-1.9191 -8.2905,-4.9827 -4.037,-3.0637 -9.8909,-6.9335 -13.0088,-8.5996 -3.1179,-1.6661 -8.2929,-5.2267 -11.5,-7.9124 -9.6324,-8.0665 -16.1769,-12.9247 -17.4108,-12.9247 -0.8589,0 -0.8737,0.3513 -0.056,1.3363 0.61,0.735 1.8083,3.3225 2.6629,5.75 0.8546,2.4276 3.2945,7.3387 5.4221,10.9137 5.6781,9.5411 8.9834,19.7425 9.7091,29.9666 0.7071,9.9621 -0.055,11.311 -4.5743,8.0932 -8.9869,-6.3993 -9.2807,8.6519 -0.5385,27.5913 0.8,1.7332 1.4488,3.5332 1.4418,4 -0.013,0.8696 -3.4082,7.5872 -8.7687,17.3489 -1.6611,3.025 -3.3279,7.4037 -3.704,9.7304 -0.5828,3.6057 -0.2349,5.015 2.3559,9.5433 1.6719,2.9221 3.337,7.172 3.7004,9.4443 1.3583,8.4943 -2.8958,23.5441 -8.9089,31.5175 -3.8349,5.085 -6.624,10.525 -9.7679,19.0516 -3.5387,9.5976 -3.5952,11.7056 -0.3941,14.7129 1.375,1.2917 2.5,3.1784 2.5,4.1927 0,1.0142 -3.9843,9.5982 -8.8541,19.0757 -4.8697,9.4774 -12.6043,24.6566 -17.188,33.7316 -22.162,43.8776 -33.0288,58.3799 -65.3268,87.1813 -13.1984,11.7696 -50.2019,34.1791 -74.2024,44.9373 -4.44,1.9903 -9.6154,4.3337 -11.5007,5.2076 -17.4412,8.0845 -39.1454,15.1455 -54.428,17.707 -11.3283,1.8987 -16.9623,3.218 -27.5,6.4395 -13.6123,4.1614 -19.4557,5.6983 -28.5,7.4955 -24.62551,4.8935 -28.27471,5.2351 -59.00001,5.5231 -16.5,0.1547 -32.25,0.1125 -35,-0.094 z m 68.25,-82.8184 c 8.26481,-2.7847 10.54601,-5.0677 6,-6.0048 -1.2375,-0.2551 -6.0657,-0.7536 -10.7292,-1.1078 -9.2271,-0.7007 -23.0264,-4.5633 -25.0609,-7.0149 -1.0541,-1.27 -0.9016,-2.0392 0.8829,-4.4529 2.5139,-3.4002 2.8016,-6.8142 0.6441,-7.6421 -0.8323,-0.3194 -6.7948,0.2175 -13.25,1.1931 -8.2411,1.2455 -18.2045,1.8043 -33.4511,1.8763 -13.9243,0.066 -22.0973,0.4855 -22.7819,1.1701 -1.6659,1.6659 2.5818,5.2485 13.6515,11.5142 11.1954,6.3368 17.8169,9.0166 27.8446,11.2691 10.9052,2.4496 10.9574,2.4535 30,2.2098 16.7054,-0.2138 18.5933,-0.4303 26.25,-3.0101 z m -143.6843,-59.6143 c 4.1583,-2.2254 2.5767,-3.3318 -10.0657,-7.0414 -7.2001,-2.1127 -21.2488,-9.7038 -36.0184,-19.4622 -11.9358,-7.8862 -15.2099,-6.8661 -10.4267,3.2487 3.39,7.1687 7.9011,13.1582 13.3205,17.686 3.8492,3.2159 5.3651,3.761 16.6246,5.9783 4.4251,0.8713 24.7581,0.558 26.5657,-0.4094 z m -212.6215,-25.8746 c 1.0644,-1.7222 -0.6522,-4.052 -5.6099,-7.6138 -8.3406,-5.9921 -4.6244,-7.8327 10.1139,-5.0092 6.0054,1.1504 12.5716,1.5481 22.0518,1.3355 l 13.5,-0.3027 0.2892,-2.5 c 0.2415,-2.0883 -0.6219,-3.0437 -5.2424,-5.8015 -10.445,-6.2341 -9.2408,-9.2314 3.4532,-8.5947 4.125,0.2068 10.3349,0.1008 13.7999,-0.2357 7.8845,-0.7657 7.9245,-2.2809 0.196,-7.4313 -23.9179,-15.9392 -35.337,-23.2001 -39.1137,-24.8708 -9.6623,-4.2741 -16.8822,-4.3161 -16.8822,-0.098 0,2.0526 1.0078,3.2504 7.0064,8.3276 2.1239,1.7976 2.958,3.1402 2.337,3.7612 -0.5312,0.5312 -6.6784,1.2554 -13.6605,1.6092 -16.2179,0.822 -16.7349,1.3314 -9.2813,9.1457 3.0791,3.2281 5.5984,6.3826 5.5984,7.0099 0,1.8605 -4.3373,2.3961 -10.1042,1.2477 -2.9677,-0.591 -8.0958,-1.5366 -11.3958,-2.1014 -3.3,-0.5649 -10.4319,-2.4157 -15.8486,-4.113 -8.3201,-2.607 -10.0594,-2.874 -11.2065,-1.7203 -4.3355,4.3607 13.6421,23.2835 30.0404,31.6196 11.0615,5.6232 28.1641,9.2403 29.9589,6.3362 z m -94.141,-28.0144 c 0.9322,-0.9485 0.6748,-1.6443 -1.164,-3.1468 -1.2984,-1.0609 -2.9542,-1.929 -3.6794,-1.929 -1.5222,0 -15.2832,-6.5331 -30.4598,-14.4609 -5.775,-3.0167 -11.5698,-5.497 -12.8772,-5.512 -2.2552,-0.026 -2.3524,0.2317 -1.893,5.0123 0.3475,3.6166 1.3259,6.0869 3.4656,8.75 3.9302,4.8915 13.9824,9.9361 23.3046,11.6953 8.5827,1.6196 21.533,1.3924 23.3032,-0.4089 z m 490.22041,-1.114 c 0.3529,-0.571 0.084,-3.2133 -0.5972,-5.8718 -0.6813,-2.6585 -0.9628,-5.5529 -0.6254,-6.4321 0.5533,-1.4417 1.023,-1.415 4.7921,0.2724 5.0843,2.2763 8.9285,1.3121 12.1521,-3.048 2.5208,-3.4096 3.5818,-3.5214 8.6902,-0.9153 4.3425,2.2154 36.6779,12.3739 47.9174,15.0538 14.2711,3.4027 32.9085,-1.2819 50.1472,-12.6048 9.1347,-5.9999 14.4905,-10.8133 13.6126,-12.2339 -0.9929,-1.6065 -5.835,-1.4891 -9.8287,0.2383 -3.1099,1.3452 -6.3049,2.1852 -25.2839,6.6474 -4.4,1.0345 -10.475,1.8868 -13.5,1.8941 -5.0116,0.012 -18.8308,-3.1855 -25,-5.7846 -6.0891,-2.5654 -17.6496,-5.3459 -32,-7.6966 -9.048,-1.4822 -19.6626,-3.9729 -25.5,-5.9837 -10.4914,-3.6138 -22.5064,-6.0923 -24.9634,-5.1494 -0.7963,0.3056 -2.0769,2.7149 -2.8457,5.354 -0.7689,2.6391 -2.0322,4.9233 -2.8073,5.0761 -0.7752,0.1527 -4.1036,-1.3783 -7.39651,-3.4023 -8.5692,-5.2669 -20.6987,-11.3432 -22.6781,-11.3605 -6.8515,-0.06 1.0437,13.1719 16.3363,27.379 13.10831,12.1778 36.50841,23.2116 39.37831,18.5679 z m -88.52361,-16.3996 c 0,-1.4905 -3.8647,-5.0649 -25,-23.1221 -20.0958,-17.1691 -28.9015,-23.4043 -35.8792,-25.4055 -2.5927,-0.7435 -3.5964,-0.4381 -6.7218,2.0457 -2.0207,1.6058 -3.8557,2.9197 -4.0778,2.9197 -0.2221,0 -5.8977,-5.2527 -12.6125,-11.6726 -6.7148,-6.42 -14.7847,-13.575 -17.9331,-15.9002 l -5.7243,-4.2275 -17.2568,0.2931 c -14.5353,0.2468 -17.4163,0.5459 -18.2684,1.8966 -0.7016,1.1124 -0.6427,2.1943 0.1923,3.5313 2.7234,4.3609 9.2448,21.8266 9.2708,24.8293 0.023,2.6467 -4.0523,1.0331 -10.6346,-4.211 -9.0085,-7.177 -20.1187,-13.8435 -21.9196,-13.1524 -0.9492,0.3642 -1.435,2.0571 -1.435,5.0002 0,9.6784 -1.8801,9.8501 -9.4562,0.8632 -9.4307,-11.1868 -22.0068,-19.8364 -32.3334,-22.2382 -9.6084,-2.2348 -29.124,2.074 -34.2874,7.5701 l -2.2141,2.3569 2.7106,1.0306 c 1.4909,0.5668 4.42,1.0306 6.5091,1.0306 10.712,0 22.2826,4.6204 32.0714,12.8067 3.025,2.5298 10,8.9273 15.5,14.2167 5.5,5.2894 11.8597,11.044 14.1328,12.788 8.1877,6.2822 21.9617,14.9129 26.5795,16.6544 8.7114,3.2853 9.8511,0.418 4.1855,-10.53 -4.0397,-7.8061 -3.9529,-10.5429 0.3005,-9.4754 1.4738,0.3699 3.8581,1.5117 5.2984,2.5372 5.5102,3.9237 10.7808,5.3087 17.8243,4.6841 4.8414,-0.4293 7.3668,-0.2016 9.179,0.8276 3.1309,1.7781 7.4251,1.8883 8.8048,0.226 0.7392,-0.8908 0.6193,-3.3176 -0.4055,-8.2063 -1.6673,-7.9543 -1.3671,-9.5275 1.8193,-9.5329 1.6056,0 5.3915,3.2652 12.7814,11.0324 l 10.5,11.0362 10,3.4399 c 5.5,1.8919 10.7428,3.2112 11.6506,2.9318 0.9078,-0.2794 1.9213,-1.587 2.2523,-2.9056 1.0756,-4.2856 3.7414,-3.9166 16.7472,2.3179 6.7925,3.256 13.8781,6.2472 15.7459,6.6472 1.8679,0.3999 6.1429,2.0266 9.5,3.6148 6.6564,3.1491 12.604,3.834 12.604,1.4515 z m -476.7997,-45.1879 c 1.4852,-0.7558 5.1558,-1.3743 8.1568,-1.3743 7.2507,0 16.4894,-4.1797 25.297,-11.4446 5.9,-4.8666 11.1797,-7.5309 14.961,-7.5498 0.6134,0 2.3178,-0.9516 3.7877,-2.1078 2.0676,-1.6264 2.419,-2.4076 1.5525,-3.4517 -1.9093,-2.3005 -20.2687,-14.0764 -23.8287,-15.2839 -3.1712,-1.0756 -3.5607,-0.9477 -6.5,2.1346 -1.7196,1.8034 -4.8004,4.5117 -6.8461,6.0186 -3.2307,2.3798 -3.6414,3.1301 -3.1255,5.7097 0.7582,3.791 -0.7541,5.5853 -5.4406,6.4549 -4.5897,0.8516 -6.9069,2.8436 -7.7446,6.6576 -0.3561,1.6212 -1.8333,3.6676 -3.3067,4.5809 -1.4647,0.9079 -3.709,2.5775 -4.9874,3.7102 -1.5293,1.3551 -4.2388,2.2326 -7.9213,2.5654 -6.5923,0.5959 -7.8346,2.4067 -3.0916,4.5065 3.9048,1.7287 14.6806,1.0912 19.0375,-1.1263 z m 779.23021,-11.36 c 16.6893,-3.4339 23.4409,-7.6329 28.1614,-17.5143 2.0718,-4.3369 2.3878,-6.4587 2.383,-16 0,-6.05 -0.4212,-11.6571 -0.9292,-12.4602 -1.3354,-2.1113 -4.3518,0.8783 -8.2324,8.1592 -1.7018,3.1928 -5.1685,7.6808 -7.7037,9.9732 -2.5353,2.2924 -9.7228,8.9289 -15.9722,14.7479 -6.2494,5.8189 -11.9869,10.9398 -12.75,11.3796 -1.7271,0.9955 -1.8071,3.3573 -0.1374,4.0588 0.6875,0.2889 2.2983,0.3088 3.5795,0.044 1.2813,-0.2644 6.5017,-1.3393 11.601,-2.3885 z m -633.93051,-17.5143 c 0,-1.3522 -1.3333,-2.6478 -4.1163,-4 -6.4229,-3.1208 -7.5397,-4.4094 -7.1924,-8.2987 0.4343,-4.8622 -1.6303,-5.9795 -8.0223,-4.3413 -5.2288,1.3401 -10.2026,0.9093 -16.3893,-1.4196 -12.59,-4.7393 -7.6883,11.1538 5.2091,16.8895 6.8767,3.0583 9.6684,3.5121 20.5112,3.3342 9.2786,-0.1523 10,-0.3084 10,-2.1641 z m 428.00001,-13.3734 c 12.0209,-3.7227 35.9481,-16.3159 35.1906,-18.5212 -0.6725,-1.9577 -19.3818,-1.2584 -25.6906,0.9603 -4.3738,1.5382 -7.9571,1.908 -17.5,1.8057 -10.6183,-0.1138 -13.8422,-0.6091 -28,-4.3015 -18.10991,-4.7233 -16.87041,-4.3226 -33.00001,-10.6672 -6.6,-2.5961 -14.4346,-6.3363 -17.4102,-8.3114 -5.0689,-3.3648 -5.9833,-3.611 -14.5,-3.904 -4.9994,-0.172 -10.8898,0.071 -13.0898,0.5393 -3.3509,0.7137 -4.0515,1.2935 -4.3174,3.5731 -0.3417,2.9285 -0.4889,2.7005 11.7534,18.2003 11.2271,14.2143 19.8832,21.5 25.5441,21.5 2.4347,0 2.5199,-0.2197 2.5199,-6.5 0,-6.1749 0.1188,-6.5 2.3743,-6.5 1.3058,0 4.3433,0.7018 6.75,1.5595 2.4066,0.8578 8.6507,2.4372 13.8757,3.5098 5.225,1.0727 10.85,2.4468 12.5,3.0538 15.13721,5.568 32.67531,7.2009 43.00001,4.0035 z m -186.16201,-20.1266 c 2.5051,-2.6542 3.4914,-3 8.5556,-3 6.8571,0 10.5196,-1.9722 8.1064,-4.3652 -2.0227,-2.0057 -13.1379,-5.6348 -17.2584,-5.6348 -1.8268,0 -6.0035,-0.6919 -9.2815,-1.5377 -7.2535,-1.8713 -29.2847,-10.3695 -30.0366,-11.5861 -0.8717,-1.4104 -5.4363,-1.0063 -6.0272,0.5335 -1.455,3.7916 11.4429,19.548 19.6856,24.0486 5.73,3.1286 10.2494,4.2121 18.4213,4.4165 4.346,0.1088 5.3753,-0.2689 7.8348,-2.8748 z m -122.1148,-2.9323 c 2.3523,-1.0627 7.2705,-3.2686 10.9296,-4.9019 7.6167,-3.4 33.0041,-18.4451 34.8232,-20.6369 2.2219,-2.6773 0.4354,-3.9894 -7.5465,-5.5426 -5.9532,-1.1584 -7.9952,-1.9696 -8.2468,-3.2759 -0.1839,-0.955 1.8733,-4.5429 4.5715,-7.9733 2.6982,-3.4304 6.3599,-8.8151 8.1371,-11.966 1.7772,-3.1508 3.6537,-5.9899 4.17,-6.309 1.5109,-0.9338 1.079,-4.1943 -0.6431,-4.8551 -0.87,-0.3339 -3.3157,-0.607 -5.4349,-0.607 -5.9693,0 -8.7931,-1.4866 -9.736,-5.1256 -0.7826,-3.0199 -1.3179,-3.3365 -9.2889,-5.4928 -13.6893,-3.7033 -13.7985,-3.6369 -7.9447,4.834 4.5659,6.6072 4.9863,7.6999 4.9863,12.961 0,4.6209 -0.4279,6.1442 -2.1862,7.7823 -3.1904,2.9722 -12.1222,6.0615 -21.6634,7.4928 -10.8438,1.6267 -12.5902,3.8366 -7.1504,9.0483 3.5755,3.4255 3.812,5.9239 0.75,7.9224 -3.9008,2.5458 -32.9321,15.1057 -40.465,17.5065 -8.3416,2.6584 -10.8326,4.2016 -10.0547,6.2289 0.7668,1.9981 15.3516,4.2804 21.5022,3.3648 5.3236,-0.7925 16.0863,-4.2484 18.0323,-5.79 2.03,-1.6083 11.8683,-3.5774 13.3373,-2.6695 1.105,0.6829 1.1148,1.4482 0.056,4.3764 -0.7058,1.9519 -1.0035,4.0015 -0.6616,4.5547 0.9731,1.5744 5.0513,1.186 9.7269,-0.9265 z m 446.69051,-2.0917 c 4.5027,-0.5844 8.1903,-1.6521 9.3917,-2.7191 2.6486,-2.3524 6.6727,-11.0852 6.6848,-14.5069 0.014,-3.9212 -3.529,-3.6452 -9.631,0.7503 -5.2301,3.7674 -14.7136,8.4997 -17.0333,8.4997 -0.7839,0 -2.7529,0.6866 -4.3756,1.5257 -4.0564,2.0977 -3.913,5.1391 0.2997,6.3555 4.2592,1.2298 5.8401,1.2401 14.6637,0.095 z m -586.91371,-34.3385 c 0,-0.7494 -3.0375,-3.6405 -6.75,-6.4247 -3.7125,-2.7842 -11.0161,-9.3711 -16.2303,-14.6375 -10.8805,-10.9896 -14.0197,-12.2736 -14.0197,-5.7342 0,5.409 2.3692,12.6431 5.4736,16.7132 3.1019,4.0668 7.736,6.611 16.0264,8.7989 11.4139,3.0121 15.5,3.3507 15.5,1.2843 z m 538.00001,-17.3492 c 9.7833,-2.6909 21.4301,-7.5634 24.25,-10.1449 2.0346,-1.8627 2.75,-3.4639 2.75,-6.1553 0,-5.267 -4.5524,-17.8477 -8.0195,-22.162 -3.4581,-4.3032 -3.5974,-5.4645 -1.2468,-10.3938 1.7104,-3.5868 1.7022,-3.6609 -0.6108,-5.5339 -1.2895,-1.0441 -3.1401,-1.8984 -4.1125,-1.8984 -1.6512,0 -12.3115,-5.9011 -14.3588,-7.9484 -0.5623,-0.5623 -0.4637,-2.7409 0.2529,-5.5865 0.9226,-3.6641 0.9064,-4.988 -0.076,-6.1713 -1.2563,-1.5137 -1.5953,-1.5051 -13.1235,0.331 -4.2186,0.672 -6.7839,-0.9421 -9.3335,-5.8724 -1.3043,-2.5223 -1.9072,-2.7524 -7.2121,-2.7524 h -5.7888 l -3.9355,-5.75 c -2.8804,-4.2084 -5.284,-6.4203 -8.9652,-8.25 -5.6009,-2.7839 -9.228,-5.066 -14.5727,-9.1689 -1.9813,-1.5209 -5.8063,-3.9363 -8.5,-5.3673 -8.6364,-4.5883 -12.4311,-7.0926 -16.2069,-10.6955 -2.0299,-1.9369 -5.7041,-4.9514 -8.1649,-6.6987 -4.2244,-2.9996 -4.5484,-3.0763 -5.8044,-1.3733 -2.8378,3.8479 1.6956,32.2344 6.7457,42.2386 3.6235,7.1781 5.6254,7.6134 7.6812,1.6702 2.2929,-6.6285 3.1048,-7.0291 7.113,-3.5099 3.5858,3.1485 5.7305,3.3975 11.9887,1.3924 2.027,-0.6494 2.2534,-0.3871 2.2839,2.6458 0.019,1.8516 0.9034,5.1666 1.9661,7.3666 1.0627,2.2 1.9474,5.1374 1.9661,6.5275 0.044,3.2906 2.6611,6.9725 4.9557,6.9725 0.9947,0 2.9314,-0.8833 4.3039,-1.9629 2.4917,-1.96 2.4983,-1.9596 4.4502,0.25 1.0752,1.2171 2.701,3.4163 3.6128,4.8871 2.3519,3.7932 5.0944,4.3493 9.6752,1.9617 3.3609,-1.7519 4.0457,-1.8292 5.0869,-0.5747 0.7578,0.9131 0.9701,2.9064 0.5737,5.3858 -0.5338,3.3377 -0.2912,4.173 1.5955,5.4946 1.2238,0.8571 3.4186,1.5584 4.8775,1.5584 5.1151,0 8.8411,1.2313 9.4405,3.1198 0.8409,2.6492 -2.91,7.5192 -7.6564,9.9406 -2.4067,1.2278 -4.5781,3.3323 -5.5577,5.3865 -1.5942,3.3432 -1.4653,4.481 0.8777,7.7446 0.9827,1.3689 0.8886,2.0513 -0.4936,3.5787 -0.9394,1.038 -1.708,2.2005 -1.708,2.5833 0,1.171 4.4176,2.4618 12.0408,3.5182 3.9966,0.5538 7.9479,1.6884 8.7808,2.5213 1.3525,1.3525 1.2559,1.7353 -0.9036,3.5811 -1.3299,1.1366 -3.6555,2.744 -5.168,3.572 -2.8386,1.5537 -3.702,4.8943 -1.5,5.8031 1.7381,0.7173 9.1988,-0.259 15.75,-2.0609 z m -214.70251,-26.1858 c 1.7029,-1.7029 -1.4908,-4.3694 -10.8869,-9.0896 -4.8471,-2.435 -9.4914,-5.5557 -10.699,-7.1891 -2.4665,-3.3361 -10.5975,-8.8238 -13.0741,-8.8238 -0.9281,0 -4.2481,-0.9 -7.3778,-2 -7.87,-2.7661 -9.1971,-2.5676 -13.3723,2 -3.5986,3.9368 -3.7669,4 -10.6494,4 -4.8578,0 -7.357,0.4385 -8.185,1.4361 -1.9498,2.3494 0.3938,5.3826 4.7091,6.0945 8.1294,1.3411 20.0626,4.5319 26.2379,7.0155 17.5048,7.0404 39.4851,10.3688 43.2975,6.5564 z m 288.89771,-33.8525 0.3048,-4.75 5.6289,0.2484 c 4.2044,0.1855 5.9711,-0.1639 6.981,-1.3808 1.1776,-1.419 0.8819,-2.0356 -2.2926,-4.7797 -2.0045,-1.7328 -7.171,-4.6852 -11.481,-6.5609 -10.2029,-4.4402 -14.3202,-7.1862 -17.8894,-11.9312 -5.323,-7.0766 -12.4469,-10.2368 -12.4469,-5.5215 0,5.3537 5.649,19.8034 10.3858,26.5662 0.7156,1.0217 3.9591,3.5804 7.2077,5.686 3.2486,2.1057 6.5241,4.5811 7.2789,5.501 0.7549,0.9199 2.4177,1.6725 3.6953,1.6725 2.0615,0 2.357,-0.5341 2.6275,-4.75 z m -608.39871,-4.2343 c 0.9369,-1.6414 2.3131,-3.2204 3.0582,-3.5088 0.7451,-0.2885 6.2694,-0.061 12.2762,0.5054 16.0417,1.5128 18.4892,-0.489 8.5961,-7.0308 -13.0277,-8.6145 -19.1579,-10.7504 -25.7557,-8.9738 -3.9747,1.0703 -4.634,0.911 -12.4958,-3.02 -9.8827,-4.9413 -12.8318,-4.9834 -13.2924,-0.1898 -0.5915,6.1548 9.2409,18.728 18.0588,23.0928 5.7132,2.828 7.5362,2.661 9.5546,-0.875 z m -254.3334,-1.4358 c 2.6192,-1.0944 3.6427,-2.2986 4.4623,-5.25 2.8489,-10.26 -1.0993,-17.0316 -10.5515,-18.097 -3.6286,-0.409 -5.0674,-0.024 -8.3077,2.2212 -3.6877,2.5556 -7.0708,7.6798 -7.0625,10.697 0.01,3.0036 4.2313,8.0531 8.267,9.8851 5.0705,2.3017 8.6333,2.4486 13.1924,0.5437 z m 1051.01571,-44.7522 c 1.4152,-0.6448 2.4138,-1.6498 2.2193,-2.2334 -0.1946,-0.5837 -3.2792,-2.1936 -6.8548,-3.5777 -11.1576,-4.3191 -29.9609,-14.6954 -42.3433,-23.3664 -3.85,-2.6961 -11.05,-8.7974 -16,-13.5584 -19.9732,-19.2109 -31.285,-28.1269 -63.2812,-49.8787 -10.8226,-7.3575 -14.0382,-8.8801 -16.6429,-7.8806 -1.2096,0.4642 -1.1345,1.5156 0.4901,6.8579 3.805,12.5126 2.2104,12.766 -9.8124,1.5596 -10.5341,-9.8189 -19.7796,-16.3127 -35.041,-24.6119 -18.3565,-9.9823 -19.9725,-7.9277 -5.7903,7.3619 7.1919,7.7535 14.2356,23.5 10.512,23.5 -1.8673,0 -5.3353,-2.2401 -7.264,-4.692 -1.0272,-1.3058 -4.0414,-3.4758 -6.6982,-4.8221 -2.6568,-1.3463 -5.1,-2.8838 -5.4293,-3.4166 -0.7751,-1.2542 -12.3579,-10.0693 -13.2308,-10.0693 -0.3661,0 -2.9486,-1.5193 -5.7388,-3.3762 -16.5357,-11.0043 -20.9881,-13.6238 -23.157,-13.6238 -4.2857,0 -2.6911,2.8072 6.9804,12.2883 16.9275,16.5944 25.5914,27.0729 25.5997,30.9617 0.01,2.9105 -1.7509,2.0519 -10.3058,-5.0361 -10.8949,-9.0267 -19.0459,-14.206 -22.4251,-14.2493 -1.521,-0.019 -3.8904,-0.6786 -5.2654,-1.4646 -1.375,-0.786 -2.8886,-1.4451 -3.3635,-1.4646 -1.1575,-0.048 -0.3107,4.4091 1.9342,10.1788 2.0182,5.1872 1.4453,7.0153 -1.3933,4.4463 -1.0092,-0.9133 -2.1466,-1.6605 -2.5276,-1.6605 -0.381,0 -3.4963,-2.2032 -6.9228,-4.896 -7.4395,-5.8465 -15.1586,-10.104 -18.3192,-10.104 -2.3897,0 -5.4078,3.3324 -5.4078,5.9711 0,0.8393 3.0742,4.4517 6.8314,8.0275 3.7573,3.5758 9.2282,9.4264 12.1575,13.0014 8.5272,10.4068 33.4711,34.5515 42.8715,41.4978 4.7518,3.5113 9.7646,7.2239 11.1396,8.2501 3.852,2.8751 10.8223,4.6445 12.5729,3.1916 2.0165,-1.6735 1.7947,-2.6381 -1.1945,-5.1961 -2.5787,-2.2067 -6.3784,-9.5497 -6.3784,-12.3263 0,-2.5724 2.1517,-1.4886 8.8705,4.4681 6.2809,5.5684 13.4406,9.0385 14.6411,7.0961 0.29,-0.4693 0.08,-2.7945 -0.4677,-5.1672 -1.4414,-6.2497 -1.3036,-9.8141 0.3795,-9.8141 0.7829,0 4.6449,3.1834 8.5824,7.0743 7.7895,7.6973 15.204,12.9074 18.44,12.9575 1.1298,0.017 2.9277,0.6925 3.9953,1.5 2.2954,1.7361 7.5589,1.9633 7.5589,0.3263 0,-0.6281 -1.704,-3.8906 -3.7867,-7.25 -9.0818,-14.649 -8.1671,-17.9749 2.7867,-10.1337 2.475,1.7717 6.8472,4.52 9.7161,6.1073 7.0915,3.9237 8.2393,2.7425 5.3215,-5.4759 -3.3273,-9.3716 -1.8731,-10.2645 6.1207,-3.7581 7.6002,6.186 11.5816,8.1131 13.49,6.5293 0.9916,-0.8231 1.3306,-2.2933 0.9942,-4.3129 -1.8108,-10.8719 -1.8327,-11.5641 -0.3653,-11.5641 2.6799,0 6.4967,3.9373 12.3599,12.7501 6.4923,9.7584 18.5646,22.9153 25.2429,27.5109 5.2808,3.6338 12.7322,4.913 13.7141,2.3543 0.3463,-0.9024 0.087,-2.2949 -0.5768,-3.0944 -0.6635,-0.7995 -1.0396,-1.9539 -0.8358,-2.5653 0.2038,-0.6115 4.1667,1.7086 8.8063,5.1556 4.9506,3.6779 11.5503,7.4799 15.974,9.2023 11.951,4.6532 31.0343,7.0123 36.517,4.5142 z m -302.4788,-29.147 c 0,-1.703 -8.8207,-14.3979 -10.4341,-15.017 -2.4239,-0.9302 -4.2678,0.2023 -5.6115,3.4464 -1.6202,3.9114 -4.273,5.3112 -7.2044,3.8015 -1.2375,-0.6373 -7.0203,-5.8281 -12.8506,-11.5352 -5.8303,-5.707 -11.1178,-10.3764 -11.75,-10.3764 -1.3749,0 -1.5583,7.7943 -0.2635,11.1998 1.3909,3.6585 9.9094,12.5959 14.6576,15.3786 2.5645,1.5029 6.8743,2.8454 10.6343,3.3127 8.7067,1.082 22.8222,0.9519 22.8222,-0.2104 z m -370.59291,-56.5303 c 0.4256,-0.6887 -8.781,-11.2286 -15.8544,-18.1504 -0.8431,-0.825 -4.8492,-4.7625 -8.9024,-8.75 -4.0533,-3.9875 -8.038,-7.25 -8.855,-7.25 -4.3878,0 -6.9519,9.292 -4.3111,15.6231 3.3384,8.0034 11.2264,13.4804 23.5648,16.3622 2.998,0.7002 6.576,1.6294 7.951,2.065 3.4103,1.0801 5.7785,1.1171 6.4071,0.1001 z m 1530.09291,175.326 c -0.8902,-0.3525 -34.9465,-1.8964 -99.5,-4.5106 -52.0368,-2.1073 -72.5735,-3.0307 -88.2114,-3.9661 -9.1912,-0.5499 -21.7912,-0.9975 -28,-0.9947 -6.2087,0 -16.9136,-0.4459 -23.7886,-0.9969 -6.875,-0.551 -25.1,-1.5011 -40.5,-2.1114 -66.4751,-2.6342 -68.8702,-2.7314 -144,-5.8463 -14.85,-0.6157 -33.975,-1.549 -42.5,-2.0741 -8.525,-0.525 -24.0471,-1.2041 -34.4936,-1.5091 -10.4466,-0.305 -19.3104,-0.8724 -19.6975,-1.2608 -1.0494,-1.0532 1.1268,-51.1467 2.3983,-55.2064 0.6029,-1.925 2.3779,-6.2728 3.9445,-9.6617 1.5666,-3.389 2.8483,-6.4132 2.8483,-6.7204 0,-0.3073 1.1395,-3.0498 2.5322,-6.0946 1.3927,-3.0447 6.8363,-15.7706 12.0969,-28.2796 5.2606,-12.509 10.6255,-25.0744 11.9219,-27.923 1.2965,-2.8486 4.4318,-10.2129 6.9674,-16.3652 2.5356,-6.1524 5.9312,-14.0705 7.5459,-17.5958 1.6146,-3.5254 2.9357,-6.6524 2.9357,-6.9488 0,-0.2965 1.062,-2.8727 2.36,-5.725 1.298,-2.8522 6.5221,-15.0859 11.6091,-27.1859 5.0871,-12.1 10.1246,-24.025 11.1946,-26.5 1.07,-2.475 2.3251,-5.4 2.7889,-6.5 1.3044,-3.0929 3.62,-8.422 6.5181,-15 1.4538,-3.3 3.0228,-6.9 3.4866,-8 0.4639,-1.1 1.8169,-4.1936 3.0068,-6.8748 1.1899,-2.6811 3.006,-7.0124 4.0359,-9.6252 1.0299,-2.6128 2.7653,-6.7191 3.8566,-9.1252 1.0913,-2.4062 4.3145,-9.9998 7.1627,-16.8748 4.6962,-11.3359 6.3046,-15.1072 10.4489,-24.5 0.728,-1.65 2.3243,-5.475 3.5473,-8.5 2.7405,-6.7784 4.089,-9.9109 7.3981,-17.1859 1.4225,-3.1273 2.5864,-5.9285 2.5864,-6.225 0,-0.2964 1.3987,-3.5878 3.1082,-7.3141 1.7095,-3.7262 3.9308,-8.8564 4.9362,-11.4002 1.0054,-2.5439 2.7118,-6.5939 3.792,-9 1.0801,-2.4062 4.9894,-11.5748 8.6873,-20.3748 8.3268,-19.8154 9.1282,-21.708 10.9055,-25.752 0.7861,-1.7886 2.3929,-5.5002 3.5708,-8.248 1.1779,-2.7478 2.7847,-6.4594 3.5708,-8.248 1.277,-2.9057 2.8724,-6.6768 5.3949,-12.752 0.4567,-1.1 1.5159,-3.575 2.3538,-5.5 0.8378,-1.925 4.7509,-11.15 8.6956,-20.5 3.9448,-9.35 7.7715,-18.35 8.504,-20 0.7324,-1.65 2.4902,-5.6008 3.9063,-8.7796 1.416,-3.1788 2.5746,-6.0202 2.5746,-6.3141 0,-0.294 1.1732,-3.0931 2.6071,-6.2204 1.4339,-3.1272 3.4302,-7.7673 4.4362,-10.3111 1.0061,-2.5439 2.8102,-6.8189 4.0093,-9.5 3.4303,-7.6702 4.137,-9.3253 15.9585,-37.3748 6.1427,-14.575 12.4781,-29.3439 14.0787,-32.8198 1.6006,-3.4758 2.9102,-6.8733 2.9102,-7.55 0,-0.6766 0.3857,-1.6577 0.8571,-2.1802 0.4714,-0.5225 2.3267,-4.55 4.1229,-8.95 3.2629,-7.9929 5.1446,-12.3439 9.6346,-22.2773 1.312,-2.9026 2.3854,-5.7686 2.3854,-6.369 0,-0.7528 2.87,-0.9073 9.25,-0.4979 5.0875,0.3265 21.85,1.1 37.25,1.7189 15.4,0.6189 28.4585,1.2512 29.0188,1.4052 1.2632,0.347 0.8401,-0.9092 25.0977,74.5201 3.626,11.275 6.9574,21.4 7.4032,22.5 0.4458,1.1 1.5852,4.475 2.532,7.5 0.9469,3.025 2.0644,6.4 2.4835,7.5 0.419,1.1 3.9973,12.125 7.9516,24.5 3.9544,12.375 8.6623,27 10.4621,32.5 1.7998,5.5 6.7551,20.8 11.0117,34 4.2565,13.2 8.0988,24.9 8.5383,26 0.9541,2.3881 18.7635,57.3748 22.51,69.5 1.4445,4.675 2.995,9.4 3.4457,10.5 0.4506,1.1 2.7303,8.075 5.0659,15.5 2.3355,7.425 4.6042,14.4 5.0416,15.5 0.4373,1.1 1.5344,4.475 2.4379,7.5 0.9035,3.025 2.019,6.4 2.4787,7.5 0.4597,1.1 4.9647,14.825 10.011,30.5 5.0463,15.675 9.7849,30.3 10.5302,32.5 0.7453,2.2 4.8028,14.8 9.0167,28 4.2139,13.2 8.0235,24.9 8.4659,26 0.4424,1.1 5.6052,16.85 11.4728,35 5.8676,18.15 11.0516,34.125 11.52,35.5 0.4685,1.375 4.9774,15.325 10.02,31 5.0425,15.675 9.5392,29.4 9.9926,30.5 0.4535,1.1 3.1658,9.2 6.0274,18 l 5.2029,16 -0.7652,14 c -0.421,7.7 -1.0371,19.625 -1.3692,26.5 l -0.6038,12.5 -12,0.1862 c -6.6,0.1024 -12.45,0.01 -13,-0.2098 z m -55.5085,-78.2264 c -0.9893,-3.1625 -4.2493,-13.175 -7.2446,-22.25 -2.9952,-9.075 -8.4686,-25.95 -12.1631,-37.5 -3.6944,-11.55 -7.0954,-22.125 -7.5578,-23.5 -0.4623,-1.375 -3.4147,-10.6 -6.561,-20.5 -3.1462,-9.9 -6.0515,-18.9 -6.4561,-20 -0.4046,-1.1 -1.5103,-4.475 -2.4572,-7.5 -0.9468,-3.025 -2.0891,-6.4 -2.5383,-7.5 -0.4493,-1.1 -2.7199,-8.075 -5.0459,-15.5 -2.326,-7.425 -5.7024,-18 -7.5032,-23.5 -4.7448,-14.4916 -19.2518,-59.645 -22.1685,-69 -1.3718,-4.4 -2.8381,-8.9 -3.2584,-10 -0.4203,-1.1 -1.5388,-4.475 -2.4857,-7.5 -0.9468,-3.025 -2.0891,-6.4 -2.5383,-7.5 -0.4493,-1.1 -2.7053,-8.075 -5.0134,-15.5 -2.3081,-7.425 -4.5614,-14.4 -5.0074,-15.5 -0.446,-1.1 -2.7012,-8.075 -5.0117,-15.5 -2.3105,-7.425 -5.2401,-16.65 -6.5104,-20.5 -1.2703,-3.85 -6.446,-19.825 -11.5017,-35.5 -5.0557,-15.675 -10.6718,-33 -12.4803,-38.5 -5.0446,-15.3418 -21.4374,-66.3732 -23.1285,-72 -0.8266,-2.75 -1.8937,-5.9 -2.3714,-7 -0.4777,-1.1 -1.908,-5.375 -3.1786,-9.5 -2.0237,-6.5704 -2.6264,-7.5369 -4.8625,-7.7974 -2.2345,-0.2603 -2.8887,0.4307 -5.25,5.5456 -1.4836,3.2136 -2.6975,6.1621 -2.6975,6.5522 0,0.3902 -1.125,3.0414 -2.5,5.8917 -1.375,2.8502 -2.5,5.5357 -2.5,5.9677 0,0.432 -1.1791,3.3853 -2.6201,6.5629 -4.0572,8.9459 -4.5122,10.013 -18.9412,44.4188 -7.4637,17.7972 -14.2158,33.6651 -15.0046,35.2621 -0.7887,1.597 -1.4341,3.2517 -1.4341,3.677 0,0.4253 -1.575,4.1831 -3.5,8.3506 -1.925,4.1675 -3.5,7.8292 -3.5,8.1371 0,0.3079 -1.0658,2.8935 -2.3684,5.7458 -1.3027,2.8522 -5.152,11.9359 -8.5541,20.1859 -3.4022,8.25 -6.7918,16.35 -7.5325,18 -0.7408,1.65 -4.3611,10.2 -8.0453,19 -3.6841,8.8 -7.5537,17.8878 -8.5991,20.1951 -1.0453,2.3074 -1.9006,4.4315 -1.9006,4.7204 0,0.2889 -1.1507,3.1261 -2.557,6.3049 -1.4064,3.1788 -2.9365,6.6796 -3.4003,7.7796 -0.4639,1.1 -1.7324,4.025 -2.819,6.5 -1.0865,2.475 -5.8918,13.95 -10.6783,25.5 -4.7866,11.55 -9.5674,22.9076 -10.6241,25.2391 -1.0567,2.3315 -1.9213,4.4376 -1.9213,4.6802 0,0.2427 -1.35,3.3578 -3,6.9227 -1.65,3.5648 -3,6.7329 -3,7.0401 0,0.3073 -1.125,3.0181 -2.5,6.0242 -1.375,3.006 -2.5,5.7081 -2.5,6.0046 0,0.2964 -1.3987,3.5878 -3.1082,7.3141 -1.7095,3.7262 -3.9132,8.8 -4.8971,11.275 -1.8346,4.6151 -29.6594,70.9081 -33.1582,79 -1.0701,2.475 -2.3711,5.5125 -2.8911,6.75 -0.52,1.2375 -1.3861,3.2625 -1.9248,4.5 -0.5386,1.2375 -1.4221,3.375 -1.9632,4.75 -0.5412,1.375 -6.8006,16.225 -13.9099,33 -7.1092,16.775 -12.6382,30.8004 -12.2867,31.1675 0.3516,0.3671 10.9892,1.1976 23.6392,1.8455 22.2829,1.1414 34.26,1.6461 92.5,3.8975 15.125,0.5848 34.1467,1.5191 42.2704,2.0763 8.1237,0.5573 19.1487,1.0103 24.5,1.0067 5.3513,0 16.4796,0.4411 24.7296,0.988 8.25,0.5469 27.6,1.4778 43,2.0685 15.4,0.5908 37.9,1.5395 50,2.1083 39.7571,1.8689 55.8338,2.4992 68.1451,2.6716 l 12.1452,0.1701 z m -1780.76241,21.5791 c -1.6294,-1.6294 -1.5508,-3.4973 0.3959,-9.401 2.1839,-6.6233 4.0537,-8.3398 10.1319,-9.3006 7.724,-1.221 11.5048,-4.6341 14.7939,-13.3552 4.9414,-13.102 9.5396,-19.2819 12.296,-16.5255 0.6343,0.6343 1.1532,2.4277 1.1532,3.9855 0,4.6932 -5.8569,18.381 -10.4888,24.5128 -3.6266,4.8009 -13.4653,14.3272 -19.5112,18.8915 -2.4848,1.8759 -7.4169,2.5465 -8.7709,1.1925 z m -18.3843,-48.3144 c -7.3161,-2.6908 -16.0259,-9.2572 -19.4286,-14.6474 -1.3319,-2.1099 -3.5837,-6.8808 -5.004,-10.6018 -2.1212,-5.5577 -2.4969,-7.9259 -2.1043,-13.2655 1.1273,-15.3315 11.8363,-28.4508 27.0554,-33.1446 22.8951,-7.0614 40.8375,-0.1494 50.6653,19.5177 2.5222,5.0474 2.9681,7.0938 2.9494,13.5366 -0.026,9.0503 -1.8317,13.6509 -8.7376,22.2636 -5.2308,6.5236 -15.2812,13.7427 -22.5846,16.2223 -5.7058,1.9372 -17.6976,1.9998 -22.811,0.1191 z m 5.8639,-46.7647 c 5.0788,-5.5544 6.7923,-12.8763 3.434,-14.6736 -5.0868,-2.7224 -13.1427,3.6073 -13.1427,10.3264 0,5.9542 5.8459,8.5718 9.7087,4.3472 z m 1177.29131,40.8534 c 0,-0.3684 33.9102,-79.6676 35.9645,-84.1034 0.5095,-1.1 1.797,-4.025 2.8611,-6.5 1.0642,-2.475 6.7699,-15.75 12.6795,-29.5 5.9095,-13.75 11.5884,-26.8878 12.6198,-29.1951 2.241,-5.0138 2.2238,-4.7094 0.4901,-8.6538 -0.7618,-1.7331 -4.3954,-10.3511 -8.0746,-19.1511 -3.6793,-8.8 -7.3142,-17.3825 -8.0776,-19.0723 -0.7634,-1.6898 -6.8445,-16.0898 -13.5135,-32 -13.1751,-31.432 -17.1406,-40.7826 -19.9011,-46.9277 -0.9883,-2.2 -5.6897,-13.3663 -10.4476,-24.8141 -4.7578,-11.4477 -9.5842,-22.9227 -10.7253,-25.5 -1.141,-2.5772 -2.4552,-5.5859 -2.9204,-6.6859 -0.4651,-1.1 -1.7298,-4.025 -2.8104,-6.5 -1.0805,-2.475 -2.853,-6.75 -3.9388,-9.5 -2.4689,-6.253 -21.4322,-50.9118 -24.1758,-56.9343 -1.1164,-2.4508 -2.0299,-4.6823 -2.0299,-4.959 0,-0.2766 -3.6337,-8.9638 -8.075,-19.3048 -9.9156,-23.0878 -22.925,-54.2061 -22.925,-54.8365 0,-0.256 17.0677,-0.4654 37.9282,-0.4654 h 37.9281 l 1.9815,5.25 c 1.0899,2.8875 7.9281,20.55 15.1962,39.25 7.268,18.7 14.4667,37.375 15.997,41.5 1.5302,4.125 5.0222,13.125 7.7599,20 2.7378,6.875 8.2153,21.05 12.1724,31.5 3.957,10.45 7.6026,19.9 8.1012,21 0.4987,1.1 4.5196,11.45 8.9355,23 4.4159,11.55 8.4185,21.9 8.8947,23 1.4436,3.3345 11.6672,29.5814 15.1914,39.0007 1.1239,3.0037 2.4737,5.7272 2.9996,6.0523 0.5259,0.325 1.6499,-1.1289 2.4977,-3.231 0.8479,-2.1021 2.1534,-5.172 2.9013,-6.822 1.5318,-3.3796 17.0776,-39.5212 37.2068,-86.5 7.4234,-17.325 14.6278,-33.975 16.0099,-37 1.382,-3.025 3.3359,-7.5814 4.3419,-10.1252 1.0061,-2.5439 2.7331,-6.5939 3.838,-9 1.6778,-3.654 23.7181,-54.8164 36.994,-85.8748 1.9983,-4.675 3.9954,-9.0625 4.438,-9.75 1.061,-1.648 73.6867,-1.8403 73.6867,-0.1951 0,0.9254 -2.1721,6.2879 -5.0411,12.4451 -0.5125,1.1 -3.229,7.4 -6.0365,14 -7.2628,17.0735 -36.4303,84.7661 -41.2587,95.754 -2.3846,5.4266 -3.9878,9.1373 -17.1714,39.746 -26.6064,61.7727 -31.7019,73.5885 -32.99,76.5 -4.4572,10.0747 -9.5668,21.8878 -19.0316,44 -5.8854,13.75 -11.8222,27.475 -13.1929,30.5 -1.3706,3.025 -3.3151,7.5814 -4.3211,10.1252 -1.0061,2.5439 -2.7196,6.5939 -3.8079,9 -2.6532,5.8659 -20.3019,46.762 -23.5873,54.6575 -1.4379,3.4555 -3.9525,9.2042 -5.5879,12.775 -1.6355,3.5708 -2.9736,6.7308 -2.9736,7.0222 0,0.2914 -0.9687,2.6426 -2.1526,5.225 -2.7179,5.9278 -24.046,55.2639 -28.076,64.9451 l -3.0179,7.25 h -36.8768 c -20.2822,0 -36.8767,-0.1785 -36.8767,-0.3966 z M 459.62059,2366.0379 c -0.3335,-0.5397 -0.093,-3.8022 0.5345,-7.25 0.7411,-4.0718 0.8939,-10.7372 0.4359,-19.0188 -0.6155,-11.1307 -0.5091,-12.75 0.8384,-12.75 3.8947,0 8.6965,13.0701 8.6576,23.5656 -0.014,3.6451 -0.7522,7.5428 -1.915,10.1037 -2.3427,5.1598 -6.9048,8.0137 -8.5514,5.3495 z m 1868.04081,-35.9341 c -0.7499,-1.2132 -2.6966,-7.1787 -8.5122,-26.0847 -2.284,-7.425 -4.5144,-14.4 -4.9564,-15.5 -0.442,-1.1 -1.5939,-4.7 -2.5599,-8 -0.9659,-3.3 -2.101,-6.9 -2.5225,-8 -0.8847,-2.3092 -4.0699,-12.3344 -10.008,-31.5 -2.3005,-7.425 -5.9137,-18.9 -8.0292,-25.5 -2.1156,-6.6 -4.5979,-14.475 -5.5163,-17.5 -0.9185,-3.025 -2.4841,-7.975 -3.4792,-11 -1.6268,-4.9452 -5.4845,-17.3089 -12.6367,-40.5 -1.357,-4.4 -2.8166,-8.9 -3.2435,-10 -0.427,-1.1 -1.4773,-4.25 -2.334,-7 -0.8567,-2.75 -3.8153,-12.2 -6.5746,-21 -2.7592,-8.8 -7.3221,-23.425 -10.1397,-32.5 -2.8176,-9.075 -5.7237,-18.3 -6.458,-20.5 -0.7344,-2.2 -2.5712,-8.05 -4.0818,-13 -1.5107,-4.95 -3.1095,-9.9 -3.553,-11 -0.7803,-1.9354 -6.6552,-20.5978 -11.6476,-37 -1.3393,-4.4 -2.7995,-8.9 -3.245,-10 -0.4456,-1.1 -2.1867,-6.5 -3.8693,-12 -6.0445,-19.7586 -11.4955,-37.1756 -14.7095,-47 -5.4048,-16.5214 -5.8208,-14.776 4.2906,-18.0011 14.351,-4.5773 22.2403,-7.0578 31.7334,-9.9773 4.95,-1.5223 10.0258,-3.2456 11.2795,-3.8295 2.8052,-1.3065 4.1002,-0.083 6.6788,6.3079 0.9986,2.475 2.6539,6.4076 3.6786,8.7391 1.0247,2.3315 1.8631,4.5135 1.8631,4.8489 0,0.3353 0.6139,2.0277 1.3642,3.7609 0.7503,1.7331 2.19,5.1761 3.1993,7.6511 1.0093,2.475 2.403,5.3627 3.097,6.4171 1.1934,1.8131 1.3194,1.7588 2.3213,-1 2.9807,-8.2073 10.0701,-22.0424 15.5824,-30.4097 2.6261,-3.9861 9.2447,-11.6957 14.7081,-17.1324 26.2669,-26.1386 63.3174,-40.875 102.7687,-40.875 27.6503,0 55.5562,8.2981 79.8889,23.7559 31.4924,20.006 57.7543,53.3799 71.0131,90.2441 0.6924,1.925 1.6313,4.4 2.0865,5.5 0.8192,1.9796 2.7093,8.2635 4.8125,16 1.7974,6.6116 4.0155,21.317 4.9776,33 1.3112,15.9219 -0.8166,39.3418 -4.9971,55 -1.9065,7.1413 -3.9467,13.9548 -4.7907,16 -0.454,1.1 -1.818,4.475 -3.0312,7.5 -13.4102,33.437 -40.0104,61.2348 -74.0417,77.3751 -21.5492,10.2204 -39.8546,14.589 -61.9589,14.7868 -25.5347,0.2283 -46.2727,-5.5853 -68.8492,-19.301 -3.4954,-2.1235 -6.7592,-3.8609 -7.253,-3.8609 -1.152,0 -1.1545,2.528 0,4.7636 0.4912,0.955 2.1274,5.7864 3.6361,10.7364 5.0704,16.6362 7.7009,24.9873 8.5046,27 0.4393,1.1 2.2414,6.725 4.0047,12.5 1.7633,5.775 4.6964,15.225 6.518,21 1.8216,5.775 5.8581,18.6 8.9698,28.5 3.1118,9.9 6.4689,20.475 7.4603,23.5 4.6662,14.2387 8.2195,26.1172 7.8837,26.3548 -0.3966,0.2808 -23.0779,7.5591 -31.3703,10.0666 -6.1333,1.8546 -24.5718,7.6974 -26.1488,8.2861 -0.6319,0.2359 -1.4414,-0.044 -1.7988,-0.6228 z m 90.7666,-211.1533 c 12.8343,-3.3998 15.8336,-4.404 22.5696,-7.5562 25.8463,-12.0953 44.8444,-33.0502 53.4843,-58.9934 18.3913,-55.2241 -10.6401,-117.8825 -63.6342,-137.342 -12.7099,-4.667 -17.6998,-5.4499 -34.7387,-5.4499 -20.4555,0 -30.1876,2.2694 -46.7387,10.8988 -10.529,5.4895 -12.2737,6.7642 -22.5988,16.5113 -13.7969,13.0245 -21.8374,27.3337 -27.8143,49.5 -1.8201,6.7502 -1.8467,38.2885 -0.037,44.5 8.7301,29.9724 16.935,45.5 32.4177,61.3494 14.5691,14.9141 36.6399,25.6364 57.7716,28.0662 5.7892,0.6657 24.8448,-0.299 29.319,-1.4842 z m -1551.31901,189.812 c 0,-1.2411 0.4516,-3.8286 1.0036,-5.75 0.552,-1.9214 1.4936,-8.505 2.0926,-14.6303 0.599,-6.1252 1.6099,-13.7752 2.2464,-17 1.3559,-6.8689 1.5396,-6.9179 13.6574,-3.6432 8.3889,2.2669 16.797,3.9727 24.9886,5.0695 3.7921,0.5077 5.5822,1.2206 5.7913,2.3064 0.1665,0.8643 -2.6566,4.7678 -6.2735,8.6744 -5.1169,5.5267 -9.1128,8.5594 -18.007,13.6663 -6.287,3.6099 -11.6759,6.5635 -11.9754,6.5635 -0.2995,0 -2.7853,1.575 -5.524,3.5 -5.8173,4.0888 -8,4.4281 -8,1.2434 z m -501.1109,-1.6463 c -11.064,-3.6008 -18.0103,-12.2626 -18.6948,-23.3117 -0.3675,-5.9312 -0.047,-7.506 2.7488,-13.5 7.6801,-16.4661 23.6997,-25.2854 45.9294,-25.2854 18.7388,0 33.8049,7.1444 44.7346,21.2133 7.5422,9.7084 8.89,13.2192 8.7047,22.6749 -0.2169,11.0676 -0.7601,12.9352 -3.9991,13.7482 -1.4612,0.3667 -8.5419,-0.1351 -15.7347,-1.1152 -12.2877,-1.6743 -13.7326,-1.683 -23.9098,-0.1439 -5.9574,0.9009 -14.2824,2.5477 -18.5,3.6595 -9.1238,2.4052 -17.6752,3.2332 -21.2791,2.0603 z m 23.7428,-25.6683 c 2.8511,-3.023 3.3681,-4.301 3.3681,-8.3257 0,-3.6671 -0.5256,-5.2482 -2.2981,-6.9134 -3.6217,-3.4024 -7.9621,-3.81 -12.2635,-1.1516 -9.9262,6.1347 -7.2743,19.9619 3.8284,19.9619 3.2878,0 4.5947,-0.6337 7.3651,-3.5712 z m 1057.36811,4.9596 c -8.8882,-2.8054 -62.6626,-15.6079 -72.972,-17.3729 -12.1073,-2.0729 -16.8193,-3.6242 -15.3801,-5.0634 0.6097,-0.6097 17.1721,-0.8762 44.3083,-0.7129 l 43.3346,0.2608 1.4495,4.9715 c 0.7972,2.7344 3.4317,8.0359 5.8546,11.7812 2.4228,3.7453 4.4051,7.0206 4.4051,7.2785 0,0.9318 -6.5996,0.2461 -11,-1.1428 z m -529.50001,-30.9592 c -31.6583,-4.2902 -54.2904,-12.5877 -77,-28.23 -33.0886,-22.7913 -59.2688,-61.2907 -70.517,-103.6992 -5.0399,-19.0019 -6.8744,-33.9384 -6.8777,-56 -0.01,-33.481 6.0722,-60.739 19.8428,-89 17.4301,-35.7712 42.2981,-61.6113 77.2207,-80.2393 11.1875,-5.9675 32.8322,-12.9241 47.8312,-15.3729 13.8435,-2.2602 44.0365,-1.7919 57.5236,0.8922 29.6351,5.8976 52.24181,17.7916 72.50251,38.1455 5.7894,5.816 12.0774,12.3745 13.9733,14.5745 l 3.4472,4 0.7108,-7.5 c 0.3909,-4.125 1.206,-14.25 1.8113,-22.5 0.6053,-8.25 1.3422,-15.7936 1.6376,-16.7636 0.501,-1.6449 2.7353,-1.7458 33.2154,-1.5 l 32.6783,0.2636 v 176 176 l -32.6783,0.2636 c -30.4815,0.2458 -32.7141,0.145 -33.2111,-1.5 -0.293,-0.97 -0.9843,-7.8386 -1.5362,-15.2636 -2.0697,-27.844 -2.3919,-31.0597 -3.0847,-30.7833 -0.3906,0.1558 -3.3422,3.4333 -6.5592,7.2833 -22.0833,26.4289 -48.3521,41.7072 -84.43051,49.1058 -7.1661,1.4695 -39.6978,2.7452 -46.5,1.8234 z m 55.7098,-73.8305 c 18.1841,-4.6128 35.35751,-14.3272 48.42011,-27.3899 38.788,-38.788 44.5669,-108.1146 12.9705,-155.601 -26.2247,-39.4134 -74.41841,-55.9263 -122.46141,-41.9598 -15.7464,4.5776 -33.6025,15.8237 -46.286,29.1519 -13.4647,14.1492 -21.8306,28.2993 -26.7234,45.2001 -1.1942,4.125 -2.654,8.85 -3.244,10.5 -1.5341,4.2903 -2.2984,36.6934 -1.0497,44.5 4.4287,27.6862 14.915,48.9077 33.1111,67.0081 17.3453,17.254 38.0223,27.445 63.053,31.0763 10.1708,1.4755 31.5594,0.216 42.2098,-2.4857 z m -52.6157,-18.1666 c -18.8866,-5.2251 -36.863,-17.5521 -48.3647,-33.1653 -7.1151,-9.6584 -9.7605,-15.1867 -8.3487,-17.4473 1.6653,-2.6667 1.4797,-3.3535 -2.9628,-10.96 -4.4396,-7.6017 -4.485,-9.8512 -0.1993,-9.8748 8.09,-0.045 6.9098,-4.051 -7.0387,-23.8953 -1.5245,-2.1688 -1.7361,-3.92 -1.3028,-10.7813 0.2982,-4.7214 1.3513,-10.2289 2.4858,-13 1.0827,-2.6445 2.2207,-6.9301 2.5289,-9.5236 0.7398,-6.2246 8.1091,-20.0773 16.1771,-30.4095 7.1563,-9.1647 15.8638,-16.5291 27.2305,-23.0302 8.2032,-4.6917 24.5091,-10.3448 29.8389,-10.3448 3.1479,0 3.2293,0.1141 3.7474,5.25 0.2913,2.8875 0.7841,15.375 1.0952,27.75 0.311,12.375 1.0261,28.35 1.5891,35.5 0.5631,7.15 1.2045,32.1534 1.4255,55.563 0.221,23.4097 0.8544,46.3597 1.4077,51 0.5533,4.6404 1.12,10.912 1.2594,13.937 l 0.2535,5.5 -5.958,0.198 c -3.8063,0.1265 -9.1746,-0.6918 -14.864,-2.2659 z m 270.40591,80.5382 c 0,-1.1818 3.4329,-7.876 8.2279,-16.0444 1.7997,-3.0658 5.9232,-10.2658 9.1634,-16 3.2402,-5.7343 8.0156,-14.0259 10.6121,-18.4259 2.5964,-4.4 6.078,-10.475 7.7368,-13.5 1.6589,-3.025 5.9959,-10.6193 9.6379,-16.8762 3.6421,-6.257 6.6219,-11.5078 6.6219,-11.6686 0,-0.1607 2.7469,-4.9414 6.1043,-10.6237 3.3574,-5.6823 7.3606,-12.5815 8.8961,-15.3315 1.5355,-2.75 6.2712,-11.075 10.5239,-18.5 4.2527,-7.425 8.6288,-15.075 9.7247,-17 1.0959,-1.925 7.4114,-12.95 14.0343,-24.5 6.623,-11.55 14.8346,-25.95 18.248,-32 3.4134,-6.05 7.6743,-13.475 9.4687,-16.5 1.7944,-3.025 6.0526,-10.45 9.4629,-16.5 3.4102,-6.05 9.6511,-17.0004 13.8687,-24.3341 4.2176,-7.3338 7.6684,-13.7435 7.6684,-14.2438 0,-0.536 -31.3223,-1.0149 -76.25,-1.1659 l -76.25,-0.2562 -0.2633,-33.7763 c -0.2065,-26.4847 0.01,-33.88 1,-34.2571 0.6948,-0.2644 61.2313,-0.3651 134.5256,-0.2237 l 133.2623,0.2571 -27.1091,47.5 c -14.91,26.125 -28.1592,49.3724 -29.4427,51.6609 -1.2835,2.2884 -5.6645,9.9384 -9.7355,17 -4.0711,7.0615 -8.5346,14.8641 -9.919,17.3391 -1.3844,2.475 -6.2448,11.025 -10.8009,19 -4.5561,7.975 -9.4204,16.525 -10.8095,19 -1.3892,2.475 -3.5792,6.1786 -4.8668,8.2301 -1.2876,2.0516 -2.3411,3.9099 -2.3411,4.1296 0,0.2196 -3.0813,5.7411 -6.8473,12.2698 -3.766,6.5288 -8.019,13.9846 -9.4512,16.5685 -1.4321,2.5839 -8.6195,15.1839 -15.9721,28 -16.8923,29.4445 -23.7294,41.628 -23.7294,42.2847 0,0.2845 36.9059,0.5173 82.0131,0.5173 h 82.0132 l -0.2632,34.25 -0.2631,34.25 -139.25,0.2535 c -95.6195,0.1741 -139.25,-0.071 -139.25,-0.7832 z m 1501.626,-38.231 c -1.5807,-5.0816 -3.2153,-10.1393 -3.6324,-11.2393 -0.4172,-1.1 -1.879,-5.6 -3.2486,-10 -1.3696,-4.4 -4.3841,-14.075 -6.6988,-21.5 -2.3147,-7.425 -4.6221,-14.2814 -5.1274,-15.2364 -0.5053,-0.9551 -0.9185,-2.3051 -0.9182,-3 3e-4,-0.695 -2.9546,-10.4886 -6.5664,-21.7636 -3.6118,-11.275 -7.681,-24.1 -9.0427,-28.5 -5.1283,-16.571 -10.6554,-34.0709 -11.3702,-36 -0.4076,-1.1 -1.5314,-4.7 -2.4974,-8 -0.9659,-3.3 -2.101,-6.9 -2.5225,-8 -0.8847,-2.3092 -4.0699,-12.3344 -10.008,-31.5 -2.3005,-7.425 -5.9096,-18.9 -8.0202,-25.5 -2.1106,-6.6 -6.149,-19.425 -8.9743,-28.5 -2.8253,-9.075 -5.5191,-17.625 -5.9863,-19 -0.4672,-1.375 -2.7396,-8.575 -5.0498,-16 -2.3103,-7.425 -4.5294,-14.4 -4.9315,-15.5 -0.7938,-2.1717 -3.5228,-10.76 -9.8503,-31 -2.2353,-7.15 -6.8268,-21.775 -10.2034,-32.5 -3.3766,-10.725 -7.5077,-24 -9.1802,-29.5 -1.6726,-5.5 -3.4501,-10.9 -3.9501,-12 -0.5,-1.1 -1.0077,-3.2718 -1.1282,-4.8263 -0.2476,-3.1943 -1.7119,-2.5215 20.8556,-9.5827 7.1912,-2.2501 13.6098,-4.091 14.2636,-4.091 0.6539,0 1.9702,-0.4111 2.9253,-0.9135 0.955,-0.5024 4.8488,-1.8739 8.6529,-3.0477 5.6377,-1.7397 7.1341,-1.8944 8.0933,-0.8366 0.6473,0.7138 3.0704,6.0228 5.3848,11.7978 2.3143,5.775 4.695,11.625 5.2904,13 1.3147,3.0361 2.253,5.3154 4.2492,10.322 1.3494,3.3843 3.5658,4.3292 3.5658,1.5201 0,-1.0623 0.7193,-2.8182 5.466,-13.3421 12.4212,-27.5394 40.4121,-52.9738 71.534,-65.0005 2.475,-0.9564 5.4,-2.0975 6.5,-2.5357 1.1,-0.4383 3.125,-1.0706 4.5,-1.4051 1.375,-0.3346 4.975,-1.2995 8,-2.1444 15.3848,-4.2968 41.8172,-5.6283 58,-2.9217 12.9772,2.1704 24.1492,4.9295 26.5,6.5446 0.55,0.3779 2.274,0.9918 3.8311,1.3643 4.8059,1.1497 16.8799,7.0972 26.5441,13.0752 21.2918,13.1706 38.4195,29.8664 52.934,51.5994 4.9445,7.4035 14.3841,25.1633 17.0063,31.9961 0.7235,1.8853 1.6788,4.1176 2.1228,4.9606 0.4441,0.8431 1.1242,2.9754 1.5115,4.7386 0.3872,1.7631 1.1195,3.4624 1.6271,3.7761 0.5077,0.3138 0.9231,1.4501 0.9231,2.5251 0,1.075 0.4318,2.7359 0.9596,3.691 0.8916,1.6134 1.6794,4.7122 4.1279,16.2364 1.8652,8.7786 3.8258,27.6363 3.8689,37.2108 0.046,10.363 -1.4349,27.7046 -2.9293,34.2892 -2.5137,11.0763 -4.3112,18.1969 -5.0487,20 -0.4499,1.1 -2.056,5.375 -3.569,9.5 -13.4802,36.752 -43.3579,67.874 -80.4816,83.8334 -2.9853,1.2834 -6.3278,2.7247 -7.4278,3.2029 -1.1,0.4782 -3.8,1.3749 -6,1.9926 -2.2,0.6178 -5.575,1.5668 -7.5,2.1089 -21.3181,6.0035 -53.4984,6.4317 -70,0.9316 -1.375,-0.4583 -5.2,-1.6597 -8.5,-2.6698 -6.4179,-1.9645 -20.854,-9.0638 -28.928,-14.2262 -2.7103,-1.7329 -5.1349,-2.9438 -5.388,-2.6908 -0.4937,0.4937 1.4536,8.7188 2.8452,12.0174 0.464,1.1 2.7101,8.075 4.9911,15.5 2.2811,7.425 4.4973,14.4 4.925,15.5 0.4277,1.1 1.2479,3.575 1.8228,5.5 1.0267,3.4379 6.5123,20.8373 17.8131,56.5 3.1371,9.9 6.2052,19.8 6.818,22 0.6128,2.2 1.3708,4.45 1.6846,5 0.3137,0.55 1.3655,3.925 2.3373,7.5 0.9717,3.575 2.1745,7.2814 2.6728,8.2364 0.4984,0.9551 0.9061,3.0039 0.9061,4.553 0,2.623 -0.4981,2.971 -7.25,5.0644 -12.0519,3.7366 -35.7793,11.197 -43.7223,13.7471 -4.1097,1.3195 -7.4847,2.3943 -7.5,2.3884 -0.015,-0.01 -1.321,-4.1684 -2.9017,-9.25 z m 85.1427,-201.7695 c 54.3984,-6.821 92.779,-52.5334 89.8128,-106.9698 -0.6951,-12.7564 -2.2187,-21.302 -5.5092,-30.899 -2.861,-8.3445 -9.5599,-22.205 -13.3134,-27.5464 -22.7303,-32.3463 -56.2412,-48.601 -93.55,-45.3769 -9.2075,0.7956 -22.0638,3.4855 -23.6589,4.9501 -0.5225,0.4797 -1.6515,0.8722 -2.5088,0.8722 -1.9743,0 -17.787,8.0395 -23.3411,11.867 -7.1264,4.9111 -19.0194,17.2552 -24.3437,25.267 -7.6701,11.5419 -13.1942,25.8862 -15.5451,40.366 -1.266,7.7977 -0.2323,34.5729 1.5828,41 7.2521,25.6783 16.9142,43.522 31.6801,58.5058 17.8318,18.0949 40.1238,27.6323 67.452,28.8584 1.6645,0.075 6.7236,-0.3278 11.2425,-0.8944 z m -2205.08121,91.3844 c -1.4155,-1.4155 -0.6145,-3.3542 1.3858,-3.3542 1.398,0 1.968,0.5431 1.75,1.6671 -0.3569,1.8405 -2.064,2.7589 -3.1358,1.6871 z M 3010.1699,1984.7691 c 0.409,-2.3375 1.4919,-7.625 2.4062,-11.75 2.0246,-9.1334 2.9718,-13.6785 4.4806,-21.5 0.6365,-3.3 1.532,-7.35 1.99,-9 0.4579,-1.65 1.3874,-5.7 2.0655,-9 1.2124,-5.8995 3.2113,-15.1221 4.9852,-23 0.4953,-2.2 1.59,-7.15 2.4325,-11 0.8425,-3.85 3.602,-16.45 6.1321,-28 2.5302,-11.55 5.2883,-24.375 6.1292,-28.5 0.841,-4.125 1.9402,-9.3 2.4427,-11.5 0.5025,-2.2 1.5643,-7.15 2.3596,-11 0.7953,-3.85 1.8712,-8.8 2.3908,-11 0.5196,-2.2 1.7078,-7.6 2.6404,-12 0.9325,-4.4 2.058,-9.575 2.501,-11.5 1.144,-4.971 3.9616,-17.7774 4.9504,-22.5 0.4607,-2.2 1.5857,-7.375 2.5,-11.5 0.9144,-4.125 2.0394,-9.3 2.5,-11.5 0.4607,-2.2 1.5857,-7.375 2.5,-11.5 0.9144,-4.125 2.0185,-9.3 2.4536,-11.5 0.435,-2.2 1.3933,-6.8 2.1295,-10.2223 0.7362,-3.4223 1.0274,-6.5334 0.6472,-6.9137 -0.3803,-0.3802 -5.9802,0.9908 -12.4444,3.0466 -6.4641,2.0558 -15.803,5.007 -20.753,6.5582 -19.8999,6.2361 -42.3844,13.3299 -49,15.4594 -3.85,1.2393 -11.05,3.4983 -16,5.0201 -4.95,1.5218 -9.9,3.1055 -11,3.5193 -4.1665,1.5674 -19.0833,6.0294 -20.9797,6.2755 -1.5522,0.2014 -2.2857,-0.7149 -3.3969,-4.2431 -0.7795,-2.475 -1.7602,-5.4 -2.1795,-6.5 -0.4192,-1.1 -2.6348,-8.075 -4.9236,-15.5 -2.2887,-7.425 -4.5179,-14.4 -4.9537,-15.5 -0.4358,-1.1 -1.7403,-5.1205 -2.8989,-8.9344 -2.3449,-7.7192 -1.9747,-8.9542 2.9811,-9.9454 2.7661,-0.5532 22.9588,-6.8015 42.3512,-13.1048 3.85,-1.2514 13.075,-4.183 20.5,-6.5145 7.425,-2.3316 15.975,-5.0498 19,-6.0404 3.025,-0.9906 11.575,-3.6729 19,-5.9607 7.425,-2.2877 18,-5.6375 23.5,-7.4439 5.5,-1.8064 14.725,-4.7214 20.5,-6.4778 5.775,-1.7564 11.625,-3.5915 13,-4.0781 1.375,-0.4866 7.225,-2.2963 13,-4.0216 5.775,-1.7254 11.4,-3.4959 12.5,-3.9346 1.8444,-0.7355 5.6758,-1.9414 28,-8.8126 4.4,-1.3542 8.7814,-2.8603 9.7364,-3.3467 2.9641,-1.5098 5.7636,-1.0501 5.7636,0.9463 0,1.5074 -3.8564,20.1896 -8.9111,43.1692 -0.5444,2.475 -1.7152,7.875 -2.6017,12 -0.8866,4.125 -1.9951,9.075 -2.4635,11 -0.4684,1.925 -1.5816,7.1 -2.4737,11.5 -0.8922,4.4 -2.0249,9.575 -2.5172,11.5 -0.4923,1.925 -1.6245,7.1 -2.5161,11.5 -0.8916,4.4 -2.0089,9.575 -2.4829,11.5 -0.4739,1.925 -1.5917,7.1 -2.4838,11.5 -0.8922,4.4 -2.0249,9.575 -2.5172,11.5 -0.4923,1.925 -1.6277,7.1 -2.5231,11.5 -0.8954,4.4 -2.0264,9.8 -2.5134,12 -1.3105,5.9211 -3.4389,15.7764 -7.9904,37 -2.241,10.45 -4.4825,20.8 -4.9811,23 -0.4986,2.2 -1.6391,7.6 -2.5345,12 -0.8954,4.4 -2.0308,9.575 -2.5231,11.5 -0.4923,1.925 -1.625,7.1 -2.5172,11.5 -1.715,8.4583 -2.2809,10.9872 -4.8478,21.6641 -1.5708,6.5336 -2.0736,11.8359 -1.1224,11.8359 0.2638,0 2.1763,-0.6172 4.25,-1.3714 2.0736,-0.7543 7.5952,-2.5443 12.2702,-3.9777 4.675,-1.4334 14.125,-4.3793 21,-6.5463 6.875,-2.1671 17.675,-5.5646 24,-7.5501 14.5321,-4.5618 35.405,-11.1575 44.5,-14.0617 3.85,-1.2294 11.05,-3.4663 16,-4.9709 4.95,-1.5047 9.7678,-3.1292 10.7063,-3.61 0.9385,-0.4809 3.4316,-1.1502 5.5403,-1.4874 l 3.834,-0.6131 2.7738,9.3443 c 1.5256,5.1394 3.1499,10.2443 3.6097,11.3443 0.4597,1.1 1.5902,4.7 2.5123,8 0.922,3.3 2.0391,6.9 2.4824,8 1.6262,4.0351 5.9018,18.0701 6.2168,20.407 0.2739,2.0327 -0.2977,2.6066 -3.6756,3.6898 -2.2,0.7055 -11.425,3.5909 -20.5,6.412 -9.075,2.8211 -17.625,5.5147 -19,5.9858 -1.375,0.4711 -8.575,2.731 -16,5.0219 -7.425,2.2909 -14.4,4.5113 -15.5,4.9344 -1.1,0.423 -6.05,2.0221 -11,3.5537 -4.95,1.5315 -12.15,3.7865 -16,5.0112 -3.85,1.2247 -13.075,4.1163 -20.5,6.4258 -7.425,2.3095 -19.125,5.9679 -26,8.1298 -6.875,2.162 -16.325,5.1108 -21,6.5529 -4.675,1.4421 -9.4,2.9643 -10.5,3.3827 -1.1,0.4184 -4.7,1.551 -8,2.5169 -3.3,0.966 -6.9,2.1179 -8,2.5599 -1.1,0.442 -8.075,2.6543 -15.5,4.9162 -7.425,2.2619 -14.4,4.467 -15.5,4.9002 -4.3335,1.7066 -12.3456,4.0998 -13.7257,4.0998 -1.1644,0 -1.3078,-0.854 -0.7134,-4.25 z M 794.01409,1916.3244 c -4.5857,-10.3348 -14.8978,-31.1047 -18.6054,-37.4736 -1.8148,-3.1175 -3.2997,-6.605 -3.2997,-7.75 0,-1.9819 0.5155,-2.0801 10.75,-2.049 13.5932,0.041 24.0856,1.3744 26.0165,3.3052 1.3314,1.3314 1.3103,2.4279 -0.189,9.8303 -0.9282,4.5825 -2.5877,13.7318 -3.6878,20.3318 -2.4726,14.8342 -3.5151,18.2291 -6.0074,19.563 -1.7603,0.9421 -2.2619,0.3618 -4.9772,-5.7577 z m 29.7107,-18.1179 c -1.3936,-2.2548 11.5938,-49.7207 15.9641,-58.3451 2.29,-4.5191 2.7093,-4.8423 6.282,-4.8423 4.0237,0 7.1381,-2.2992 7.1381,-5.2697 0,-2.2519 1.6648,-3.0462 2.3952,-1.1428 1.1519,3.0019 0.5982,24.7166 -0.8744,34.2932 -0.8136,5.2906 -1.6011,11.6424 -1.75,14.115 -0.2688,4.4624 -0.3264,4.5281 -7.7708,8.8593 -4.125,2.4 -9.975,6.0338 -13,8.0752 -7.5395,5.0879 -7.7917,5.2159 -8.3842,4.2572 z m 46.3842,-26.6466 c 0,-1.4543 0.5824,-6.0173 3.4748,-27.2227 0.8389,-6.15 1.5252,-14.3322 1.5252,-18.1826 0,-6.0627 0.2613,-7.0837 1.95,-7.6196 2.775,-0.8808 7.9501,2.0978 9.1773,5.282 0.5728,1.4862 1.1109,6.0771 1.1957,10.2021 0.1969,9.5706 -2.1443,33.0797 -3.451,34.6542 -1.1497,1.3853 -9.3586,4.3458 -12.0501,4.3458 -1.0021,0 -1.8219,-0.6566 -1.8219,-1.4592 z m 33.3702,-11.2249 c 0.3531,-2.5763 0.8929,-9.8888 1.1995,-16.25 0.7096,-14.7216 0.9952,-16.0659 3.4142,-16.0659 3.7018,0 4.5208,3.5782 4.2282,18.4732 -0.3135,15.9581 -1.1969,18.5268 -6.3711,18.5268 h -3.1129 z m -436.3702,-425.3079 v -400.008 h 62.5 62.5 v 336.4648 c 0,331.6295 0.028,336.4797 1.9343,337.5 1.3123,0.7024 58.7011,1.0352 178.5,1.0352 h 176.5657 v 55.5 c 0,30.525 -0.1822,55.5 -0.405,55.5 -0.2227,0 -1.5375,-1.9125 -2.9218,-4.25 -3.7951,-6.4087 -11.4135,-14.5135 -16.3762,-17.4219 -3.6355,-2.1305 -6.6784,-2.8145 -17.1112,-3.8463 -9.3188,-0.9217 -13.8139,-1.8413 -16.9233,-3.462 -7.5294,-3.9245 -23.3283,-3.6228 -31.4974,0.6017 -1.5237,0.7879 -8.0979,1.8326 -14.6748,2.3318 -12.3039,0.9339 -15.5519,1.953 -20.3135,6.3735 -3.9058,3.6259 -11.3549,15.4802 -15.8734,25.2606 l -3.8866,8.4126 h -23.1431 -23.1431 l -9.4578,-9.25 c -10.6661,-10.4318 -18.1408,-19.4442 -20.7563,-25.0263 -3.8349,-8.1846 -16.2506,-15.3523 -41.2034,-23.7869 -24.3686,-8.2371 -52.2216,-7.9836 -71.09,0.647 -3.8431,1.7579 -8.2503,5.1918 -13.7962,10.7496 -9.549,9.5694 -14.9323,19.5087 -18.5053,34.1666 -1.2066,4.95 -2.5191,9.675 -2.9166,10.5 -0.6281,1.3037 -8.3986,1.5338 -59.3639,1.758 l -58.6411,0.258 z m 2718.00001,79.0228 v -39.9692 l -12.25,-0.2808 -12.25,-0.2808 -0.2938,-7.25 -0.2938,-7.25 h 33.0438 33.0438 v 6.893 c 0,5.363 -0.3511,7.0278 -1.5818,7.5 -0.87,0.3339 -6.72,0.607 -13,0.607 h -11.4182 v 40 40 h -7.5 -7.5 z m 52.6667,39.3025 c -0.8734,-0.8733 -0.8704,-94.7963 0,-95.6697 0.3683,-0.3684 6.1058,7.5758 12.75,17.6537 6.6441,10.0779 16.7372,25.3793 22.429,34.0031 5.6919,8.6238 10.7236,15.6796 11.1816,15.6796 0.4581,0 3.2261,-3.6921 6.1512,-8.2047 2.9251,-4.5126 13.0751,-19.9251 22.5556,-34.25 l 17.2372,-26.0453 0.013,48.75 0.013,48.75 h -7 -7 v -24.941 c 0,-13.7175 -0.356,-25.161 -0.7911,-25.4299 -0.7514,-0.4644 -15.351,22.3807 -16.0322,25.0865 -0.1779,0.7064 -0.6879,1.2844 -1.1334,1.2844 -0.4455,0 -1.0947,0.7875 -1.4427,1.75 -0.3479,0.9625 -1.1879,2.6515 -1.8666,3.7533 -0.6787,1.1018 -2.9197,4.7577 -4.98,8.1242 -2.0603,3.3665 -4.3275,6.6036 -5.0383,7.1935 -1.0044,0.8336 -3.7334,-2.8681 -12.2539,-16.6219 -6.029,-9.7319 -11.81,-19.2705 -12.8467,-21.1967 -3.1618,-5.8748 -6.2567,-10.0275 -6.9537,-9.3304 -0.3638,0.3637 -0.6614,11.8363 -0.6614,25.4947 v 24.8333 h -6.8333 c -3.7584,0 -7.1334,-0.3 -7.5,-0.6667 z"
       id="path1" />
  </g>
</svg>
