<?xml version="1.0" encoding="UTF-8"?><!--Created with Inkscape (http://www.inkscape.org/)--><svg version="1.1" id="svg1" width="3464" height="3464" viewBox="0 0 3464 3464" sodipodi:docname="Picsart_25-07-06_10-12-22-782.png" inkscape:version="1.4.2 (ebf0e940d0, 2025-05-08)" xmlns:inkscape="http://www.inkscape.org/namespaces/inkscape" xmlns:sodipodi="http://sodipodi.sourceforge.net/DTD/sodipodi-0.dtd" xmlns:svg="http://www.w3.org/2000/svg"><defs id="defs1"/><sodipodi:namedview id="namedview1" pagecolor="#ffffff" bordercolor="#000000" borderopacity="0.25" inkscape:showpageshadow="2" inkscape:pageopacity="0.0" inkscape:pagecheckerboard="0" inkscape:deskcolor="#d1d1d1" inkscape:zoom="0.24105081" inkscape:cx="1729.9257" inkscape:cy="1732" inkscape:window-width="1860" inkscape:window-height="984" inkscape:window-x="0" inkscape:window-y="0" inkscape:window-maximized="1" inkscape:current-layer="g1"/><g inkscape:groupmode="layer" inkscape:label="Image" id="g1"><path style="fill:#000000" d="m 906.36646,2699.7562 c -32.31514,-1.8698 -62.72023,-5.9828 -97.5,-13.1893 l -16,-3.3153 -5.5,2.0092 c -8.35297,3.0513 -33.11886,2.8699 -45,-0.3298 -11.58693,-3.1204 -29.2153,-9.5988 -49.24207,-18.0965 -15.98924,-6.7845 -16.92509,-7.0547 -20.81235,-6.0079 -6.01163,1.6187 -16.58878,1.4204 -23.72814,-0.4449 -9.33201,-2.4382 -22.32591,-8.3614 -40.629,-18.5207 -22.36942,-12.4163 -32.86442,-17.164 -52.09242,-23.5652 -43.30105,-14.4155 -73.9795,-30.8059 -112.87042,-60.3026 l -11.8744,-9.0062 -9.28503,0.554 c -18.30766,1.0922 -27.52592,-3.5345 -56.49167,-28.3536 -15.92973,-13.6492 -18.48162,-15.5495 -26.4745,-19.7146 -7.97168,-4.1541 -18.57546,-11.9236 -29.5,-21.6149 -4.125,-3.6593 -10.26708,-8.9345 -13.64907,-11.7225 -6.14194,-5.0632 -6.15776,-5.0692 -13.64881,-5.1564 -14.01783,-0.1632 -24.09097,-4.0949 -43.20212,-16.8624 -14.24192,-9.5146 -15.1441,-10.0103 -21.82857,-11.9935 -14.95436,-4.4367 -28.33001,-14.7348 -45.86399,-35.3112 -7.70521,-9.0422 -19.66053,-25.5213 -23.63973,-32.5848 -1.83276,-3.2534 -5.47916,-9.7402 -8.1031,-14.4152 -2.62395,-4.675 -9.17709,-14.5298 -14.56253,-21.8995 -11.04184,-15.1101 -20.67839,-33.0624 -25.316386,-47.1627 -3.89599,-11.8445 -8.13437,-30.3699 -12.11151,-52.9378 -3.71766,-21.0956 -5.86213,-30.5286 -7.82327,-34.4128 -12.56689,-24.8901 -7.77013,-60.3903 16.42874,-121.5872 7.962896,-20.1375 15.627446,-35.2888 22.378426,-44.2378 2.79558,-3.7057 10.60175,-12.4807 17.34704,-19.5 9.27461,-9.6512 13.21708,-14.5904 16.17338,-20.2622 13.38313,-25.676 59.6952,-51.0336 130.73165,-71.5802 26.1817,-7.5729 33.7805,-8.8082 54.18985,-8.8097 18.86633,0 30.60379,1.6691 56,7.9704 23.33299,5.7894 63.44688,20.2357 72.33676,26.0508 1.28522,0.8407 2.63522,1.2278 3,0.8602 0.36478,-0.3675 0.51092,-8.1904 0.32474,-17.3842 -0.27136,-13.401 0.071,-19.1842 1.72657,-29.1617 3.09502,-18.6529 4.029,-30.4072 5.08104,-63.9456 1.94097,-61.8776 7.92128,-107.6087 22.0698,-168.7668 2.7286,-11.7945 4.96109,-21.823 4.96109,-22.2855 0,-0.4625 -17.6625,-0.9774 -39.25,-1.1443 l -39.25,-0.3034 -5.5,-2.6144 c -3.025,-1.438 -7.2442,-4.0214 -9.37601,-5.7409 -5.90057,-4.7595 -21.21609,-24.7134 -25.40261,-33.0959 l -3.72138,-7.4513 0.37592,-373.0487 c 0.20675,-205.1769 0.6608,-393.74877 1.00899,-419.04877 l 0.63307,-46 3.30138,-6.5937 c 3.88513,-7.7597 10.55079,-14.5522 21.52348,-21.933 9.45446,-6.3596 20.83961,-10.4398 33.15716,-11.883 14.27011,-1.6719 83.97657,-2.4176 113.5,-1.2141 37.31419,1.521 44.47093,3.3777 62.30638,16.1647 12.87661,9.2318 18.69645,17.7371 20.59992,30.1053 0.60963,3.9612 1.24307,123.1239 1.68214,316.44077 l 0.70429,310.087 71.10363,0.6622 c 39.107,0.3643 97.87864,0.7043 130.60364,0.7557 32.725,0.051 71.2,0.3921 85.5,0.7572 l 26.00001,0.6638 6.5474,3.0962 c 3.601,1.7029 8.2929,4.625 10.4265,6.4935 5.2799,4.6242 14.7572,19.2943 17.8243,27.5907 5.8993,15.9573 6.5116,23.1229 7.7589,90.8067 0.6082,33 1.4195,60.6177 1.803,61.3727 0.3835,0.755 2.3503,2.032 4.37063,2.8378 3.4597,1.3799 4.0688,1.3064 10.4713,-1.2633 9.0237,-3.6216 22.8329,-4.5604 70.298,-4.7791 35.6265,-0.1641 36.6579,-0.1135 43.0981,2.1129 3.6289,1.2545 8.5789,3.5468 11,5.0939 l 4.4019,2.8129 4.1362,-2.8136 c 2.2749,-1.5475 6.5499,-3.8398 9.5,-5.0939 l 5.3638,-2.2803 100.5,-0.2933 c 109.3546,-0.3191 185.7002,0.9012 198,3.1647 4.125,0.7592 7.825,1.1923 8.2222,0.9626 2.8694,-1.6595 20.6412,-3.3726 40.6188,-3.9155 26.6695,-0.7248 57.2399,0.6872 68.3707,3.158 18.9807,4.2132 29.9067,13.3639 39.3086,32.9216 7.0839,14.7361 20.4387,46.9108 34.5032,83.1264 6.1676,15.8815 11.5281,29.4598 11.9121,30.174 0.4061,0.7553 12.5719,-25.7704 29.0825,-63.4104 27.1166,-61.8185 28.6258,-64.9696 33.7885,-70.5459 3.8073,-4.1123 7.63,-6.9372 12.9372,-9.5602 l 7.5332,-3.7231 18.1115,-0.7024 c 26.72,-1.0364 79.1306,-0.9588 86.6427,0.1282 10.3837,1.5027 19.3847,4.7285 26.492,9.4945 l 6.5911,4.4199 1.8195,-4.1996 c 10.3704,-23.9366 27.6915,-62.2255 33.7364,-74.5755 6.5263,-13.3333 8.3757,-16.2131 13.9215,-21.6775 7.61,-7.4985 17.1179,-12.578 28.1291,-15.0278 6.5812,-1.4642 10.7739,-1.6185 28.2536,-1.04 57.2269,1.8939 69.7498,2.5685 75.9225,4.09 13.5502,3.3397 27.8502,13.431 35.2445,24.8714 5.1278,7.9337 10.1308,21.2321 32.2798,85.8025 l 6.7378,19.6425 7.142,-4.4033 c 9.0692,-5.5915 23.5797,-11.2665 43.2243,-16.9048 21.9324,-6.2948 33.5677,-8.477 45.1993,-8.477 h 9.9105 l 8.4653,-6.792 c 12.8351,-10.2981 24.3528,-17.607 38.0236,-24.1292 27.2035,-12.9785 55.2278,-20.107 85.357,-21.7121 31.4611,-1.6762 73.0808,8.6839 104.3332,25.9708 6.0982,3.3731 8.1625,4.1354 7.7883,2.8761 -5.3251,-17.9202 -4.5715,-30.696 2.6654,-45.1842 6.6171,-13.2475 16.4511,-21.138 36.2321,-29.0716 15.8388,-6.3525 64.1222,-22.0206 69.709,-22.6208 3.1654,-0.3401 8.4376,-0.076 11.8332,0.5915 4.9593,0.9757 6.4663,0.9544 7.9222,-0.1118 29.445,-21.5646 44.5221,-29.7072 71.0201,-38.3558 24.7576,-8.0806 46.2894,-10.5798 74.7646,-8.678 19.0874,1.2749 29.8809,2.8905 42.0536,6.2949 8.543,2.3893 24.7229,8.6346 32.2456,12.4467 2.6869,1.3615 5.1252,2.4755 5.4185,2.4755 0.2932,0 0.549,-3.0375 0.5683,-6.75 0.083,-16.0162 6.0687,-30.6833 16.8382,-41.2623 14.1493,-13.8989 25.0989,-17.816 222.3767,-79.5538 l 37.75,-11.8138 v -11.6633 c 0,-6.4149 -0.2841,-14.3815 -0.6313,-17.7037 l -0.6314,-6.0402 -5.9678,-3.8564 c -14.9617,-9.6684 -22.3966,-28.8109 -19.8893,-51.2085 2.8797,-25.7239 16.2945,-40.8747 40.1198,-45.3114 3.025,-0.5633 21.925,-1.4707 42,-2.0165 52.8052,-1.4355 50.6002,-1.4747 58,1.0309 11.125,3.767 17.1523,8.8108 30.5,25.5236 l 3,3.7564 5.3392,-7.053 c 7.1538,-9.4502 14.3068,-15.738 22.1608,-19.4806 6.1265,-2.9194 7.1608,-3.0948 18,-3.0523 9.5184,0.037 12.4825,0.4344 17.2016,2.3038 11.8228,4.6834 20.1747,15.6919 23.2542,30.6511 1.9654,9.5472 3.2284,30.6378 4.6863,78.2568 1.3392,43.7427 1.216,45.5039 -3.8974,55.6972 -3.2069,6.3928 -11.3565,14.2963 -18.394,17.8387 -3.0515,1.536 -8.6538,3.2784 -12.4495,3.8721 -9.1478,1.4308 -28.3265,0.4743 -35.9012,-1.7904 -3.9819,-1.1905 -8.3545,-1.6896 -13,-1.4838 -3.85,0.1706 -10.15,0.4289 -14,0.574 -3.85,0.1451 -9.925,0.9905 -13.5,1.8787 -7.1525,1.7771 -31.0263,2.196 -39,0.6844 -2.475,-0.4693 -6.075,-1.1565 -8,-1.5273 l -3.5,-0.6741 -1.6515,9.8369 c -0.9083,5.4102 -10.9135,52.7816 -22.2338,105.2696 -11.3204,52.488 -20.4772,95.5192 -20.3486,95.6248 0.1287,0.1056 6.7589,-1.7756 14.7339,-4.1803 40.1109,-12.0948 56.7793,-13.0256 74.7614,-4.1746 8.1319,4.0026 18.0194,13.0227 22.6424,20.656 6.5538,10.8214 16.711,38.8598 23.2358,64.1413 7.9142,30.665 4.7515,50.5302 -10.4391,65.5675 -11.2754,11.1617 -28.3119,18.3992 -91.2005,38.7442 -85.08,27.5242 -137.9929,43.5401 -168.9991,51.1535 -30.5637,7.5047 -53.6055,3.6784 -69.0901,-11.4733 l -5.9339,-5.8064 -4.3069,6.6573 c -9.8745,15.2634 -32.6924,39.2505 -48.4546,50.9374 -16.555,12.2748 -35.1972,22.8262 -52.2154,29.5538 -17.1053,6.7621 -25.2865,8.5952 -44.2754,9.9205 -14.0528,0.9809 -16.6836,1.4099 -16.2104,2.6432 2.0811,5.4232 11.2477,35.9167 14.1593,47.1023 3.998,15.3591 5.3523,30.9898 3.4525,39.8481 -3.7126,17.3111 -17.2211,31.0924 -39.8066,40.6105 -12.352,5.2054 -44.8599,15.9764 -57.3532,19.0032 -11.3506,2.7499 -25.6241,3.365 -33.9662,1.4637 -8.463,-1.9288 -18.4554,-7.6885 -24.798,-14.2937 -10.4467,-10.8791 -15.3619,-22.6319 -37.8248,-90.4434 l -15.6721,-47.3115 -5.1563,9.8481 c -17.6393,33.6895 -40.7919,58.4337 -73.8285,78.9036 -26.1166,16.1822 -60.9725,28.1434 -90.0437,30.8994 -5.8154,0.5513 -6.7281,0.8925 -6.178,2.3095 1.8887,4.8646 11.6664,40.2461 13.8625,50.1625 3.5569,16.0612 4.1606,24.896 2.3005,33.6683 -4.2291,19.9447 -16.4403,32.5458 -41.4756,42.7996 -21.4854,8.7998 -54.3054,18.5884 -67.5399,20.1439 -3.1363,0.3686 -5.8718,0.9443 -6.0789,1.2794 -0.2071,0.3351 1.396,7.1342 3.5624,15.1091 5.9304,21.8307 7.8704,34.6825 7.8704,52.1385 0,27.7727 -3.113,45.4232 -10.7295,60.8355 -7.1757,14.5202 -16.3269,22.8676 -32.0126,29.2009 -5.7225,2.3105 -6.016,2.3242 -47.7579,2.2327 -42.8659,-0.094 -64.3041,-0.8183 -205.5,-6.9434 -217.5411,-9.4369 -295.9848,-13.4942 -319.5,-16.5252 -10.8643,-1.4003 -21.3763,-4.3433 -28.676,-8.0281 -7.7489,-3.9117 -19.2767,-15.4006 -23.4905,-23.4112 -6.0966,-11.5902 -6.8347,-15.7913 -6.8218,-38.8285 l 0.012,-20.8286 -3.0118,0.6356 c -1.6564,0.3496 -19.0844,0.8847 -38.7288,1.1892 l -35.717,0.5535 -9.783,9.008 c -31.2034,28.7317 -64.165,54.7521 -89.5645,70.7035 -20.4101,12.8181 -39.0647,21.2808 -71.7184,32.5356 l -17.5,6.0317 -1.71,8.5 c -0.9405,4.675 -2.2004,15.925 -2.7997,25 -1.8287,27.689 -3.9314,38.8008 -12.0315,63.5798 -14.2859,43.7023 -41.1035,101.3781 -61.5715,132.4202 -14.4722,21.9486 -47.8649,57.1244 -74.1759,78.1365 -19.5629,15.6231 -59.6858,38.4985 -90.2114,51.4327 -39.2204,16.6182 -108.6461,34.9386 -155.44693,41.02 -14.5965,1.8967 -53.0977,2.5965 -74.55311,1.3551 z m 68.76361,-53.8298 c 13.4057,-1.5061 32.55973,-4.7799 38.23643,-6.5354 3.8056,-1.1769 19.2016,-4.8302 40.5,-9.6104 33.0435,-7.4162 70.2389,-21.6183 92,-35.1277 2.75,-1.7072 8.825,-5.0987 13.5,-7.5365 4.675,-2.4378 9.85,-5.2917 11.5,-6.3418 1.65,-1.0502 5.025,-3.0028 7.5,-4.3391 5.4584,-2.9473 22.2978,-16.0309 35.6709,-27.715 12.5284,-10.946 26.9853,-26.4216 33.0808,-35.4117 2.6116,-3.8518 5.9365,-8.5768 7.3888,-10.5 3.3567,-4.4454 18.9756,-31.9727 22.1844,-39.0986 1.3369,-2.9691 7.588,-15.9733 13.8912,-28.8983 11.6462,-23.881 13.6999,-29.2818 18.2736,-48.0572 1.4144,-5.8065 3.9551,-13.9065 5.646,-18 3.3901,-8.2073 6.8341,-20.8904 6.8525,-25.235 0.016,-3.8866 -2.7821,-17.3616 -4.6471,-22.3759 -1.9231,-5.1705 -1.0039,-8.4681 4.881,-17.5103 6.9703,-10.71 7.7124,-13.6925 8.4459,-33.9436 0.7379,-20.3703 0.6063,-20.0845 8.2362,-17.8862 9.848,2.8374 16.325,2.2383 20.7921,-1.9235 1.1123,-1.0363 3.7732,-2.7659 5.9131,-3.8436 4.3475,-2.1896 29.7009,-10.2247 32.2622,-10.2247 2.2792,0 18.2386,-5.5012 22.8418,-7.8735 4.0042,-2.0636 17.9103,-11.0273 25.018,-16.1263 2.3273,-1.6696 5.2598,-3.4266 6.5167,-3.9044 3.0141,-1.146 11.8961,-8.0694 18.7519,-14.617 3.025,-2.8889 7.1548,-6.316 9.1773,-7.6157 16.304,-10.4773 39.9656,-31.6431 53.8227,-48.1456 l 6.5,-7.7409 -0.3438,-6.8239 c -0.3075,-6.1043 0.107,-7.9749 3.931,-17.7383 2.3511,-6.0029 6.1886,-14.9644 8.5277,-19.9144 6.9007,-14.603 14.3851,-32.5398 14.3851,-34.4747 0,-5.4314 -15.2749,-22.7305 -26.8874,-30.4505 -8.8285,-5.8691 -13.225,-10.2786 -17.222,-17.2727 -5.9831,-10.4695 -11.6758,-17.8315 -19.7625,-25.5575 -11.942,-11.4093 -28.1489,-22.7446 -32.5196,-22.7446 -1.6102,0 -2.712,7.8095 -1.9273,13.6601 0.4217,3.1436 1.2164,4.4389 3.5802,5.8353 4.6128,2.7248 22.8902,18.6873 25.8487,22.5749 1.4356,1.8863 5.2407,8.2985 8.4559,14.2494 6.1662,11.4126 9.1311,14.6568 19.0546,20.8492 8.7307,5.4481 21.0443,17.2692 24.1754,23.2086 2.3659,4.4877 2.6963,6.2377 2.6666,14.1225 -0.025,6.7537 -0.6241,10.7472 -2.3983,16 -5.0626,14.9887 -8.275,18.935 -35.0028,43 -7.9412,7.15 -18.0662,16.4119 -22.5,20.5819 -4.4338,4.1701 -10.9865,9.7844 -14.5615,12.4764 -3.575,2.692 -9.425,7.6143 -13,10.9385 -10.2694,9.5487 -23.5552,20.5957 -30.8218,25.6278 -9.1448,6.3328 -26.3961,15.769 -30.2313,16.536 l -3.1522,0.6305 0.2317,-4.8956 c 0.1274,-2.6925 0.1736,-5.458 0.1026,-6.1455 -0.3714,-3.5976 -9.5424,1.1675 -15.8895,8.2559 -2.9854,3.3339 -7.2935,6.6255 -11.6402,8.8935 -6.2111,3.2408 -7.6838,3.6006 -14.7375,3.6006 h -7.8367 l -2.472,3.9159 c -1.3596,2.1538 -2.8999,4.1804 -3.4227,4.5035 -0.5229,0.3232 -4.2536,-1.9191 -8.2905,-4.9827 -4.037,-3.0637 -9.8909,-6.9335 -13.0088,-8.5996 -3.1179,-1.6661 -8.2929,-5.2267 -11.5,-7.9124 -9.6324,-8.0665 -16.1769,-12.9247 -17.4108,-12.9247 -0.8589,0 -0.8737,0.3513 -0.056,1.3363 0.61,0.735 1.8083,3.3225 2.6629,5.75 0.8546,2.4276 3.2945,7.3387 5.4221,10.9137 5.6781,9.5411 8.9834,19.7425 9.7091,29.9666 0.7071,9.9621 -0.055,11.311 -4.5743,8.0932 -8.9869,-6.3993 -9.2807,8.6519 -0.5385,27.5913 0.8,1.7332 1.4488,3.5332 1.4418,4 -0.013,0.8696 -3.4082,7.5872 -8.7687,17.3489 -1.6611,3.025 -3.3279,7.4037 -3.704,9.7304 -0.5828,3.6057 -0.2349,5.015 2.3559,9.5433 1.6719,2.9221 3.337,7.172 3.7004,9.4443 1.3583,8.4943 -2.8958,23.5441 -8.9089,31.5175 -3.8349,5.085 -6.624,10.525 -9.7679,19.0516 -3.5387,9.5976 -3.5952,11.7056 -0.3941,14.7129 1.375,1.2917 2.5,3.1784 2.5,4.1927 0,1.0142 -3.9843,9.5982 -8.8541,19.0757 -4.8697,9.4774 -12.6043,24.6566 -17.188,33.7316 -22.162,43.8776 -33.0288,58.3799 -65.3268,87.1813 -13.1984,11.7696 -50.2019,34.1791 -74.2024,44.9373 -4.44,1.9903 -9.6154,4.3337 -11.5007,5.2076 -17.4412,8.0845 -39.1454,15.1455 -54.428,17.707 -11.3283,1.8987 -16.9623,3.218 -27.5,6.4395 -18.0214,5.5094 -25.9412,7.3495 -48.00003,11.1526 -8.7388,1.5066 -16.2868,1.8128 -45.00001,1.825 -35.42061,0.015 -47.29826,-0.7783 -67.88816,-4.5349 -12.57046,-2.2934 -17.92522,-4.6533 -32.70552,-14.4134 -6.2484,-4.1261 -11.56884,-7.502 -11.8232,-7.502 -0.25436,0 -4.65212,-2.6053 -9.7728,-5.7895 -10.71805,-6.6648 -15.14959,-8.678 -17.29236,-7.8558 -2.77343,1.0643 -1.71806,6.0159 2.48204,11.6453 8.45707,11.335 5.10996,11.4013 -24,0.475 -6.325,-2.374 -14.425,-5.7018 -18,-7.3949 -7.35416,-3.4831 -8.28922,-3.6415 -9.9171,-1.68 -1.38302,1.6664 0.11379,8.8997 3.06469,14.8101 2.65414,5.3159 2.4153,6.7898 -1.10028,6.7898 -3.91843,0 -21.82999,-7.4441 -35.73093,-14.85 -15.84998,-8.4442 -24.83792,-14.6048 -49.09391,-33.6505 -4.55264,-3.5747 -8.72628,-6.4995 -9.27475,-6.4995 -1.83778,0 -2.94772,5.0617 -2.94772,13.4427 0,12.123 -1.62494,12.7699 -12.5,4.977 -2.75,-1.9706 -11.26575,-9.652 -18.92389,-17.0697 -16.63848,-16.1161 -23.07854,-20.0676 -25.4248,-15.6 -0.50548,0.9625 -1.23547,3.6601 -1.62219,5.9948 -0.38673,2.3346 -1.1088,4.4954 -1.60461,4.8019 -0.99652,0.6158 -7.42189,-2.2127 -13.078,-5.7572 -25.42755,-15.9345 -24.06708,-15.4128 -34.53003,-13.2424 -9.25612,1.9201 -41.86038,-21.4139 -88.18776,-63.1136 -6.70582,-6.0359 -19.01202,-16.0071 -24.73318,-20.0401 -2.25746,-1.5914 -6.89332,-5.2559 -10.30192,-8.1434 -8.97947,-7.6067 -12.07728,-7.0741 -12.10727,2.0818 -0.0305,9.321 -2.69114,11.1528 -7.86987,5.4182 -22.00283,-24.3646 -28.58097,-30.8361 -31.05154,-30.5486 -1.78887,0.2083 -2.99775,1.2819 -3.99541,3.5486 -2.61029,5.9305 -5.99219,4.0964 -15.74874,-8.5412 -3.69785,-4.7899 -8.8127,-11.1838 -11.36634,-14.2088 -6.12073,-7.2505 -8.26852,-10.6828 -7.48163,-11.956 0.9159,-1.482 5.3248,-1.2933 11.30975,0.4841 5.29574,1.5726 8.55217,1.2822 13.48422,-1.2028 2.28862,-1.1531 2.59204,-1.7206 1.75566,-3.2833 -1.72536,-3.2239 -11.31182,-7.183 -19.65949,-8.1192 -6.82219,-0.765 -16.81556,-3.8453 -20.01604,-6.1695 -2.6203,-1.9028 -7.21089,-2.5733 -8.94375,-1.3062 -1.63094,1.1926 -1.63503,1.5162 -0.0687,5.4308 5.06914,12.669 -1.20093,11.4001 -13.26672,-2.6849 -4.70417,-5.4914 -6.79471,-7.2307 -8.4136,-7 -1.89873,0.2706 -2.161,0.9591 -2.21196,5.807 -0.0741,7.0492 -0.23872,8 -1.38506,8 -1.61754,0 -12.14924,-14.2106 -12.74709,-17.1998 -0.59652,-2.9826 -5.85975,-8.1965 -7.34648,-7.2777 -0.47691,0.2948 -0.79321,3.2022 -0.70289,6.4609 0.0903,3.2588 -0.12246,6.2117 -0.47286,6.5621 -1.69754,1.6976 -5.35255,-1.428 -9.7997,-8.3801 -9.43591,-14.751 -12.40262,-17.9878 -15.42405,-16.8284 -0.70382,0.2701 -1.55953,1.8904 -1.90158,3.6007 -1.3592,6.7959 -5.90681,4.4748 -9.21627,-4.7041 -3.40056,-9.4315 -7.3715,-17.2336 -8.77122,-17.2336 -0.78655,0 -1.99029,0.675 -2.67498,1.5 -2.21736,2.6718 -4.98586,1.7781 -6.62192,-2.1376 -1.90761,-4.5655 -5.93054,-20.4883 -8.80784,-34.8614 -2.59015,-12.9387 -3.907,-14.078 -9.1096,-7.8811 -4.35432,5.1865 -5.50548,4.0041 -9.02342,-9.2684 -2.65122,-10.0025 -3.04532,-10.779 -6.87483,-13.5463 -6.94088,-5.0156 -9.99494,-13.5245 -14.10751,-39.3052 -2.7593,-17.2973 -2.89958,-27.6107 -0.54985,-40.4249 2.89905,-15.8099 2.83344,-16.7068 -1.40503,-19.2076 -4.55688,-2.6886 -4.56006,-5.5634 -0.0137,-12.4128 7.77498,-11.7135 6.88437,-15.1535 -3.09836,-11.9676 -5.62342,1.7946 -2.51397,-10.174 8.1803,-31.4871 4.00162,-7.975 9.65284,-19.3787 12.55826,-25.3416 2.90542,-5.9628 6.89393,-12.7128 8.86336,-15 1.96943,-2.2871 4.36277,-5.3959 5.31853,-6.9084 0.95576,-1.5125 2.37564,-2.75 3.1553,-2.75 0.77965,0 4.82437,-3.1588 8.98826,-7.0197 4.1639,-3.8608 10.03404,-8.5954 13.04477,-10.5213 6.43937,-4.1192 8.96629,-8.1111 7.52847,-11.8928 -1.47638,-3.8832 0.092,-6.5126 6.04617,-10.1369 25.15547,-15.3117 31.11546,-18.0142 50.65795,-22.9706 11.52868,-2.9239 11.06054,-1.45 -3.20388,10.0874 -10.30396,8.3341 -20.06553,18.1585 -26.96788,27.1414 -4.30938,5.6084 -4.69507,6.5445 -4.1204,10 0.56356,3.3888 0.17605,4.4237 -3.487,9.3125 -2.26657,3.025 -5.15501,6.625 -6.41876,8 -3.4745,3.7804 -14.52147,23.3168 -16.04261,28.3711 -1.13225,3.7622 -1.12389,4.7353 0.0541,6.2898 2.48841,3.2839 1.40122,9.4139 -3.11472,17.5619 -2.39064,4.3134 -8.41788,21.0606 -8.42324,23.4048 -0.003,1.1701 0.67013,2.6877 1.49513,3.3724 1.81214,1.5039 1.88725,4.5047 0.30457,12.1673 -1.13667,5.5032 -1.08178,5.9087 1.11658,8.2488 2.44735,2.605 2.47647,4.5514 0.19575,13.0839 -0.58805,2.2 -1.07992,9.7771 -1.09304,16.8379 l -0.0239,12.8379 3.90956,-0.6605 c 4.46759,-0.7548 4.25623,-1.0805 6.55398,10.0979 1.77015,8.6116 7.54402,25.6567 10.38625,30.6614 6.36351,11.205 19.47137,29.1653 26.93919,36.912 13.02451,13.5109 23.10918,20.6263 35.70856,25.195 10.2762,3.7263 13.50246,4.0508 13.50246,1.3578 0,-0.7278 -2.32075,-5.3544 -5.15722,-10.2814 -7.31183,-12.7005 -10.47707,-20.0249 -14.85834,-34.3823 -6.92279,-22.686 -7.50322,-27.2438 -7.33226,-57.5757 0.13873,-24.6149 0.37514,-28.0821 2.67621,-39.2493 1.77823,-8.6299 3.46382,-13.8919 5.70457,-17.8083 7.98921,-13.9637 22.41611,-24.5273 33.79991,-24.7488 4.66086,-0.091 6.41485,0.3896 9.87813,2.7051 8.92743,5.9688 21.522,26.0002 26.15645,41.6013 2.31965,7.8087 4.98915,26.2312 5.50637,38 0.60464,13.7582 1.95114,19.4151 8.52281,35.8061 8.95804,22.343 29.60823,60.6579 34.23762,63.5254 1.20852,0.7485 3.03208,0.3551 7,-1.5102 2.95116,-1.3873 9.86575,-4.4664 15.36575,-6.8424 11.57792,-5.0017 13.03978,-5.9323 24.6666,-15.7028 9.80188,-8.2369 17.24891,-17.032 23.84603,-28.1625 3.7359,-6.3031 5.29949,-7.9909 9.08414,-9.8055 3.89277,-1.8665 5.05067,-3.1653 7.79883,-8.7476 4.18765,-8.5063 11.76258,-30.1277 13.68463,-39.0605 0.82839,-3.85 1.92724,-11.3994 2.44188,-16.7763 0.51465,-5.377 1.41025,-10.6631 1.99024,-11.7468 0.57999,-1.0837 2.81882,-2.8704 4.97519,-3.9705 5.05063,-2.5767 6.00611,-6.5203 3.15122,-13.0064 -3.29035,-7.4754 -3.59294,-11.206 -1.22409,-15.0917 2.41293,-3.9579 2.59705,-7.3892 0.58533,-10.9083 -0.78602,-1.375 -1.44508,-4.877 -1.46456,-7.7821 -0.0195,-2.9052 -0.71044,-6.8976 -1.53544,-8.8721 -0.825,-1.9745 -1.5,-4.3864 -1.5,-5.3598 0,-2.1905 -7.58584,-25.2844 -9.55822,-29.0986 -0.79298,-1.5334 -1.44178,-3.5251 -1.44178,-4.426 0,-2.8645 -5.94699,-14.6847 -11.56313,-22.9829 -13.07869,-19.3244 -25.07049,-32.6523 -38.3099,-42.578 -11.19855,-8.3957 -27.89665,-17.2779 -34.62697,-18.419 -2.2,-0.3731 -6.21918,-1.309 -8.9315,-2.0799 -2.71233,-0.7709 -7.11557,-1.4016 -9.78499,-1.4016 -3.99633,0 -6.74585,-1.0137 -15.5685,-5.7395 l -10.71501,-5.7396 -10,-0.033 c -6.14873,-0.02 -10.86836,-0.5203 -12.25474,-1.2982 -5.59044,-3.1366 -28.50899,-0.2272 -33.1368,4.2065 -1.84189,1.7646 -3.82835,2.6088 -6.16318,2.6191 -3.04331,0.013 -13.06348,1.6703 -29.70003,4.9112 -10.01177,1.9503 -38.02233,11.972 -47.86107,17.1239 -30.59586,16.0208 -36.89974,21.1634 -34.47369,28.1228 1.41747,4.0661 -0.54996,7.705 -6.86467,12.6964 -13.3389,10.5438 -27.95437,23.9805 -34.19242,31.4347 l -4.85728,5.8043 0.64286,6.917 0.64287,6.9169 -5.47346,8.2788 c -12.06912,18.2549 -19.37887,38.7212 -21.76868,60.9492 -2.01178,18.7119 -1.23017,21.8296 5.4727,21.8296 1.85326,0 3.73361,0.5625 4.17857,1.25 0.44496,0.6875 0.80902,9.35 0.80902,19.25 0,15.31 0.33527,19.345 2.24346,27 1.2339,4.95 4.06932,16.425 6.30093,25.5 6.08454,24.7432 9.87804,36.0009 13.47878,40 1.23803,1.375 4.50485,5.8344 7.25961,9.9097 3.6685,5.4271 6.13687,7.969 9.22531,9.5 4.87379,2.416 5.87915,4.1271 12.39203,21.0903 5.36626,13.9767 9.89989,21.1368 19.94519,31.5 3.99848,4.125 8.54918,9.3 10.11268,11.5 4.88174,6.8691 10.81992,12.5 13.18212,12.5 1.3294,0 3.08281,-1.2065 4.35989,-3 1.1749,-1.65 2.68105,-3 3.34698,-3 0.66594,0 4.1228,2.9435 7.68191,6.541 3.55911,3.5976 9.40954,8.5344 13.00094,10.9706 3.59141,2.4362 7.42524,5.2303 8.51961,6.209 10.32297,9.2317 10.39821,9.2794 14.64872,9.2794 3.1382,0 4.86592,-0.6453 6.8709,-2.5662 3.00892,-2.8827 2.59201,-2.9814 14.93094,3.5349 4.07222,2.1505 6.92778,2.9179 11,2.9561 l 5.5,0.052 8,8.6886 c 14.29873,15.5295 26.19178,26.9644 30.93712,29.7454 4.0621,2.3805 5.30888,2.6404 9.90987,2.0655 l 5.26316,-0.6575 3.91389,4.8408 c 2.15263,2.6625 11.07373,11.9284 19.82466,20.5909 19.89491,19.6939 21.53043,20.0999 23.16042,5.75 0.92172,-8.1144 1.98739,-11 4.06245,-11 1.30906,0 7.69669,4.9858 16.01464,12.5 4.50044,4.0656 14.52856,12.7281 17.41379,15.0424 1.925,1.544 5.75,4.9288 8.5,7.5217 2.75,2.5929 9.95,8.3397 16,12.7706 6.05,4.431 12.125,8.9187 13.5,9.9729 14.53268,11.1413 33.63283,21.3013 47.20446,25.1095 4.12561,1.1576 11.62573,3.8937 16.66694,6.0802 13.86137,6.012 26.00942,9.8475 35.80299,11.304 8.72247,1.2972 8.92495,1.3925 17.32561,8.1553 4.675,3.7636 10.75,8.2858 13.5,10.0493 7.12664,4.5703 26.31835,14.1368 30.74246,15.3242 3.42232,0.9186 3.91606,0.7838 5.77173,-1.5753 1.1161,-1.4189 2.30654,-3.7441 2.64543,-5.1673 1.46725,-6.1616 4.36599,-6.579 10.44128,-1.5032 2.35957,1.9714 6.78965,4.9094 9.84461,6.529 3.05497,1.6196 7.71287,4.2808 10.35089,5.9138 13.60916,8.4242 50.45282,20.9321 66.64267,22.6243 7.29261,0.7622 9.06093,-0.3407 9.06093,-5.6514 0,-4.8009 2.07885,-6.7407 5.53574,-5.1657 1.36209,0.6206 9.56126,2.716 18.22039,4.6565 15.74442,3.5282 22.17207,5.042 36.24387,8.5359 13.37192,3.3201 36.23451,6.827 58.5,8.9734 11.51222,1.1097 71.14861,0.4754 83.26361,-0.8856 z M 392.59559,2173.641 c -1.62945,-1.6294 -1.5508,-3.4973 0.39583,-9.401 2.18392,-6.6233 4.05378,-8.3398 10.13197,-9.3006 7.72399,-1.221 11.50477,-4.6341 14.7939,-13.3552 4.94137,-13.102 9.53957,-19.2819 12.29597,-16.5255 0.63426,0.6343 1.1532,2.4277 1.1532,3.9855 0,4.6932 -5.85686,18.381 -10.48881,24.5128 -3.62658,4.8009 -13.46529,14.3272 -19.51119,18.8915 -2.48475,1.8759 -7.41692,2.5465 -8.77087,1.1925 z m -18.38433,-48.3144 c -7.31611,-2.6908 -16.02591,-9.2572 -19.42855,-14.6474 -1.33197,-2.1099 -3.58378,-6.8808 -5.00403,-10.6018 -2.12125,-5.5577 -2.49693,-7.9259 -2.10432,-13.2655 1.1273,-15.3315 11.83632,-28.4508 27.05536,-33.1446 22.89515,-7.0614 40.83754,-0.1494 50.66532,19.5177 2.52223,5.0474 2.9681,7.0938 2.94946,13.5366 -0.0262,9.0503 -1.83174,13.6509 -8.73764,22.2636 -5.23081,6.5236 -15.28122,13.7427 -22.58459,16.2223 -5.70584,1.9372 -17.69763,1.9998 -22.81101,0.1191 z m 5.86391,-46.7647 c 5.0788,-5.5544 6.79232,-12.8763 3.43401,-14.6736 -5.08678,-2.7224 -13.14272,3.6073 -13.14272,10.3264 0,5.9542 5.84589,8.5718 9.70871,4.3472 z m 58.8029,30.2688 c -0.33354,-0.5397 -0.093,-3.8022 0.53453,-7.25 0.74109,-4.0718 0.89384,-10.7372 0.43587,-19.0188 -0.61554,-11.1307 -0.50907,-12.75 0.83836,-12.75 3.89472,0 8.69651,13.0701 8.65767,23.5656 -0.0135,3.6451 -0.75223,7.5428 -1.91499,10.1037 -2.34275,5.1598 -6.90485,8.0137 -8.55144,5.3495 z M 345.2556,2049.909 c -11.06399,-3.6008 -18.01031,-12.2626 -18.69484,-23.3117 -0.36746,-5.9312 -0.0468,-7.506 2.74885,-13.5 7.68008,-16.4661 23.69969,-25.2854 45.92936,-25.2854 18.73877,0 33.80486,7.1444 44.7346,21.2133 7.54222,9.7084 8.88998,13.2192 8.7047,22.6749 -0.21687,11.0676 -0.76014,12.9352 -3.99908,13.7482 -1.46124,0.3667 -8.54189,-0.1351 -15.73477,-1.1152 -12.28765,-1.6743 -13.73253,-1.683 -23.90972,-0.1439 -5.95747,0.9009 -14.28247,2.5477 -18.5,3.6595 -9.12387,2.4052 -17.67524,3.2332 -21.2791,2.0603 z m 23.74278,-25.6683 c 2.85109,-3.023 3.36808,-4.301 3.36808,-8.3257 0,-3.6671 -0.5256,-5.2482 -2.29807,-6.9134 -3.62174,-3.4024 -7.96214,-3.81 -12.26356,-1.1516 -9.92617,6.1347 -7.27431,19.9619 3.82841,19.9619 3.28784,0 4.59469,-0.6337 7.36514,-3.5712 z m 603.11809,522.1503 c 8.2648,-2.7847 10.546,-5.0677 6,-6.0048 -1.2375,-0.2551 -6.0657,-0.7536 -10.7292,-1.1078 -9.2271,-0.7007 -23.02636,-4.5633 -25.06094,-7.0149 -1.05408,-1.27 -0.90157,-2.0392 0.88298,-4.4529 2.51389,-3.4002 2.80159,-6.8142 0.64402,-7.6421 -0.83223,-0.3194 -6.79473,0.2175 -13.25,1.1931 -8.24102,1.2455 -18.20449,1.8043 -33.45111,1.8763 -13.92427,0.066 -22.09723,0.4855 -22.78182,1.1701 -1.66591,1.6659 2.58177,5.2485 13.65145,11.5142 11.1954,6.3368 17.81687,9.0166 27.84461,11.2691 10.90517,2.4496 10.95741,2.4535 30.00001,2.2098 16.7054,-0.2138 18.5933,-0.4303 26.25,-3.0101 z M 828.4322,2486.7767 c 4.1583,-2.2254 2.5767,-3.3318 -10.06574,-7.0414 -7.2001,-2.1127 -21.24875,-9.7038 -36.01838,-19.4622 -11.93583,-7.8862 -15.2099,-6.8661 -10.42673,3.2487 3.39,7.1687 7.90111,13.1582 13.32053,17.686 3.84916,3.2159 5.36506,3.761 16.62458,5.9783 4.42507,0.8713 24.75809,0.558 26.56574,-0.4094 z m -212.62151,-25.8746 c 1.0644,-1.7222 -0.65223,-4.052 -5.60992,-7.6138 -8.34062,-5.9921 -4.62443,-7.8327 10.11393,-5.0092 6.00535,1.1504 12.57158,1.5481 22.05176,1.3355 l 13.5,-0.3027 0.28916,-2.5 c 0.24154,-2.0883 -0.62185,-3.0437 -5.24238,-5.8015 -10.44499,-6.2341 -9.24074,-9.2314 3.45322,-8.5947 4.125,0.2068 10.33494,0.1008 13.79986,-0.2357 7.88453,-0.7657 7.9245,-2.2809 0.19601,-7.4313 -23.91782,-15.9392 -35.33696,-23.2001 -39.1137,-24.8708 -9.66229,-4.2741 -16.88217,-4.3161 -16.88217,-0.098 0,2.0526 1.00776,3.2504 7.00641,8.3276 2.12389,1.7976 2.95803,3.1402 2.33695,3.7612 -0.53119,0.5312 -6.6784,1.2554 -13.66046,1.6092 -16.21788,0.822 -16.73485,1.3314 -9.28132,9.1457 3.07913,3.2281 5.59842,6.3826 5.59842,7.0099 0,1.8605 -4.33726,2.3961 -10.10415,1.2477 -2.96772,-0.591 -8.09585,-1.5366 -11.39585,-2.1014 -3.3,-0.5649 -10.43189,-2.4157 -15.84864,-4.113 -8.32001,-2.607 -10.05939,-2.874 -11.20641,-1.7203 -4.33559,4.3607 13.64207,23.2835 30.04033,31.6196 11.06157,5.6232 28.16413,9.2403 29.95895,6.3362 z m -94.141,-28.0144 c 0.93217,-0.9485 0.67481,-1.6443 -1.16401,-3.1468 -1.29844,-1.0609 -2.95418,-1.929 -3.67944,-1.929 -1.52213,0 -15.28317,-6.5331 -30.45978,-14.4609 -5.775,-3.0167 -11.56975,-5.497 -12.87723,-5.512 -2.25513,-0.026 -2.35236,0.2317 -1.89301,5.0123 0.34751,3.6166 1.32595,6.0869 3.46564,8.75 3.93025,4.8915 13.98241,9.9361 23.3046,11.6953 8.58272,1.6196 21.53299,1.3924 23.30323,-0.4089 z m 490.22041,-1.114 c 0.3529,-0.571 0.084,-3.2133 -0.5972,-5.8718 -0.6813,-2.6585 -0.9628,-5.5529 -0.6254,-6.4321 0.5533,-1.4417 1.023,-1.415 4.7921,0.2724 5.0843,2.2763 8.9285,1.3121 12.1521,-3.048 2.5208,-3.4096 3.5818,-3.5214 8.6902,-0.9153 4.3425,2.2154 36.6779,12.3739 47.9174,15.0538 14.2711,3.4027 32.9085,-1.2819 50.1472,-12.6048 9.1347,-5.9999 14.4905,-10.8133 13.6126,-12.2339 -0.9929,-1.6065 -5.835,-1.4891 -9.8287,0.2383 -3.1099,1.3452 -6.3049,2.1852 -25.2839,6.6474 -4.4,1.0345 -10.475,1.8868 -13.5,1.8941 -5.0116,0.012 -18.8308,-3.1855 -25,-5.7846 -6.0891,-2.5654 -17.6496,-5.3459 -32,-7.6966 -9.048,-1.4822 -19.6626,-3.9729 -25.5,-5.9837 -10.4914,-3.6138 -22.50643,-6.0923 -24.96343,-5.1494 -0.7963,0.3056 -2.0769,2.7149 -2.8457,5.354 -0.7689,2.6391 -2.0322,4.9233 -2.8073,5.0761 -0.7752,0.1527 -4.1036,-1.3783 -7.3965,-3.4023 -8.5692,-5.2669 -20.6987,-11.3432 -22.6781,-11.3605 -6.85148,-0.06 1.0437,13.1719 16.3363,27.379 13.1083,12.1778 36.50843,23.2116 39.37833,18.5679 z m -88.52364,-16.3996 c 0,-1.4905 -3.8647,-5.0649 -25,-23.1221 -20.09579,-17.1691 -28.90152,-23.4043 -35.87924,-25.4055 -2.59268,-0.7435 -3.59636,-0.4381 -6.72177,2.0457 -2.0207,1.6058 -3.8557,2.9197 -4.07779,2.9197 -0.22208,0 -5.8977,-5.2527 -12.61249,-11.6726 -6.71479,-6.42 -14.78467,-13.575 -17.93306,-15.9002 l -5.72436,-4.2275 -17.2568,0.2931 c -14.53529,0.2468 -17.41632,0.5459 -18.26835,1.8966 -0.70163,1.1124 -0.64272,2.1943 0.19226,3.5313 2.72341,4.3609 9.24477,21.8266 9.27078,24.8293 0.0229,2.6467 -4.05227,1.0331 -10.63459,-4.211 -9.00844,-7.177 -20.11873,-13.8435 -21.91956,-13.1524 -0.9492,0.3642 -1.43503,2.0571 -1.43503,5.0002 0,9.6784 -1.8801,9.8501 -9.4562,0.8632 -9.43073,-11.1868 -22.00676,-19.8364 -32.33343,-22.2382 -9.60836,-2.2348 -29.12398,2.074 -34.28735,7.5701 l -2.21416,2.3569 2.71067,1.0306 c 1.49087,0.5668 4.41995,1.0306 6.50908,1.0306 10.71197,0 22.28264,4.6204 32.07139,12.8067 3.025,2.5298 10,8.9273 15.5,14.2167 5.5,5.2894 11.85975,11.044 14.13278,12.788 8.1877,6.2822 21.96176,14.9129 26.57951,16.6544 8.71142,3.2853 9.85113,0.418 4.18551,-10.53 -4.03966,-7.8061 -3.95286,-10.5429 0.30052,-9.4754 1.47383,0.3699 3.85809,1.5117 5.29835,2.5372 5.51025,3.9237 10.7808,5.3087 17.82436,4.6841 4.84142,-0.4293 7.36678,-0.2016 9.17897,0.8276 3.13086,1.7781 7.42511,1.8883 8.80476,0.226 0.73923,-0.8908 0.61934,-3.3176 -0.40541,-8.2063 -1.66737,-7.9543 -1.36716,-9.5275 1.81927,-9.5329 1.60563,0 5.39152,3.2652 12.78138,11.0324 l 10.5,11.0362 10,3.4399 c 5.5,1.8919 10.74276,3.2112 11.65059,2.9318 0.90782,-0.2794 1.92136,-1.587 2.25232,-2.9056 1.07561,-4.2856 3.74137,-3.9166 16.74722,2.3179 6.79243,3.256 13.87809,6.2472 15.74592,6.6472 1.86782,0.3999 6.14282,2.0266 9.5,3.6148 6.65636,3.1491 12.60395,3.834 12.60395,1.4515 z M 446.5668,2370.1862 c 1.48519,-0.7558 5.15574,-1.3743 8.15678,-1.3743 7.25065,0 16.48937,-4.1797 25.29698,-11.4446 5.89996,-4.8666 11.17971,-7.5309 14.96104,-7.5498 0.61333,0 2.31777,-0.9516 3.78764,-2.1078 2.06764,-1.6264 2.41901,-2.4076 1.5525,-3.4517 -1.90929,-2.3005 -20.26872,-14.0764 -23.82866,-15.2839 -3.17126,-1.0756 -3.56072,-0.9477 -6.5,2.1346 -1.71964,1.8034 -4.80039,4.5117 -6.8461,6.0186 -3.23069,2.3798 -3.64142,3.1301 -3.12549,5.7097 0.75819,3.791 -0.75417,5.5853 -5.44066,6.4549 -4.58969,0.8516 -6.9069,2.8436 -7.74459,6.6576 -0.35607,1.6212 -1.83325,3.6676 -3.30668,4.5809 -1.4647,0.9079 -3.70904,2.5775 -4.9874,3.7102 -1.52925,1.3551 -4.23881,2.2326 -7.92128,2.5654 -6.59232,0.5959 -7.83465,2.4067 -3.09162,4.5065 3.9048,1.7287 14.68057,1.0912 19.03754,-1.1263 z m 779.2302,-11.36 c 16.6893,-3.4339 23.4409,-7.6329 28.1614,-17.5143 2.0718,-4.3369 2.3878,-6.4587 2.383,-16 0,-6.05 -0.4212,-11.6571 -0.9292,-12.4602 -1.3354,-2.1113 -4.3518,0.8783 -8.2324,8.1592 -1.7018,3.1928 -5.1685,7.6808 -7.7037,9.9732 -2.5353,2.2924 -9.7228,8.9289 -15.9722,14.7479 -6.2494,5.8189 -11.9869,10.9398 -12.75,11.3796 -1.7271,0.9955 -1.8071,3.3573 -0.1374,4.0588 0.6875,0.2889 2.2983,0.3088 3.5795,0.044 1.2813,-0.2644 6.5017,-1.3393 11.601,-2.3885 z m -633.93054,-17.5143 c 0,-1.3522 -1.33333,-2.6478 -4.11625,-4 -6.42296,-3.1208 -7.53977,-4.4094 -7.19243,-8.2987 0.43424,-4.8622 -1.6303,-5.9795 -8.02227,-4.3413 -5.22885,1.3401 -10.2026,0.9093 -16.38934,-1.4196 -12.59005,-4.7393 -7.68829,11.1538 5.20907,16.8895 6.87669,3.0583 9.66847,3.5121 20.51122,3.3342 9.27864,-0.1523 10,-0.3084 10,-2.1641 z m 428.00004,-13.3734 c 12.0209,-3.7227 35.9481,-16.3159 35.1906,-18.5212 -0.6725,-1.9577 -19.3818,-1.2584 -25.6906,0.9603 -4.3738,1.5382 -7.9571,1.908 -17.5,1.8057 -10.6183,-0.1138 -13.84223,-0.6091 -28.00003,-4.3015 -18.1099,-4.7233 -16.8704,-4.3226 -33,-10.6672 -6.60001,-2.5961 -14.43458,-6.3363 -17.41016,-8.3114 -5.06898,-3.3648 -5.98337,-3.611 -14.5,-3.904 -4.99942,-0.172 -10.88985,0.071 -13.08985,0.5393 -3.35092,0.7137 -4.05151,1.2935 -4.31743,3.5731 -0.34162,2.9285 -0.48887,2.7005 11.75348,18.2003 11.22706,14.2143 19.88315,21.5 25.54408,21.5 2.43471,0 2.51987,-0.2197 2.51987,-6.5 0,-6.1749 0.11876,-6.5 2.37427,-6.5 1.30585,0 4.34336,0.7018 6.75001,1.5595 2.40665,0.8578 8.65073,2.4372 13.87573,3.5098 5.225,1.0727 10.85,2.4468 12.5,3.0538 15.1372,5.568 32.67533,7.2009 43.00003,4.0035 z m -186.16203,-20.1266 c 2.5051,-2.6542 3.4914,-3 8.55563,-3 6.85707,0 10.51957,-1.9722 8.10636,-4.3652 -2.02269,-2.0057 -13.13789,-5.6348 -17.25836,-5.6348 -1.82679,0 -6.00349,-0.6919 -9.28154,-1.5377 -7.25345,-1.8713 -29.28471,-10.3695 -30.0366,-11.5861 -0.87168,-1.4104 -5.43633,-1.0063 -6.02724,0.5335 -1.45495,3.7916 11.44299,19.548 19.68568,24.0486 5.72994,3.1286 10.24933,4.2121 18.42131,4.4165 4.34598,0.1088 5.37521,-0.2689 7.83476,-2.8748 z m -122.11476,-2.9323 c 2.35221,-1.0627 7.2705,-3.2686 10.92953,-4.9019 7.61677,-3.4 33.00417,-18.4451 34.82324,-20.6369 2.22193,-2.6773 0.43538,-3.9894 -7.54647,-5.5426 -5.95326,-1.1584 -7.99523,-1.9696 -8.24681,-3.2759 -0.1839,-0.955 1.87326,-4.5429 4.57147,-7.9733 2.69821,-3.4304 6.35991,-8.8151 8.13711,-11.966 1.77721,-3.1508 3.6537,-5.9899 4.16998,-6.309 1.51091,-0.9338 1.07904,-4.1943 -0.64309,-4.8551 -0.86998,-0.3339 -3.31569,-0.607 -5.4349,-0.607 -5.96929,0 -8.79309,-1.4866 -9.73605,-5.1256 -0.78254,-3.0199 -1.31781,-3.3365 -9.28883,-5.4928 -13.68933,-3.7033 -13.79854,-3.6369 -7.94475,4.834 4.56594,6.6072 4.98632,7.6999 4.98632,12.961 0,4.6209 -0.42793,6.1442 -2.18623,7.7823 -3.19033,2.9722 -12.1222,6.0615 -21.66335,7.4928 -10.84382,1.6267 -12.59024,3.8366 -7.15042,9.0483 3.57547,3.4255 3.81199,5.9239 0.75,7.9224 -3.90077,2.5458 -32.93214,15.1057 -40.46495,17.5065 -8.34167,2.6584 -10.83267,4.2016 -10.05474,6.2289 0.76676,1.9981 15.35157,4.2804 21.50223,3.3648 5.32356,-0.7925 16.08628,-4.2484 18.03225,-5.79 2.03004,-1.6083 11.86829,-3.5774 13.33735,-2.6695 1.10497,0.6829 1.11474,1.4482 0.0559,4.3764 -0.70579,1.9519 -1.00352,4.0015 -0.66162,4.5547 0.97306,1.5744 5.05131,1.186 9.72685,-0.9265 z m 446.69049,-2.0917 c 4.5027,-0.5844 8.1903,-1.6521 9.3917,-2.7191 2.6486,-2.3524 6.6727,-11.0852 6.6848,-14.5069 0.014,-3.9212 -3.529,-3.6452 -9.631,0.7503 -5.2301,3.7674 -14.7136,8.4997 -17.0333,8.4997 -0.7839,0 -2.7529,0.6866 -4.3756,1.5257 -4.0564,2.0977 -3.913,5.1391 0.2997,6.3555 4.2592,1.2298 5.8401,1.2401 14.6637,0.095 z m -171.91373,-30.0215 c 11.0361,-1.7494 11.4311,-2.2069 8.641,-10.0093 -1.5171,-4.2427 -1.1245,-5.9452 1.3709,-5.9452 1.0149,0 2.6206,-0.7875 3.5682,-1.75 2.95063,-2.9968 6.82813,-5.2365 9.07763,-5.2434 1.1868,0 4.3494,1.1305 7.0282,2.5203 6.6005,3.4244 11.1103,4.0361 15.3617,2.0833 7.2416,-3.3264 17.3052,-9.1569 17.662,-10.2329 0.5453,-1.6447 -2.925,-2.2581 -9.4562,-1.6716 -8.1427,0.7313 -13.8696,-1.0283 -16.2953,-5.0065 -2.4243,-3.976 -2.4436,-5.2137 -0.1176,-7.5397 1.2418,-1.2418 3.9975,-2.0419 8.4718,-2.4597 6.6155,-0.6178 12.6877,-2.8794 12.6877,-4.7255 0,-2.6292 -4.0398,-4.7456 -10.3481,-5.4211 -5.587,-0.5983 -7.463,-1.3404 -12.1305,-4.7985 -3.0368,-2.2498 -5.5214,-4.6539 -5.5214,-5.3422 0,-0.6884 -1.9816,-7.2503 -4.4036,-14.5821 -2.422,-7.3317 -5.5931,-18.0554 -7.047,-23.8304 -1.4538,-5.775 -4.891,-17.0905 -7.63823,-25.1455 -2.7472,-8.0551 -6.6584,-21.1051 -8.6917,-29 -3.6347,-14.1134 -3.6965,-14.6736 -3.6778,-33.3545 0.017,-16.7226 0.2919,-19.9589 2.2952,-27 5.5547,-19.5235 9.2085,-24.3015 25.66313,-33.5588 12.691,-7.14 20.5,-12.5913 20.5,-14.3108 0,-0.6595 -1.313,-1.9748 -2.9178,-2.9228 -1.6049,-0.948 -4.0866,-3.1825 -5.5151,-4.9656 -1.4285,-1.7831 -3.0837,-3.8318 -3.6783,-4.5527 -0.8556,-1.0374 -1.947,-0.4514 -5.2349,2.8109 -2.4159,2.397 -7.9195,5.9287 -13.1539,8.4409 -14.48173,6.9502 -20.70153,13.1209 -28.28253,28.0589 -6.3334,12.4797 -7.274,16.8262 -7.8986,36.5 -0.8866,27.9226 1.361,46.1616 8.8109,71.5 1.132,3.85 1.9033,8.35 1.7142,10 l -0.344,3 -13.5,-0.2813 c -13.2811,-0.2767 -20.68944,-1.648 -31.00001,-5.7379 -7.43297,-2.9484 -16.93363,-4.7426 -27.5,-5.1933 -10.79845,-0.4606 -11.10501,-0.4126 -16.7311,2.6216 -6.91061,3.727 -8.26036,3.7906 -13.89295,0.6544 -8.51616,-4.7418 -28.76916,-10.6079 -36.51517,-10.5763 -1.72656,0.01 -4.07381,-0.7747 -5.21609,-1.7372 -2.07176,-1.7457 -2.07235,-1.7697 -0.23896,-9.75 1.01085,-4.4 2.61695,-13.175 3.5691,-19.5 2.8567,-18.9767 3.07001,-19.3481 16.65613,-29 3.48383,-2.475 9.1816,-6.6399 12.66171,-9.2554 3.48011,-2.6154 7.76294,-5.4942 9.5174,-6.3972 7.53657,-3.8789 18.78109,-12.2548 26.53374,-19.7648 9.9134,-9.6031 18.79427,-21.5594 16.90491,-22.7591 -0.6868,-0.4361 -5.31573,-0.7998 -10.28653,-0.8082 l -9.03781,-0.015 -7.69258,8.4053 c -6.43031,7.026 -9.57719,9.4873 -19.17794,15 -6.31695,3.6271 -11.73039,6.5947 -12.02987,6.5947 -0.29947,0 -2.78527,1.575 -5.52399,3.5 -6.44737,4.5317 -8.38079,4.5942 -7.73772,0.25 0.26461,-1.7875 0.9845,-6.625 1.59978,-10.75 2.89908,-19.4364 4.25723,-32.2701 3.4853,-32.934 -1.40279,-1.2064 -13.37004,-6.066 -14.93802,-6.066 -0.80237,0 -1.84056,1.0125 -2.3071,2.25 -1.01209,2.6846 -6.53763,31.1715 -8.07819,41.6471 -0.59831,4.0684 -1.27596,7.7015 -1.50589,8.0735 -0.22993,0.372 -0.90512,4.5961 -1.50044,9.3868 -1.5389,12.3841 -2.98896,14.8727 -11.46021,19.6686 -20.08257,11.3696 -45.30474,32.215 -56.14876,46.4054 -2.97093,3.8877 -7.44601,9.5436 -9.94461,12.5686 -11.0304,13.3543 -25.93159,37.8659 -24.12053,39.6769 1.63138,1.6314 14.6468,-10.7585 22.99147,-21.8865 6.16728,-8.2244 14.97954,-16.7904 17.27307,-16.7904 2.91019,0 1.14067,3.0621 -6.14969,10.6419 -4.14784,4.3125 -7.78599,8.8149 -8.08476,10.0053 -0.3035,1.2092 0.20817,3.3112 1.15944,4.763 1.42857,2.1803 1.58875,3.9663 0.995,11.0942 -0.83919,10.0743 0.3062,11.0047 5.22684,4.2456 1.70172,-2.3375 4.5573,-5.825 6.34574,-7.75 1.78844,-1.925 6.32931,-8.5629 10.09083,-14.7508 23.92564,-39.3594 35.23733,-54.2492 41.21282,-54.2492 2.24043,0 2.06298,3.7161 -0.87224,18.2664 -6.60663,32.7501 -8.1412,36.9839 -16.05438,44.2935 -3.98944,3.6851 -5.47775,5.7808 -5.47775,7.7133 v 2.6535 l 11.75,-0.5448 c 17.04385,-0.7902 17.76625,-1.2441 20.25128,-12.723 1.74082,-8.0413 3.59343,-11.5191 6.5286,-12.2558 6.16566,-1.5474 15.73902,0.6613 38.97012,8.9911 7.76605,2.7846 11.53236,3.5879 16.85941,3.5957 l 6.8594,0.01 -0.45702,3.25 c -0.25136,1.7875 -0.74587,3.925 -1.0989,4.75 -0.35304,0.825 -0.21163,2.175 0.31423,3 0.76585,1.2015 2.9029,1.4411 10.73949,1.2042 12.35178,-0.3735 17.28339,-1.5841 17.28339,-4.2427 0,-1.9851 -0.88789,-2.9831 -6.75,-7.5869 -6.69843,-5.2606 -2.96957,-5.5975 9.25,-0.8358 5.67045,2.2097 9.0893,2.8103 18,3.1625 7.77694,0.3074 12.37286,1.0009 15.68541,2.3667 5.1513,2.1241 12.5139,2.4413 22.6495,0.9758 3.4842,-0.5037 6.948,-0.6806 7.6973,-0.3931 0.7494,0.2876 2.247,3.2963 3.328,6.6861 6.4829,20.3283 6.4785,20.6632 -0.2731,20.6632 -6.0322,0 -10.183,3.3196 -8.761,7.0067 2.4601,6.3781 11.368,9.8124 18.1573,7.0002 4.62163,-1.9144 8.33263,0.086 11.54023,6.2202 3.0224,5.7804 2.7317,8.9043 -1.06,11.3887 -2.0861,1.3668 -3.3691,1.4702 -7.6776,0.6183 -2.84513,-0.5626 -5.76093,-0.7972 -6.47953,-0.5215 -2.4556,0.9423 -1.4162,5.0564 1.9435,7.6925 2.6903,2.1109 3.0619,2.8553 2.1578,4.3225 -1.4145,2.2952 -5.6973,4.369 -10.2754,4.9754 -3.2151,0.4259 -4.8608,-0.3461 -14.3241,-6.7192 -5.8804,-3.9603 -11.9554,-8.5608 -13.5,-10.2235 -6.69132,-7.2028 -8.6376,-8.7089 -13.2213,-10.2314 -2.66849,-0.8863 -5.66214,-2.5069 -6.65256,-3.6013 -1.64372,-1.8163 -1.66251,-2.1281 -0.21552,-3.5751 1.88693,-1.8869 8.27904,-3.2488 15.53108,-3.3089 4.4089,-0.037 5.25,-0.3374 5.25,-1.8774 0,-1.7989 -7.19336,-7.3461 -13.5,-10.4107 -1.65001,-0.8018 -7.63754,-2.0036 -13.30564,-2.6707 -5.66809,-0.667 -12.19309,-1.884 -14.5,-2.7043 -9.76267,-3.4716 -17.19019,-4.3964 -25.1446,-3.1308 -6.13913,0.9767 -7.54977,1.5355 -7.54977,2.9904 0,2.006 4.48397,5.0634 10.5,7.1593 2.2,0.7665 8.725,3.0244 14.5,5.0175 15.02069,5.1842 20.54374,8.267 25.23092,14.0831 5.40663,6.7088 7.03564,10.6687 5.76439,14.0123 -1.04001,2.7355 -1.32097,2.6982 -6.15024,-0.8159 -3.13968,-2.2847 -4.84507,-1.572 -4.84507,2.0248 0,6.3147 9.58361,16.3411 25.92191,27.1196 3.532,2.3301 7.4754,5.6816 8.7631,7.4479 1.5477,2.1229 3.7772,3.6077 6.5781,4.3808 5.4428,1.5024 5.986,1.5137 13.7369,0.285 z m -415.00001,-4.317 c 0,-0.7494 -3.0375,-3.6405 -6.75,-6.4247 -3.7125,-2.7842 -11.01611,-9.3711 -16.23025,-14.6375 -10.88051,-10.9896 -14.01975,-12.2736 -14.01975,-5.7342 0,5.409 2.36919,12.6431 5.47363,16.7132 3.10191,4.0668 7.73593,6.611 16.02637,8.7989 11.41394,3.0121 15.5,3.3507 15.5,1.2843 z m 538.00004,-17.3492 c 9.7833,-2.6909 21.4301,-7.5634 24.25,-10.1449 2.0346,-1.8627 2.75,-3.4639 2.75,-6.1553 0,-5.267 -4.5524,-17.8477 -8.0195,-22.162 -3.4581,-4.3032 -3.5974,-5.4645 -1.2468,-10.3938 1.7104,-3.5868 1.7022,-3.6609 -0.6108,-5.5339 -1.2895,-1.0441 -3.1401,-1.8984 -4.1125,-1.8984 -1.6512,0 -12.3115,-5.9011 -14.3588,-7.9484 -0.5623,-0.5623 -0.4637,-2.7409 0.2529,-5.5865 0.9226,-3.6641 0.9064,-4.988 -0.076,-6.1713 -1.2563,-1.5137 -1.5953,-1.5051 -13.1235,0.331 -4.2186,0.672 -6.7839,-0.9421 -9.3335,-5.8724 -1.3043,-2.5223 -1.9072,-2.7524 -7.2121,-2.7524 h -5.7888 l -3.9355,-5.75 c -2.8804,-4.2084 -5.284,-6.4203 -8.9652,-8.25 -5.6009,-2.7839 -9.228,-5.066 -14.5727,-9.1689 -1.9813,-1.5209 -5.8063,-3.9363 -8.5,-5.3673 -8.6364,-4.5883 -12.4311,-7.0926 -16.2069,-10.6955 -2.0299,-1.9369 -5.7041,-4.9514 -8.1649,-6.6987 -4.2244,-2.9996 -4.5484,-3.0763 -5.8044,-1.3733 -2.8378,3.8479 1.6956,32.2344 6.7457,42.2386 3.6235,7.1781 5.6254,7.6134 7.6812,1.6702 2.2929,-6.6285 3.1048,-7.0291 7.113,-3.5099 3.5858,3.1485 5.7305,3.3975 11.9887,1.3924 2.027,-0.6494 2.2534,-0.3871 2.2839,2.6458 0.019,1.8516 0.9034,5.1666 1.9661,7.3666 1.0627,2.2 1.9474,5.1374 1.9661,6.5275 0.044,3.2906 2.6611,6.9725 4.9557,6.9725 0.9947,0 2.9314,-0.8833 4.3039,-1.9629 2.4917,-1.96 2.4983,-1.9596 4.4502,0.25 1.0752,1.2171 2.701,3.4163 3.6128,4.8871 2.3519,3.7932 5.0944,4.3493 9.6752,1.9617 3.3609,-1.7519 4.0457,-1.8292 5.0869,-0.5747 0.7578,0.9131 0.9701,2.9064 0.5737,5.3858 -0.5338,3.3377 -0.2912,4.173 1.5955,5.4946 1.2238,0.8571 3.4186,1.5584 4.8775,1.5584 5.1151,0 8.8411,1.2313 9.4405,3.1198 0.8409,2.6492 -2.91,7.5192 -7.6564,9.9406 -2.4067,1.2278 -4.5781,3.3323 -5.5577,5.3865 -1.5942,3.3432 -1.4653,4.481 0.8777,7.7446 0.9827,1.3689 0.8886,2.0513 -0.4936,3.5787 -0.9394,1.038 -1.708,2.2005 -1.708,2.5833 0,1.171 4.4176,2.4618 12.0408,3.5182 3.9966,0.5538 7.9479,1.6884 8.7808,2.5213 1.3525,1.3525 1.2559,1.7353 -0.9036,3.5811 -1.3299,1.1366 -3.6555,2.744 -5.168,3.572 -2.8386,1.5537 -3.702,4.8943 -1.5,5.8031 1.7381,0.7173 9.1988,-0.259 15.75,-2.0609 z m 1145.3743,-33.0383 c 1.6871,-33.383 1.8635,-42.4466 0.8674,-44.5584 -0.987,-2.0925 -12.8723,-38.3102 -24.8392,-75.6916 -3.0812,-9.625 -8.1898,-25.375 -11.3523,-35 -3.1626,-9.625 -9.23,-28.3 -13.4831,-41.5 -4.2531,-13.2 -8.1009,-24.9 -8.5508,-26 -0.4498,-1.1 -1.9385,-5.6 -3.3082,-10 -4.246,-13.6399 -21.8331,-67.8893 -22.6933,-70 -0.4482,-1.1 -4.2925,-12.8 -8.5429,-26 -4.2503,-13.2 -9.1972,-28.5 -10.9932,-34 -1.796,-5.5 -6.5069,-20.125 -10.4687,-32.5 -3.9617,-12.375 -7.563,-23.4 -8.0028,-24.5 -0.4398,-1.1 -4.3002,-12.8 -8.5787,-26 -4.2784,-13.2 -9.6828,-29.85 -12.0096,-37 -2.3268,-7.15 -8.1324,-25.15 -12.9013,-40 -4.7689,-14.85 -9.0392,-27.9 -9.4896,-29 -0.4503,-1.1 -3.835,-11.45 -7.5215,-23 -3.6865,-11.55 -7.0574,-21.9 -7.4909,-23 -0.4334,-1.1 -2.366,-6.95 -4.2944,-13 -7.573,-23.7575 -17.9663,-56.0768 -18.491,-57.5 -0.3042,-0.825 -1.2679,-3.525 -2.1416,-6 l -1.5886,-4.5 -20,-1.1257 c -11,-0.6191 -28.154,-1.4133 -38.12,-1.7647 l -18.1201,-0.6391 -4.2513,10.2648 c -2.3383,5.6456 -5.1416,12.2897 -6.2296,14.7647 -1.0881,2.475 -2.3578,5.4 -2.8217,6.5 -0.4638,1.1 -1.9352,4.475 -3.2698,7.5 -1.3346,3.025 -3.8995,9.1 -5.6999,13.5 -1.8004,4.4 -3.6591,8.4275 -4.1305,8.95 -0.4714,0.5225 -0.8571,1.5036 -0.8571,2.1802 0,0.6767 -1.3073,4.0742 -2.9052,7.55 -1.5979,3.4759 -7.2711,16.6698 -12.6072,29.3198 -5.3361,12.65 -10.6044,24.999 -11.7073,27.4422 -1.103,2.4432 -5.5969,13.0182 -9.9866,23.5 -4.3897,10.4818 -8.8773,21.0296 -9.9725,23.4395 -1.0952,2.41 -6.2687,14.56 -11.4967,27 -5.228,12.4401 -10.1062,23.9683 -10.8404,25.6183 -0.7341,1.65 -2.4934,5.6008 -3.9095,8.7796 -1.416,3.1788 -2.5746,5.9599 -2.5746,6.1803 0,0.2203 -1.35,3.3172 -3,6.8821 -1.65,3.5648 -3,6.7329 -3,7.0401 0,0.3073 -1.0666,2.9345 -2.3702,5.8383 -1.3036,2.9038 -5.3972,12.4796 -9.097,21.2796 -3.6997,8.8 -7.8082,18.3748 -9.1298,21.2773 -1.3217,2.9026 -2.403,5.4767 -2.403,5.7204 0,0.2437 -1.1507,3.0439 -2.557,6.2227 -1.4064,3.1788 -2.9355,6.6796 -3.398,7.7796 -0.4626,1.1 -1.5185,3.575 -2.3465,5.5 -8.8814,20.6481 -21.0212,49.148 -27.6876,65 -4.5102,10.725 -8.7992,20.85 -9.531,22.5 -0.7319,1.65 -2.4892,5.6008 -3.9053,8.7796 -1.416,3.1788 -2.5746,6.0202 -2.5746,6.3141 0,0.294 -1.1639,3.0931 -2.5864,6.2204 -2.4575,5.4026 -4.5954,10.2622 -6.461,14.6859 -0.4638,1.1 -1.7235,4.025 -2.7991,6.5 -1.0757,2.475 -4.2861,10.125 -7.1342,17 -2.8482,6.875 -6.0714,14.4686 -7.1627,16.8748 -1.0913,2.4061 -2.8267,6.5124 -3.8566,9.1252 -1.0299,2.6128 -2.846,6.9441 -4.0359,9.6252 -1.1899,2.6812 -2.544,5.7748 -3.0092,6.8748 -0.4651,1.1 -1.7213,4.025 -2.7916,6.5 -1.0702,2.475 -3.84,9 -6.155,14.5 -2.315,5.5 -4.8064,11.35 -5.5365,13 -3.5556,8.0365 -5.4852,12.5378 -7.9306,18.5 -1.4664,3.575 -3.265,7.85 -3.997,9.5 -0.7321,1.65 -3.0263,7.05 -5.0982,12 -2.0719,4.95 -4.1449,9.4275 -4.6066,9.95 -0.4617,0.5225 -0.8394,1.5372 -0.8394,2.2549 0,0.7177 -1.125,3.6369 -2.5,6.4872 -1.8258,3.7847 -2.4983,6.8171 -2.4938,11.2451 0,3.3345 -0.5139,15.1979 -1.1498,26.363 -0.712,12.502 -0.7992,20.657 -0.2269,21.2293 0.511,0.511 8.791,1.1689 18.3998,1.462 9.6089,0.293 24.4457,0.9645 32.9707,1.4922 18.0871,1.1195 59.3876,2.9177 137,5.9647 66.548,2.6127 78.6776,3.1604 90,4.064 6.875,0.5486 17.7783,0.9953 24.2296,0.9926 6.4513,0 18.3763,0.4448 26.5,0.9946 13.4187,0.9081 27.1135,1.524 88.7704,3.9926 60.1713,2.409 77.9949,3.2098 87.5,3.9313 5.775,0.4383 17.3017,0.8599 25.615,0.9367 l 15.115,0.1398 z m -115.3743,-61.3386 c -13.8322,-0.7589 -47.0279,-2.2186 -123,-5.4087 -18.975,-0.7967 -44.4,-1.9368 -56.5,-2.5334 -12.1,-0.5965 -33.7,-1.532 -48,-2.0788 -65.2109,-2.4934 -116.9176,-5.0177 -117.6623,-5.7443 -0.3643,-0.3554 0.2659,-2.6712 1.4003,-5.1462 1.1344,-2.475 2.67,-5.9625 3.4123,-7.75 0.7423,-1.7875 1.9904,-4.7125 2.7734,-6.5 0.783,-1.7875 8.0293,-19 16.1029,-38.25 8.0736,-19.25 15.5575,-37.025 16.6309,-39.5 2.3555,-5.4311 3.9785,-9.2765 7.8082,-18.5 0.4567,-1.1 1.516,-3.575 2.3539,-5.5 0.8379,-1.925 7.0058,-16.55 13.7064,-32.5 6.7006,-15.95 13.0359,-30.8878 14.0784,-33.1951 1.0426,-2.3074 1.8956,-4.4315 1.8956,-4.7204 0,-0.2889 1.1507,-3.1261 2.557,-6.3049 1.4064,-3.1788 2.9814,-6.7921 3.5,-8.0296 2.3542,-5.6172 2.9531,-7.0252 4.7855,-11.25 1.0734,-2.475 8.5529,-20.25 16.6211,-39.5 8.0682,-19.25 15.3145,-36.3066 16.1029,-37.9036 0.7884,-1.597 1.4335,-3.2531 1.4335,-3.6803 0,-0.4271 1.3041,-3.6205 2.8981,-7.0963 1.5939,-3.4759 9.4982,-22.0698 17.5651,-41.3198 8.0668,-19.25 15.3127,-36.3066 16.1019,-37.9036 0.7892,-1.597 1.4349,-3.2722 1.4349,-3.7227 0,-0.4505 1.1791,-3.4188 2.6201,-6.5964 1.4411,-3.1775 3.2715,-7.3523 4.0676,-9.2773 2.777,-6.7144 3.1188,-7.5237 4.7058,-11.1415 0.8785,-2.0028 7.7085,-18.2028 15.1776,-36 7.4691,-17.7972 14.16,-33.7085 14.8687,-35.3585 0.7087,-1.65 2.093,-4.9125 3.0763,-7.25 1.3428,-3.1924 2.3418,-4.25 4.0145,-4.25 2.6331,0 2.7903,0.3474 9.0537,20 2.5417,7.975 6.083,19 7.8695,24.5 1.7866,5.5 5.6128,17.425 8.5026,26.5 2.8899,9.075 5.6187,17.4 6.0641,18.5 0.4453,1.1 1.5151,4.25 2.3773,7 0.8622,2.75 3.0989,9.725 4.9706,15.5 1.8716,5.775 4.8359,15 6.5873,20.5 1.7515,5.5 6.538,20.35 10.6367,33 4.0987,12.65 9.7396,30.2 12.5353,39 2.7957,8.8 5.4535,16.9 5.9063,18 0.4527,1.1 1.5625,4.475 2.466,7.5 0.9035,3.025 1.9931,6.4 2.4213,7.5 0.8683,2.2308 3.6213,10.7701 10.639,33 2.6045,8.25 7.3713,23.1 10.593,33 3.2217,9.9 8.1544,25.2 10.9615,34 2.8071,8.8 5.4475,16.6898 5.8674,17.5328 0.4199,0.8431 1.1029,3.0783 1.5178,4.9672 0.4149,1.8889 1.0938,4.1241 1.5087,4.9672 0.415,0.843 2.339,6.4828 4.2757,12.5328 5.9846,18.6952 17.7544,55.5879 20.4178,64 1.3931,4.4 2.8846,8.9 3.3144,10 0.4298,1.1 3.8002,11.45 7.4899,23 3.6896,11.55 7.0635,21.9 7.4976,23 1.3395,3.395 4.9959,15.4863 4.9959,16.521 0,1.1215 -13.3214,1.0797 -35,-0.1096 z m -54,-67.4401 c 0,-0.8407 -16.9034,-53.8282 -37.5632,-117.75 -45.965,-142.217 -48.7548,-150.7213 -49.4428,-150.7213 -1.1879,0 -108.994,256.8745 -108.994,259.705 0,0.7123 1.0125,1.2893 2.25,1.2824 1.2375,-0.01 25.425,1.1403 53.75,2.5494 28.325,1.4092 70.4,3.3798 93.5,4.3793 23.1,0.9994 43.0125,1.8771 44.25,1.9505 1.4103,0.084 2.25,-0.4371 2.25,-1.3953 z M 894.66392,2224.9144 c 1.70293,-1.7029 -1.49076,-4.3694 -10.88684,-9.0896 -4.8471,-2.435 -9.49139,-5.5557 -10.69902,-7.1891 -2.46648,-3.3361 -10.59754,-8.8238 -13.07413,-8.8238 -0.92809,0 -4.2481,-0.9 -7.37779,-2 -7.86993,-2.7661 -9.19711,-2.5676 -13.37227,2 -3.59856,3.9368 -3.76691,4 -10.64944,4 -4.85778,0 -7.357,0.4385 -8.18492,1.4361 -1.94986,2.3494 0.3938,5.3826 4.7091,6.0945 8.12939,1.3411 20.06251,4.5319 26.23785,7.0155 17.50485,7.0404 39.48509,10.3688 43.29746,6.5564 z m 288.89778,-33.8525 0.3048,-4.75 5.6289,0.2484 c 4.2044,0.1855 5.9711,-0.1639 6.981,-1.3808 1.1776,-1.419 0.8819,-2.0356 -2.2926,-4.7797 -2.0045,-1.7328 -7.171,-4.6852 -11.481,-6.5609 -10.2029,-4.4402 -14.3202,-7.1862 -17.8894,-11.9312 -5.323,-7.0766 -12.4469,-10.2368 -12.4469,-5.5215 0,5.3537 5.649,19.8034 10.3858,26.5662 0.7156,1.0217 3.9591,3.5804 7.2077,5.686 3.2486,2.1057 6.5241,4.5811 7.2789,5.501 0.7549,0.9199 2.4177,1.6725 3.6953,1.6725 2.0615,0 2.357,-0.5341 2.6275,-4.75 z m -608.39873,-4.2343 c 0.93692,-1.6414 2.31311,-3.2204 3.05819,-3.5088 0.74509,-0.2885 6.2694,-0.061 12.27624,0.5054 16.04168,1.5128 18.48918,-0.489 8.59608,-7.0308 -13.02772,-8.6145 -19.15791,-10.7504 -25.75573,-8.9738 -3.97467,1.0703 -4.63399,0.911 -12.49581,-3.02 -9.88266,-4.9413 -12.83174,-4.9834 -13.29241,-0.1898 -0.59148,6.1548 9.24097,18.728 18.05881,23.0928 5.71321,2.828 7.53621,2.661 9.55463,-0.875 z m -254.33345,-1.4358 c 2.61925,-1.0944 3.64275,-2.2986 4.4623,-5.25 2.84899,-10.26 -1.09922,-17.0316 -10.55144,-18.097 -3.62861,-0.409 -5.06742,-0.024 -8.30769,2.2212 -3.68772,2.5556 -7.07085,7.6798 -7.06249,10.697 0.008,3.0036 4.2313,8.0531 8.26692,9.8851 5.07056,2.3017 8.63334,2.4486 13.1924,0.5437 z m 1051.01578,-44.7522 c 1.4152,-0.6448 2.4138,-1.6498 2.2193,-2.2334 -0.1946,-0.5837 -3.2792,-2.1936 -6.8548,-3.5777 -11.1576,-4.3191 -29.9609,-14.6954 -42.3433,-23.3664 -3.85,-2.6961 -11.05,-8.7974 -16,-13.5584 -19.9732,-19.2109 -31.285,-28.1269 -63.2812,-49.8787 -10.8226,-7.3575 -14.0382,-8.8801 -16.6429,-7.8806 -1.2096,0.4642 -1.1345,1.5156 0.4901,6.8579 3.805,12.5126 2.2104,12.766 -9.8124,1.5596 -10.5341,-9.8189 -19.7796,-16.3127 -35.041,-24.6119 -18.3565,-9.9823 -19.9725,-7.9277 -5.7903,7.3619 7.1919,7.7535 14.2356,23.5 10.512,23.5 -1.8673,0 -5.3353,-2.2401 -7.264,-4.692 -1.0272,-1.3058 -4.0414,-3.4758 -6.6982,-4.8221 -2.6568,-1.3463 -5.1,-2.8838 -5.4293,-3.4166 -0.7751,-1.2542 -12.3579,-10.0693 -13.2308,-10.0693 -0.3661,0 -2.9486,-1.5193 -5.7388,-3.3762 -16.5357,-11.0043 -20.9881,-13.6238 -23.157,-13.6238 -4.2857,0 -2.6911,2.8072 6.9804,12.2883 16.9275,16.5944 25.5914,27.0729 25.5997,30.9617 0.01,2.9105 -1.7509,2.0519 -10.3058,-5.0361 -10.8949,-9.0267 -19.0459,-14.206 -22.4251,-14.2493 -1.521,-0.019 -3.8904,-0.6786 -5.2654,-1.4646 -1.375,-0.786 -2.8886,-1.4451 -3.3635,-1.4646 -1.1575,-0.048 -0.3107,4.4091 1.9342,10.1788 2.0182,5.1872 1.4453,7.0153 -1.3933,4.4463 -1.0092,-0.9133 -2.1466,-1.6605 -2.5276,-1.6605 -0.381,0 -3.4963,-2.2032 -6.9228,-4.896 -7.4395,-5.8465 -15.1586,-10.104 -18.3192,-10.104 -2.3897,0 -5.4078,3.3324 -5.4078,5.9711 0,0.8393 3.0742,4.4517 6.8314,8.0275 3.7573,3.5758 9.2282,9.4264 12.1575,13.0014 8.5272,10.4068 33.4711,34.5515 42.8715,41.4978 4.7518,3.5113 9.7646,7.2239 11.1396,8.2501 3.852,2.8751 10.8223,4.6445 12.5729,3.1916 2.0165,-1.6735 1.7947,-2.6381 -1.1945,-5.1961 -2.5787,-2.2067 -6.3784,-9.5497 -6.3784,-12.3263 0,-2.5724 2.1517,-1.4886 8.8705,4.4681 6.2809,5.5684 13.4406,9.0385 14.6411,7.0961 0.29,-0.4693 0.08,-2.7945 -0.4677,-5.1672 -1.4414,-6.2497 -1.3036,-9.8141 0.3795,-9.8141 0.7829,0 4.6449,3.1834 8.5824,7.0743 7.7895,7.6973 15.204,12.9074 18.44,12.9575 1.1298,0.017 2.9277,0.6925 3.9953,1.5 2.2954,1.7361 7.5589,1.9633 7.5589,0.3263 0,-0.6281 -1.704,-3.8906 -3.7867,-7.25 -9.0818,-14.649 -8.1671,-17.9749 2.7867,-10.1337 2.475,1.7717 6.8472,4.52 9.7161,6.1073 7.0915,3.9237 8.2393,2.7425 5.3215,-5.4759 -3.3273,-9.3716 -1.8731,-10.2645 6.1207,-3.7581 7.6002,6.186 11.5816,8.1131 13.49,6.5293 0.9916,-0.8231 1.3306,-2.2933 0.9942,-4.3129 -1.8108,-10.8719 -1.8327,-11.5641 -0.3653,-11.5641 2.6799,0 6.4967,3.9373 12.3599,12.7501 6.4923,9.7584 18.5646,22.9153 25.2429,27.5109 5.2808,3.6338 12.7322,4.913 13.7141,2.3543 0.3463,-0.9024 0.087,-2.2949 -0.5768,-3.0944 -0.6635,-0.7995 -1.0396,-1.9539 -0.8358,-2.5653 0.2038,-0.6115 4.1667,1.7086 8.8063,5.1556 4.9506,3.6779 11.5503,7.4799 15.974,9.2023 11.951,4.6532 31.0343,7.0123 36.517,4.5142 z m -749.95954,-9.2182 c 1.64352,-1.2017 1.7373,-1.7509 0.69113,-4.047 -2.43756,-5.3499 -1.73805,-6.5625 3.78559,-6.5625 2.74781,0 7.58531,0.8759 10.75,1.9464 23.27353,7.8726 24.73417,5.5757 7.21662,-11.3484 -6.02945,-5.8252 -10.96264,-10.9947 -10.96264,-11.4877 0,-1.1335 2.51586,-2.1176 5.33179,-2.0857 1.19251,0.014 4.82556,0.9135 8.07344,2 8.12045,2.7164 10.59477,2.6181 10.59477,-0.421 0,-2.4991 -4.03965,-6.6353 -10.82567,-11.0844 -5.05687,-3.3154 -17.96387,-6.6291 -28.26096,-7.2556 -7.90976,-0.4812 -9.0922,-0.2954 -15,2.357 -7.70414,3.4589 -15.02735,3.8452 -19.33902,1.0201 l -2.83769,-1.8594 4.106,-3.6406 c 4.36711,-3.8722 11.15734,-13.4307 11.15734,-15.706 0,-2.1419 -3.37682,-3.4101 -7.35941,-2.7638 -3.37886,0.5483 -3.64059,0.41 -3.64059,-1.9237 0,-1.6587 1.34249,-3.7273 3.94464,-6.0782 l 3.94465,-3.5638 6.30535,2.5502 c 9.05207,3.6611 13.44119,4.4731 22.37623,4.1397 9.84088,-0.3673 10.79014,-2.0132 4.38967,-7.6114 -2.31641,-2.026 -4.61149,-4.1337 -5.10018,-4.6837 -2.18572,-2.4599 -5.88951,-8.768 -6.44301,-10.9733 -0.74825,-2.9812 -3.72024,-5.0027 -8.71991,-5.931 -2.0914,-0.3883 -4.03531,-1.3126 -4.31978,-2.0539 -1.68345,-4.387 11.91457,-19.8001 25.48929,-28.8915 7.71942,-5.17 8.58249,-7.1238 4.12419,-9.3363 -3.39594,-1.6853 -5.99114,-5.0676 -5.99114,-7.8083 0,-2.0867 -0.5289,-2.3064 -6.46162,-2.6842 -3.55388,-0.2262 -6.7579,-0.7077 -7.12003,-1.0698 -1.47071,-1.4707 0.8845,-8.2545 3.91949,-11.2895 6.05514,-6.0552 20.80065,-8.3938 27.36075,-4.3395 2.79082,1.7249 4.21883,1.9801 7.61803,1.3615 7.35564,-1.3385 12.35977,-0.6691 22.8935,3.0623 15.031,5.3246 32.89515,9.7482 34.17957,8.4638 1.42865,-1.4286 -12.57632,-14.1491 -21.75455,-19.7592 -1.57567,-0.9631 -5.99303,-3.8364 -9.81635,-6.3851 -12.77398,-8.5153 -29.5252,-11.6601 -44.06879,-8.2733 -2.2759,0.53 -2.75,0.3056 -2.75,-1.3018 0,-1.0683 1.16776,-3.0332 2.59501,-4.3666 3.87511,-3.6202 5.39916,-7.1854 4.7587,-11.132 -0.52666,-3.2455 -0.24137,-3.7044 4.43828,-7.1396 7.3492,-5.3948 7.92917,-7.7046 2.70801,-10.7852 -1.925,-1.1358 -3.49606,-2.5831 -3.49125,-3.2163 0.005,-0.6331 2.59231,-2.8207 5.75,-4.8612 6.66059,-4.3041 12.24125,-9.2072 12.24125,-10.7551 0,-0.5928 -1.09769,-1.5779 -2.43931,-2.1892 -1.90817,-0.8694 -3.3279,-0.7559 -6.52024,0.5214 -2.24451,0.8981 -4.98974,1.6329 -6.10052,1.6329 -1.11079,0 -3.78375,0.9 -5.93993,2 -7.54929,3.8514 -8.80187,2.2328 -4.05935,-5.2454 3.54028,-5.5824 22.83644,-20.4346 27.74547,-21.3555 8.87946,-1.6658 6.01476,-6.4865 -7.9246,-13.3355 -15.21299,-7.4747 -16.7621,-8.5654 -16.75809,-11.7989 0.004,-3.156 4.90084,-15.7009 8.59128,-22.0091 1.36569,-2.3345 3.80905,-4.9302 5.42969,-5.7682 1.63912,-0.8476 3.23311,-2.6652 3.59226,-4.0962 0.72217,-2.8773 -1.18229,-10.3912 -2.63375,-10.3912 -0.51524,0 -1.65153,-1.0908 -2.52509,-2.424 -1.48547,-2.2671 -1.42757,-2.7688 0.89444,-7.75 6.39808,-13.7252 7.02178,-16.8166 3.39774,-16.8413 -3.79761,-0.026 -4.87677,-1.4373 -7.74262,-10.1263 -1.52067,-4.6106 -6.69734,-17.8274 -11.50372,-29.3706 -15.67605,-37.6485 -21.43672,-57.5702 -28.4794,-98.4878 -0.61533,-3.575 -2.4072,-10.325 -3.98195,-15 -9.2895,-27.578 -9.62472,-35.0961 -2.28519,-51.25 6.21047,-13.669 7.43324,-9.4524 5.1778,17.8548 -1.89049,22.8886 1.43141,34.5719 9.3779,32.9826 5.97877,-1.1957 6.59146,-2.6961 7.18539,-17.5954 0.74552,-18.7024 2.74326,-28.6597 7.82293,-38.992 3.18387,-6.4761 4.71459,-8.5761 6.42886,-8.8196 2.76882,-0.3932 2.81744,0.5908 0.50015,10.1222 -1.2816,5.2714 -1.7499,11.3452 -1.75,22.6974 -1.7e-4,17.3318 0.34465,19.3316 4.00907,23.25 3.04657,3.2578 6.69472,3.5461 9.49078,0.75 1.79664,-1.7966 2,-3.3333 2,-15.1133 0,-9.5804 0.53978,-15.4403 2.00347,-21.75 4.12319,-17.7745 5.54627,-21.1367 8.94626,-21.1367 2.28883,0 2.97157,2.4274 1.82823,6.5 -4.05803,14.4549 -5.01694,19.1697 -5.49488,27.0174 -0.55649,9.1375 1.47904,22.2861 3.90207,25.2057 1.45317,1.751 5.9027,1.6041 8.59806,-0.2838 3.74119,-2.6204 4.93304,-6.4565 5.68056,-18.2835 0.74,-11.7078 2.21478,-17.0178 5.80639,-20.9058 3.48642,-3.7742 6.3124,-2.9374 10.13241,3 3.88299,6.0353 7.12383,9.2247 10.3764,10.2116 3.19978,0.971 18.1337,19.1141 25.52518,31.0104 12.42968,20.0052 24.1636,43.0025 31.76391,62.2541 2.43757,6.1744 4.75853,11.2369 5.15769,11.25 1.02113,0.034 6.75772,-6.3736 9.99376,-11.1621 2.51135,-3.7161 2.6175,-4.2649 1.38672,-7.1691 -0.73304,-1.7297 -2.47889,-5.8449 -3.87966,-9.1449 -2.98415,-7.0302 -16.0506,-32.6968 -18.22785,-35.8053 -0.8243,-1.1768 -1.49872,-3.1646 -1.49872,-4.4172 0,-2.2308 0.22049,-2.2768 10.75,-2.2448 13.62958,0.042 24.08681,1.3755 26.03224,3.321 1.35244,1.3524 1.29314,2.6171 -0.55467,11.8303 -3.36946,16.8002 -5.57818,30.7987 -4.95742,31.4195 0.91955,0.9195 3.08341,-0.6351 11.44934,-8.2259 l 7.83066,-7.1052 2.2581,-10.3862 c 1.24195,-5.7124 2.71698,-11.9612 3.27785,-13.8862 0.56086,-1.925 2.82432,-9.7585 5.02991,-17.4077 2.20559,-7.6493 5.11436,-16.0868 6.46393,-18.75 2.25938,-4.4587 2.74323,-4.8423 6.10817,-4.8423 4.00622,0 7.31189,-2.3039 7.31189,-5.096 0,-2.3907 1.63759,-3.2908 2.39522,-1.3165 1.15793,3.0176 0.58718,24.9733 -0.88157,33.9125 -1.60101,9.7442 -1.96394,18.5204 -0.76365,18.4661 0.4125,-0.019 2.55,-0.9034 4.75,-1.9661 2.2,-1.0627 4.49679,-1.9474 5.10398,-1.9661 0.60718,-0.019 2.23765,-1.0846 3.62326,-2.3687 2.0883,-1.9354 2.71865,-3.8599 3.68468,-11.25 0.64097,-4.9034 1.823,-13.7221 2.62674,-19.5971 0.80374,-5.875 1.46134,-13.8322 1.46134,-17.6826 0,-6.0627 0.26129,-7.0837 1.95002,-7.6196 2.77494,-0.8808 7.9501,2.0978 9.17731,5.282 1.51482,3.9304 1.53548,15.8581 0.053,30.5938 -0.71333,7.0904 -0.91459,13.274 -0.44724,13.7414 1.11443,1.1144 14.20266,-1.6403 15.91125,-3.3489 1.45559,-1.4556 3.311,-16.4355 3.33833,-26.9524 0.0207,-7.9455 0.61333,-9.8318 3.08914,-9.8318 3.94538,0 5.14171,6.7155 4.13991,23.2393 -0.48234,7.9559 -0.37096,11.8699 0.3456,12.1447 0.58153,0.2229 8.79403,0.1618 18.25,-0.1358 12.592,-0.3964 17.19268,-0.8685 17.19268,-1.7644 0,-0.6728 -0.90314,-4.0503 -2.00698,-7.5057 -1.10384,-3.4553 -2.72267,-10.1514 -3.59741,-14.8802 -1.98787,-10.7465 -5.40074,-17.798 -12.19733,-25.2017 -6.80866,-7.4168 -9.59486,-8.3398 -22.59668,-7.4857 l -10.1016,0.6636 -4.99507,-4.1496 -4.99507,-4.1496 -8.23909,0.4325 c -7.48315,0.3927 -8.61044,0.7308 -12.28662,3.6851 l -4.04754,3.2527 -8.84232,-0.6917 c -11.14257,-0.8717 -14.60586,0.2148 -20.92138,6.5637 -5.86395,5.8948 -10.16024,14.3273 -13.75139,26.9901 -3.98713,14.0592 -3.24469,13.2999 -12.2583,12.5364 -4.21477,-0.3569 -15.43044,-1.0336 -24.9237,-1.5038 -20.56722,-1.0185 -20.87165,-1.1463 -32.60521,-13.6874 -4.34093,-4.6397 -10.80691,-10.5154 -14.36885,-13.0571 -6.59926,-4.7091 -10.26546,-10.3318 -10.26546,-15.7434 0,-2.1284 -3.12891,-7.1528 -5.4543,-8.7586 -0.56279,-0.3886 -4.85331,-1.8706 -9.53448,-3.2933 -9.84818,-2.993 -11.99139,-3.928 -17.68556,-7.7155 -5.70829,-3.7969 -8.4613,-4.7225 -17.25725,-5.8022 -4.16263,-0.511 -9.32162,-1.223 -11.46443,-1.5822 -2.14281,-0.3592 -6.19281,-0.1523 -9,0.4599 -2.80719,0.6121 -9.63032,1.5262 -15.16251,2.0313 -12.34695,1.1273 -17.36843,3.3099 -25.23613,10.9691 -9.83635,9.5757 -17.57131,28.3692 -18.78413,45.6395 -0.46367,6.6026 -1.37634,10.7315 -3.42617,15.5 -1.53678,3.575 -3.71768,8.7831 -4.84645,11.5735 -2.56141,6.332 -7.79783,23.8174 -9.69879,32.3861 -0.78818,3.5528 -1.84063,7.8278 -2.33877,9.5 -1.31872,4.4268 -3.6437,15.1729 -6.6076,30.5404 -1.43204,7.425 -3.45849,16.875 -4.50322,21 -1.75572,6.9323 -2.60926,11.6148 -6.6534,36.5 -2.55742,15.7369 -4.69079,35.6913 -6.36125,59.5 -0.55955,7.975 -1.4602,16.9451 -2.00146,19.9337 -0.54125,2.9885 -0.9841,9.7821 -0.9841,15.0969 0,8.3487 0.28268,9.9893 2.07787,12.0592 1.53052,1.7647 1.91974,3.1879 1.47757,5.403 -0.33016,1.654 -1.24791,11.1072 -2.03944,21.0072 -1.71236,21.4171 -2.53252,26.4441 -6.03657,37 -3.63305,10.9445 -3.14998,16.3278 1.87847,20.9337 2.00316,1.8348 3.6421,3.9853 3.6421,4.7788 0,1.561 -4.71397,13.6505 -5.96095,15.2875 -0.92863,1.2191 -4.39003,12.9838 -6.03152,20.5 -0.66064,3.025 -2.28259,10.1062 -3.60435,15.736 -1.32175,5.6299 -2.41811,11.7049 -2.43635,13.5 -0.0182,1.7952 -1.63309,7.314 -3.58854,12.264 -7.72496,19.5549 -7.65585,19.2585 -6.29589,27 0.67634,3.85 2.75721,10.3209 4.62415,14.3798 1.86695,4.0589 3.82781,9.6839 4.35747,12.5 2.19546,11.6728 6.28153,18.9191 11.67124,20.6978 2.8109,0.9277 4.5872,0.7733 10.08817,-0.8767 3.67212,-1.1015 8.44239,-2.3848 10.60062,-2.8518 4.98316,-1.0783 5.39308,-2.4472 1.3023,-4.3491 -2.31745,-1.0774 -3.36854,-2.3451 -3.7311,-4.5 -0.41342,-2.4572 -1.04667,-3.0562 -3.5,-3.3106 -5.66871,-0.5878 -10.29087,-2.2144 -10.91511,-3.8412 -1.13685,-2.9625 1.9863,-5.9443 8.08592,-7.7197 3.20867,-0.934 6.91233,-2.02 8.23036,-2.4133 1.31802,-0.3934 2.89302,-1.5481 3.5,-2.5661 0.91588,-1.5361 0.63415,-2.2084 -1.65644,-3.9528 -1.51801,-1.156 -4.21801,-2.581 -6,-3.1668 -2.50894,-0.8247 -3.18357,-1.5687 -2.98998,-3.2973 0.1375,-1.2277 0.3625,-3.2367 0.5,-4.4644 0.19699,-1.7589 -0.4922,-2.4747 -3.25,-3.3754 -5.36751,-1.7531 -5.13174,-4.4831 0.91488,-10.5936 3.93659,-3.9782 4.81706,-5.4169 3.95253,-6.4586 -1.48833,-1.7933 -6.27735,-1.6967 -9.94644,0.2007 -1.63884,0.8474 -3.41649,1.2709 -3.95034,0.9409 -1.62609,-1.0049 -1.08331,-5.2873 0.84605,-6.6751 0.99918,-0.7187 2.88204,-3.2192 4.18415,-5.5567 1.69339,-3.0399 3.00829,-4.25 4.61821,-4.25 5.84878,0 10.84175,-4.5349 8.32791,-7.5639 -1.86846,-2.2514 -5.80675,-1.6904 -8.4947,1.2099 -1.84068,1.9861 -2.45225,2.2416 -2.45225,1.0242 0,-2.4955 3.3568,-7.4563 8.91529,-13.1753 5.55152,-5.7118 9.02886,-12.2875 9.06275,-17.1379 0.0256,-3.6578 -1.41514,-4.4849 -6.40265,-3.6755 -6.02975,0.9785 -5.66459,-1.3124 2.93761,-18.43 8.97403,-17.8575 10.3981,-23.7995 6.3786,-26.6149 -1.28514,-0.9001 -3.30638,-1.6366 -4.49166,-1.6366 -2.95134,0 -4.75456,-2.4509 -4.00385,-5.442 1.20093,-4.7849 16.77361,-13.9581 28.86592,-17.0036 7.26149,-1.8289 7.73799,-2.1423 7.73799,-5.0904 0,-2.8749 -2.74913,-4.8491 -9,-6.4631 -2.475,-0.6391 -5.98822,-2.0257 -7.80716,-3.0814 -4.28793,-2.4887 -6.59478,-2.4215 -10.27481,0.2992 -2.36338,1.7473 -3.36398,1.9837 -4.70951,1.1123 -2.46808,-1.5983 -1.94987,-7.3123 0.87028,-9.5959 2.18303,-1.7677 2.29818,-1.7481 5.0127,0.8526 3.47116,3.3255 5.4746,2.922 14.05888,-2.8317 9.73297,-6.5238 8.9393,-9.9197 -3.15038,-13.4798 -5.78764,-1.7044 -6.48328,-2.1806 -6.34741,-4.3452 0.3974,-6.3311 2.86163,-11.6364 8.00364,-17.231 2.93191,-3.1899 5.60893,-6.9083 5.94893,-8.263 1.18743,-4.7311 -3.89894,-8.0016 -14.0639,-9.043 -4.21768,-0.4321 -6.91113,-1.1943 -7.23887,-2.0484 -0.28708,-0.7481 1.10245,-3.1582 3.08783,-5.3558 1.98538,-2.1975 3.60978,-4.6988 3.60978,-5.5584 0,-2.6711 -2.01166,-5.4853 -4.63356,-6.4822 -4.295,-1.6329 -2.58581,-4.2297 4.13356,-6.2801 13.03707,-3.9781 13.37622,-5.0381 4.09802,-12.8079 -9.44929,-7.9131 -10.00019,-10.3385 -3.70192,-16.2983 3.75709,-3.5552 3.86403,-5.354 0.6039,-10.158 -1.375,-2.0262 -2.49819,-4.8587 -2.49598,-6.2944 0.006,-3.7961 2.67537,-19.792 5.60918,-33.6105 1.40125,-6.6 3.14366,-15.15 3.87202,-19 2.10743,-11.1396 5.13753,-23.856 9.53132,-40 2.24534,-8.25 4.97698,-18.375 6.07031,-22.5 2.69646,-10.1734 3.9045,-13 5.55591,-13 1.99968,0 3.03937,3.2417 4.32977,13.5 1.41654,11.2611 9.84669,46.9 16.67635,70.5 1.92918,6.6663 8.67325,24.0712 14.33683,37 9.50717,21.703 12.20347,32.0894 11.59206,44.654 -0.32368,6.6518 -1.07203,10.4066 -2.89615,14.5312 -3.64002,8.2308 -13.68162,40.6796 -13.68162,44.2114 0,2.6316 1.94043,4.4783 7.20105,6.8534 4.28966,1.9367 7.22173,5.8426 6.37903,8.4977 -0.32217,1.0151 -2.87655,4.5246 -5.67639,7.7989 -2.79984,3.2744 -6.00631,7.8002 -7.12549,10.0574 l -2.03486,4.104 2.12833,6.15 c 1.17058,3.3825 2.12833,7.2955 2.12833,8.6956 0,3.0935 -2.07871,7.3027 -4.84094,9.8025 -3.1345,2.8366 -3.59333,6.8723 -1.29381,11.3798 1.09372,2.1438 2.69646,4.4854 3.56166,5.2034 2.6207,2.175 1.79148,5.613 -2.67691,11.0986 -16.6065,20.3868 -18.43253,23.6893 -16.69821,30.2005 0.62432,2.3439 2.04982,6.4022 3.16777,9.0185 l 2.03265,4.7569 -7.6261,7.9821 c -8.70778,9.1144 -9.53347,11.9486 -5.03751,17.2918 3.4926,4.1507 3.05245,5.8333 -6.59503,25.2123 -6.11251,12.2782 -9.36429,17.5496 -13.97945,22.6618 -3.30777,3.664 -6.01412,7.3158 -6.01412,8.1152 0,0.7993 0.90313,2.6014 2.00696,4.0047 2.37286,3.0166 1.66476,5.8606 -2.40086,9.6426 -1.43336,1.3334 -2.6061,3.4709 -2.6061,4.75 0,1.8667 0.54269,2.3287 2.75,2.341 3.34157,0.019 4.57979,0.7809 6.16934,3.798 1.09892,2.0858 0.81869,2.7472 -2.8503,6.7276 -5.7091,6.1937 -5.42905,7.4458 1.68096,7.5155 10.02475,0.098 16.5747,3.7291 10.73383,5.9497 -3.32946,1.2659 -14.8557,-0.5443 -16.56273,-2.6012 -1.50499,-1.8134 -4.34974,-1.7983 -5.86805,0.031 -2.00284,2.4133 0.33373,5.0286 5.72763,6.4111 6.03566,1.5468 9.21932,3.6619 9.21932,6.1249 0,1.3397 -2.44313,3.069 -8.75,6.1933 -13.9444,6.9078 -12.4024,8.5955 10.88391,11.9121 7.26456,1.0347 7.90593,0.9629 13.25585,-1.4842 9.70439,-4.4389 15.43343,-4.3566 26.11024,0.3752 7.7305,3.426 7.60611,3.4056 10.0193,1.641 z m -69.8318,-293.2553 c -1.41552,-1.4155 -0.61453,-3.3542 1.38582,-3.3542 1.39797,0 1.96801,0.5431 1.75,1.6671 -0.35694,1.8405 -2.064,2.7589 -3.13582,1.6871 z m 1078.37824,281.6106 c 1.0639,-0.5693 1.9343,-1.5064 1.9343,-2.0824 0,-0.989 3.3435,-8.9512 8.637,-20.5683 1.2996,-2.8523 2.363,-5.4084 2.363,-5.6803 0,-0.2718 1.2975,-3.3382 2.8834,-6.814 1.5858,-3.4759 5.6641,-12.8448 9.0628,-20.8198 3.3987,-7.975 7.2762,-16.8748 8.6166,-19.7773 1.3405,-2.9026 2.4372,-5.6305 2.4372,-6.0622 0,-0.4317 0.8601,-2.5651 1.9114,-4.7409 1.9124,-3.9582 27.118,-62.0738 35.096,-80.9196 2.3284,-5.5 5.124,-12.025 6.2126,-14.5 1.0886,-2.475 2.3588,-5.4 2.8227,-6.5 0.4638,-1.1 2.0418,-4.7 3.5066,-8 1.4648,-3.3 6.7131,-15.45 11.6629,-27 4.9498,-11.55 10.1252,-23.475 11.5008,-26.5 1.3757,-3.025 3.3031,-7.5276 4.2833,-10.0058 0.9801,-2.4782 3.4069,-8.0235 5.3928,-12.323 1.986,-4.2995 3.6109,-8.3694 3.6109,-9.0442 0,-0.6749 0.3857,-1.6545 0.8571,-2.177 0.4714,-0.5225 2.3297,-4.55 4.1296,-8.95 1.7998,-4.4 4.6128,-10.925 6.251,-14.5 1.6383,-3.575 3.7818,-8.525 4.7634,-11 0.9816,-2.475 2.9053,-6.975 4.2749,-10 1.3697,-3.025 7.9883,-18.325 14.7081,-34 6.7198,-15.675 13.0225,-30.3 14.0061,-32.5 0.9836,-2.2 5.9467,-13.675 11.0291,-25.5 5.0825,-11.825 10.2501,-23.75 11.4837,-26.5 5.4774,-12.2103 15.497,-36.3868 15.497,-37.3929 0,-0.7894 -10.563,-1.1071 -36.8076,-1.1071 h -36.8075 l -1.8829,4.25 c -1.0355,2.3375 -3.4045,7.85 -5.2643,12.25 -3.1747,7.5109 -4.2231,9.9601 -7.8733,18.3933 -0.8078,1.8663 -9.6056,22.3413 -19.5508,45.5 -9.9451,23.1587 -19.1026,44.3567 -20.3499,47.1067 -1.2472,2.75 -4.8194,11.075 -7.9382,18.5 -3.1187,7.425 -6.2952,14.85 -7.0589,16.5 -0.7637,1.65 -2.9185,6.6 -4.7885,11 -8.0288,18.8914 -22.0556,51.4148 -24.2723,56.2796 -1.3232,2.9038 -2.4058,5.5148 -2.4058,5.8022 0,1.8245 -6.4922,14.3239 -7.1127,13.6941 -0.4205,-0.4268 -5.0734,-12.0259 -10.3399,-25.7759 -5.2665,-13.75 -9.9704,-25.9 -10.4532,-27 -0.4828,-1.1 -2.7701,-6.95 -5.0829,-13 -4.4632,-11.6753 -8.0311,-20.8895 -15.2953,-39.5 -2.4689,-6.325 -12.0071,-31.075 -21.1961,-55 -9.1889,-23.925 -17.3401,-44.8066 -18.1135,-46.4036 -0.7735,-1.597 -1.4064,-3.329 -1.4064,-3.8489 0,-0.5199 -0.6375,-2.3632 -1.4166,-4.0964 -1.2478,-2.7756 -11.2414,-28.2733 -12.8952,-32.9011 -0.5808,-1.625 -3.3414,-1.75 -38.6568,-1.75 -22.9144,0 -38.0314,0.3715 -38.0314,0.9346 0,0.8833 11.2032,27.8104 18.3852,44.1895 0.874,1.9932 7.606,17.9682 14.9601,35.5 7.354,17.5317 14.2882,33.9009 15.4092,36.3759 1.1211,2.475 3.2517,7.425 4.7347,11 4.2556,10.2585 37.5462,89.2779 38.5488,91.5 0.9337,2.0696 13.4254,31.4619 14.875,35 0.4507,1.1 1.313,3.125 1.9163,4.5 2.2665,5.1657 19.1159,45.0236 24.5605,58.0984 l 5.6625,13.5985 -3.1044,6.9015 c -1.7074,3.7959 -9.847,22.6516 -18.0879,41.9016 -8.2409,19.25 -15.8039,36.8 -16.8066,39 -1.0026,2.2 -3.0465,6.925 -4.5418,10.5 -2.7023,6.4607 -5.4279,12.7619 -8.0019,18.5 -7.4131,16.5249 -15.49,36.7229 -15.0012,37.5137 0.8502,1.3757 69.9824,1.3291 72.5572,-0.049 z m -561.0657,-8.2841 c 0,-1.703 -8.8207,-14.3979 -10.4341,-15.017 -2.4239,-0.9302 -4.2678,0.2023 -5.6115,3.4464 -1.6202,3.9114 -4.273,5.3112 -7.2044,3.8015 -1.2375,-0.6373 -7.0203,-5.8281 -12.8506,-11.5352 -5.8303,-5.707 -11.1178,-10.3764 -11.75,-10.3764 -1.3749,0 -1.5583,7.7943 -0.2635,11.1998 1.3909,3.6585 9.9094,12.5959 14.6576,15.3786 2.5645,1.5029 6.8743,2.8454 10.6343,3.3127 8.7067,1.082 22.8222,0.9519 22.8222,-0.2104 z m 1251.9358,-41.7971 c 7.4603,-2.2641 14.4642,-4.4887 15.5642,-4.9438 1.1,-0.455 8.075,-2.7049 15.5,-4.9999 7.425,-2.2949 13.7011,-4.3588 13.9468,-4.5864 0.2458,-0.2276 -0.319,-2.7628 -1.255,-5.6337 -1.9475,-5.973 -7.6263,-24.0558 -13.73,-43.7198 -2.3047,-7.425 -5.6634,-18 -7.4638,-23.5 -1.8005,-5.5 -5.1575,-16.075 -7.4602,-23.5 -2.3026,-7.425 -4.5758,-14.625 -5.0514,-16 -0.4757,-1.375 -2.7281,-8.575 -5.0054,-16 -2.2772,-7.425 -5.0045,-16.005 -6.0607,-19.0666 -1.0562,-3.0616 -1.9203,-5.8741 -1.9203,-6.25 0,-1.3365 2.179,-0.6496 5.3167,1.676 4.92,3.6467 18.4747,10.5728 25.6833,13.1235 17.416,6.1625 27.9897,7.9458 46,7.7582 41.6895,-0.4343 82.1243,-18.9062 110.1269,-50.3095 20.2164,-22.6716 34.7997,-56.3876 37.8865,-87.5922 0.4809,-4.8617 1.193,-11.6925 1.5824,-15.1797 1.073,-9.6093 -1.6247,-32.0361 -6.5942,-54.8187 -1.6549,-7.5868 -10.1173,-28.6764 -16.1779,-40.3177 -15.2731,-29.3368 -36.1769,-52.2418 -62.3237,-68.2904 -8.5768,-5.2643 -23.5849,-12.7329 -25.5866,-12.7329 -0.5173,0 -1.7219,-0.4101 -2.677,-0.9113 -2.0026,-1.0511 -8.9356,-3.3519 -14.7364,-4.8906 -22.5387,-5.9784 -52.0903,-5.5359 -76.5,1.1455 -24.1854,6.62 -45.4465,18.8037 -62.0215,35.5414 -13.1534,13.2827 -20.9957,25.5078 -30.1218,46.9559 l -1.4215,3.3408 -1.1412,-2.3408 c -1.1673,-2.3945 -13.5452,-32.9282 -14.6306,-36.0909 -0.6728,-1.9603 -2.4613,-2.2057 -5.8663,-0.8052 -2.0841,0.8572 -16.0262,5.2506 -37.2971,11.7529 -10.6977,3.2702 -13.5,4.3861 -13.5,5.3759 0,0.457 2.9654,10.1899 6.5898,21.6287 6.345,20.0247 8.6237,27.2938 13.8086,44.0477 4.5027,14.5497 6.808,21.7489 7.605,23.75 0.4381,1.1 1.5509,4.7 2.473,8 0.922,3.3 2.0391,6.9 2.4824,8 0.9215,2.2865 4.0399,12.0818 10.0284,31.5 2.2898,7.425 5.8791,18.9 7.9763,25.5 2.0971,6.6 5.0288,16.05 6.5148,21 1.4859,4.95 3.0808,9.9 3.5441,11 0.4633,1.1 1.9526,5.6 3.3096,10 1.357,4.4 4.3377,14.075 6.6239,21.5 2.2862,7.425 4.529,14.4 4.9842,15.5 0.4552,1.1 1.6179,4.7 2.5838,8 0.966,3.3 2.0867,6.9 2.4905,8 0.4038,1.1 2.5498,7.85 4.7688,15 2.2191,7.15 5.8728,18.85 8.1195,26 2.2467,7.15 5.2681,16.825 6.7142,21.5 1.4462,4.675 2.9896,9.4 3.4298,10.5 0.4403,1.1 1.5549,4.7 2.4769,8 0.9221,3.3 2.0285,6.9 2.4588,8 0.9841,2.5154 4.6462,14.089 9.9673,31.5 2.2692,7.425 4.5589,14.2814 5.0881,15.2364 0.5292,0.9551 0.9622,2.2487 0.9622,2.8747 0,1.8172 7.2365,23.8889 7.8322,23.8889 0.2967,0 6.6433,-1.8524 14.1036,-4.1164 z m 50.0642,-206.514 c -17.4862,-2.5042 -26.9378,-5.2074 -36.8323,-10.5344 -21.4492,-11.5478 -39.5258,-32.2894 -48.6612,-55.8352 -0.9603,-2.475 -2.1178,-5.4 -2.5724,-6.5 -0.4545,-1.1 -1.5674,-4.7 -2.4729,-8 -0.9056,-3.3 -2.1656,-7.8 -2.8,-10 -1.6459,-5.7077 -1.5072,-35.6982 0.1943,-42 2.8001,-10.3706 4.3887,-15.1564 6.7308,-20.2773 1.3275,-2.9026 2.4137,-5.4855 2.4137,-5.7398 0,-1.7056 10.358,-16.0785 15.3971,-21.3653 13.8929,-14.5757 29.0901,-23.1334 51.1029,-28.7766 9.8816,-2.5333 34.0348,-2.4624 44.5,0.1306 29.966,7.4247 54.8093,27.8831 69.2516,57.0284 15.1874,30.6491 15.281,67.7558 0.246,97.5225 -11.8868,23.5339 -34.4044,42.0909 -61.0811,50.3377 -11.3741,3.5162 -26.7254,5.2541 -35.4165,4.0094 z m 15.3636,-60.8585 c 8.6702,-1.8369 13.5396,-4.7328 21.333,-12.6868 5.6997,-5.8172 6.4095,-7.046 8.8518,-15.3243 3.2199,-10.9136 3.3241,-17.7076 0.4141,-27 -6.6562,-21.255 -18.2039,-32.2491 -36.4315,-34.6848 -21.7432,-2.9054 -38.3898,8.0788 -43.0067,28.3779 -2.8843,12.681 -1.3232,23.3114 5.3682,36.5552 7.3999,14.6463 13.008,20.1323 24.6862,24.1484 7.0831,2.4358 9.7726,2.5238 18.7849,0.6144 z M 698.77353,2054.9623 c 0.42563,-0.6887 -8.78099,-11.2286 -15.85437,-18.1504 -0.84307,-0.825 -4.84917,-4.7625 -8.90244,-8.75 -4.05327,-3.9875 -8.038,-7.25 -8.85494,-7.25 -4.38779,0 -6.95188,9.292 -4.31109,15.6231 3.33835,8.0034 11.2264,13.4804 23.56474,16.3622 2.99807,0.7002 6.57603,1.6294 7.95103,2.065 3.41032,1.0801 5.77848,1.1171 6.40707,0.1001 z m 766.48617,-7.4236 c -2.5337,-2.3247 -6.4978,-5.737 -8.809,-7.5828 -3.8511,-3.0756 -4.0733,-3.4986 -2.6589,-5.0614 2.9986,-3.3134 0.4207,-8.2753 -10.0835,-19.4091 -3.0234,-3.2045 -5.2683,-6.4227 -4.9886,-7.1514 0.5972,-1.5565 -2.2408,-2.489 -7.6346,-2.5084 -2.4011,-0.01 -3.9857,0.5188 -4.3411,1.4451 -0.8918,2.3239 1.5509,8.4958 6.262,15.8224 2.3983,3.7296 4.3605,6.9921 4.3605,7.25 0,0.9696 -5.5066,0.4144 -10.4121,-1.05 -11.0936,-3.3115 -63.6516,-15.7675 -73.5599,-17.4333 -5.7904,-0.9735 -12.6408,-2.7325 -15.2231,-3.909 -4.5566,-2.0758 -5.9138,-2.1384 -46,-2.1236 -22.7177,0.01 -41.8881,0.3853 -42.6009,0.8375 -3.2748,2.0774 42.6708,13.1253 63.296,15.2199 5.5,0.5585 14.95,1.8799 21,2.9364 13.1446,2.2954 30.2921,5.2076 44,7.4726 10.7842,1.7819 21.042,3.9416 43,9.0536 7.7,1.7926 16.475,3.7679 19.5,4.3896 14.6081,3.002 20.6674,4.3828 22.5,5.1273 1.1,0.4468 3.125,0.8325 4.5,0.8569 2.3218,0.041 2.1716,-0.2568 -2.1068,-4.1823 z m 30.9196,-9.469 c 0.5254,-5.4462 -4.8474,-13.8936 -15.6275,-24.5703 -5.3269,-5.2758 -10.9761,-10.5883 -12.5537,-11.8057 l -2.8684,-2.2133 -5.7585,3.1658 c -4.0822,2.2442 -7.0803,3.1657 -10.2998,3.1657 -2.4977,0 -5.2998,0.291 -6.2267,0.6468 -1.3501,0.518 -1.0746,0.9035 1.385,1.9377 7.9759,3.3536 27.2614,16.5891 36.0133,24.7157 8.1865,7.6015 9.896,8.7592 12.5505,8.5 2.6592,-0.2598 3.1151,-0.7368 3.3858,-3.5424 z m -561.90909,-40.3478 c 25.59786,-2.5944 50.11616,-12.3425 71.09629,-28.2665 7.1237,-5.407 21.4666,-19.7694 25.1621,-25.1965 1.2859,-1.8884 2.8189,-3.4364 3.4068,-3.4402 0.6712,0 1.5663,6.7828 2.406,18.2432 0.7353,10.0375 1.6043,20.5 1.9311,23.25 l 0.594,5 h 33 33 l 0.2528,-176.2635 0.2528,-176.2635 -33.2528,0.2635 -33.2528,0.2635 -0.594,5 c -0.3268,2.75 -1.1958,13.2125 -1.9311,23.25 -0.9597,13.0981 -1.6859,18.25 -2.5727,18.25 -0.6795,0 -1.3855,-0.4232 -1.5689,-0.9403 -0.9193,-2.5935 -12.2653,-15.0756 -19.3333,-21.2693 -7.2011,-6.3104 -21.54123,-16.7904 -22.97473,-16.7904 -0.3108,0 -2.2436,-1.0584 -4.2952,-2.3519 -5.2233,-3.2934 -20.6232,-9.3176 -29.9142,-11.7021 -24.6838,-6.3348 -54.66925,-6.7345 -79.31591,-1.057 -42.94185,9.8918 -79.63168,36.3963 -104.47859,75.4746 -9.21264,14.4893 -20.30832,40.5854 -23.65582,55.6364 -1.90229,8.5531 -3.90658,19.526 -4.84043,26.5 -1.17134,8.7475 -1.21333,41.7972 -0.0642,50.5 1.83299,13.8816 3.18774,21.5703 4.09424,23.2364 0.51962,0.9551 0.94477,2.5767 0.94477,3.6037 0,7.2454 14.86037,42.9909 23.65719,56.9056 11.50909,18.2049 29.86989,37.8751 46.34281,49.6478 17.38998,12.4281 40.41819,22.2995 62,26.5771 18.95667,3.7573 31.51108,4.209 53.90375,1.9394 z m -19.90375,-70.5154 c -15.10243,-1.8162 -31.54194,-6.8593 -42.94348,-13.1737 -23.52405,-13.0282 -43.06179,-36.7947 -51.50134,-62.6486 -5.65531,-17.3246 -6.03628,-19.9126 -6.046,-41.0723 -0.006,-12.1117 0.44427,-21.5777 1.1405,-24 4.38591,-15.2595 5.98456,-19.9127 9.28333,-27.0207 15.61277,-33.6416 45.70046,-56.6945 82.36079,-63.1042 13.27911,-2.3217 33.86895,-1.3961 46.70621,2.0995 37.9812,10.3425 66.05633,39.4901 76.59933,79.5254 2.2054,8.3744 4.4007,25.4258 4.4007,34.1807 0,23.2042 -8.4402,51.3241 -20.9215,69.7038 -9.6391,14.1941 -25.26933,27.7928 -39.86733,34.6856 -4.2411,2.0026 -8.428,4.0032 -9.3041,4.4458 -0.876,0.4426 -6.276,1.953 -11.99995,3.3565 -10.19312,2.4992 -29.47368,4.0364 -37.90716,3.0222 z m 24.14477,-19.1394 c 0.50518,-0.5051 0.45125,-5.955 -0.12684,-12.817 -0.55315,-6.566 -1.44256,-32.4132 -1.97648,-57.4382 -0.53391,-25.025 -1.42667,-52.25 -1.98391,-60.5 -0.55723,-8.25 -1.26593,-26.0094 -1.57489,-39.4654 -0.40241,-17.5261 -0.90507,-24.6836 -1.77219,-25.2347 -0.66575,-0.4231 -3.97311,-0.7762 -7.34968,-0.7846 -10.51689,-0.026 -10.21351,-0.956 -9.29462,28.4847 0.42916,13.75 1.30415,32.2 1.94442,41 0.64027,8.8 1.33738,34.9 1.54913,58 0.21175,23.1 0.83355,45.375 1.38177,49.5 0.54822,4.125 1.01066,9.6671 1.02764,12.3157 0.017,2.6487 0.52951,5.7475 1.13894,6.8862 1.01559,1.8977 1.736,2.0229 8.63294,1.5013 4.13868,-0.313 7.92038,-0.9646 8.40377,-1.448 z m -94.32869,-54.5504 c 0.17384,-0.8963 -1.55058,-4.8257 -3.83206,-8.7322 -2.28147,-3.9064 -3.90033,-7.7483 -3.59746,-8.5376 0.30287,-0.7892 1.80229,-1.4419 3.33206,-1.4503 4.2676,-0.024 5.66247,-1.3302 4.85488,-4.5479 -0.70342,-2.8026 -7.61916,-13.815 -11.57823,-18.4368 l -2.14154,-2.5 0.48812,10.5 c 0.26847,5.775 1.17792,12.525 2.021,15 0.84308,2.475 2.48726,7.6412 3.65373,11.4803 1.16648,3.8392 2.60748,7.5667 3.20223,8.2833 1.35217,1.6293 3.18022,1.0912 3.59727,-1.0588 z m 605.69446,132.0452 c 0.3017,-1.2375 0.4228,-16.65 0.269,-34.25 l -0.2795,-32 -82,-0.5 c -53.9648,-0.3291 -81.8985,-0.8419 -81.7032,-1.5 0.2637,-0.8883 4.9183,-9.339 10.725,-19.4719 1.1119,-1.9405 4.6652,-8.2531 7.8961,-14.0281 3.2308,-5.775 7.3477,-12.975 9.1486,-16 3.1042,-5.2143 20.4237,-35.5651 33.9532,-59.5 3.4198,-6.05 11.5203,-20.225 18.0009,-31.5 6.4807,-11.275 12.5442,-21.85 13.4745,-23.5 0.9304,-1.65 7.222,-12.675 13.9815,-24.5 14.7507,-25.8046 14.8919,-26.053 18.7557,-33 1.6825,-3.025 5.806,-10.1492 9.1634,-15.8315 3.3574,-5.6823 6.1043,-10.463 6.1043,-10.6237 0,-0.1608 2.9665,-5.4116 6.5923,-11.6686 3.6257,-6.2569 7.9072,-13.9637 9.5144,-17.1262 l 2.9221,-5.75 h -134.5144 -134.5144 v 34.5 34.5 h 76 c 68.9587,0 76,0.148 76,1.5979 0,0.8789 -6.4762,12.9164 -14.3916,26.75 -7.9155,13.8337 -15.6257,27.4021 -17.1339,30.1521 -1.5082,2.75 -3.0892,5.45 -3.5133,6 -0.6899,0.8947 -18.7511,32.4373 -35.5009,62 -3.4278,6.05 -7.7924,13.7 -9.6991,17 -1.9066,3.3 -7.0798,12.3 -11.496,20 -4.4161,7.7 -8.9785,15.575 -10.1387,17.5 -1.1601,1.925 -2.4282,4.175 -2.8181,5 -0.3898,0.825 -3.8132,6.9 -7.6075,13.5 -3.7943,6.6 -7.9193,13.8 -9.1668,16 -1.2474,2.2 -10.3839,18.175 -20.3033,35.5 -9.9194,17.325 -17.8277,31.8375 -17.574,32.25 0.2537,0.4125 63.2011,0.75 139.8832,0.75 h 139.4219 z m -295.5584,-8.1568 c 2.423,-4.713 4.1285,-8.8459 3.7901,-9.1843 -1.2152,-1.2152 -26.2386,-3.0898 -33.4922,-2.509 -1.9536,0.1564 -1.7438,17.9734 0.2205,18.7272 1.474,0.5656 23.5691,2.1342 24.5528,1.7431 0.2879,-0.1144 2.5058,-4.0641 4.9288,-8.777 z m 1525.7777,-21.0175 c 2.0736,-0.7834 7.3702,-2.5267 11.7702,-3.8741 33.4432,-10.2407 40.6201,-12.5866 41.7918,-13.6599 0.4355,-0.399 0.1502,-2.709 -0.6341,-5.1335 -0.7843,-2.4245 -2.8673,-9.1332 -4.6289,-14.9082 -1.7616,-5.775 -3.5833,-11.625 -4.0483,-13 -1.4288,-4.225 -8.5659,-26.7736 -12.9773,-41 -2.3024,-7.425 -5.6547,-18 -7.4496,-23.5 -1.7949,-5.5 -4.2829,-13.375 -5.5288,-17.5 -1.2459,-4.125 -4.1812,-13.35 -6.5228,-20.5 -5.3585,-16.3614 -6.2069,-20.0463 -4.3589,-18.932 0.7463,0.4501 3.6741,2.2912 6.5062,4.0915 13.2469,8.4204 29.6623,14.8354 45.4286,17.7531 16.0147,2.9636 41.7433,1.855 57.4221,-2.4742 9.7624,-2.6956 15.0691,-4.407 15.95,-5.1438 0.5225,-0.437 1.5592,-0.7946 2.3039,-0.7946 2.5872,0 21.7991,-9.8884 30.7461,-15.825 28.691,-19.0376 51.0013,-50.7707 60.5862,-86.175 5.2396,-19.3536 7.31,-48.1507 4.8956,-68.091 -5.8633,-48.4251 -30.0884,-94.1457 -65.4818,-123.5855 -10.9404,-9.1002 -27.9027,-19.2899 -40.5,-24.3296 -3.025,-1.2102 -6.4,-2.5796 -7.5,-3.0433 -4.6261,-1.9498 -18.3682,-5.3708 -27.6153,-6.8747 -8.4189,-1.3692 -34.7218,-1.3954 -42.4679,-0.042 -42.5063,7.4249 -74.1847,26.0812 -95.5149,56.2516 -5.346,7.5616 -15.9019,28.26 -15.9019,31.181 0,4.3346 -2.9495,-0.222 -7.7973,-12.0459 -2.9135,-7.1061 -6.4655,-15.7653 -7.8933,-19.2426 -2.9828,-7.2645 -1.4665,-7.0724 -17.3094,-2.1933 -31.9497,9.8396 -39.5905,12.3062 -40.3608,13.0293 -0.8593,0.8066 0.5377,6.0971 6.8617,25.9864 5.0121,15.7634 14.5284,46.0241 15.7239,50 0.5788,1.925 1.4022,4.4 1.8299,5.5 0.4277,1.1 2.6458,8.075 4.9292,15.5 2.2833,7.425 4.54,14.625 5.0148,16 0.4748,1.375 3.1629,9.925 5.9736,19 2.8107,9.075 5.7282,18.3 6.4834,20.5 0.7552,2.2 2.4914,7.6 3.8583,12 9.0276,29.0598 11.1244,35.7549 13.1538,42 1.251,3.85 3.513,11.05 5.0265,16 1.5136,4.95 3.1088,9.9 3.545,11 0.4361,1.1 2.679,8.075 4.984,15.5 6.3659,20.5053 8.836,28.393 12.9962,41.5 2.0949,6.6 4.9242,15.6 6.2875,20 3.4485,11.1303 12.4114,39.5816 15.1212,48 1.2393,3.85 3.4983,11.05 5.0201,16 1.5218,4.95 3.1307,9.9 3.5754,11 0.4447,1.1 2.6858,8.075 4.9801,15.5 5.6137,18.1669 6.2715,20 7.1769,20 0.4283,0 2.4754,-0.6409 4.5491,-1.4243 z m 60.7702,-209.318 c -16.3019,-0.7899 -36.1506,-7.8189 -49.9195,-17.6779 -21.2267,-15.199 -36.8967,-40.2743 -44.3434,-70.9586 -2.4553,-10.1172 -2.3652,-37.4719 0.1536,-46.6212 6.1789,-22.4444 13.4102,-34.9824 28.3087,-49.0833 8.2667,-7.8241 13.3845,-11.448 22.8006,-16.1446 14.8844,-7.4243 29.0253,-10.7721 45.5,-10.7721 16.4484,0 28.1449,2.7097 44,10.1934 26.817,12.6578 48.7653,40.427 56.3594,71.3066 3.1237,12.7016 4.1159,26.688 2.7135,38.25 -3.294,27.1576 -13.0983,47.0319 -32.0729,65.0148 -18.2164,17.2644 -47.3365,27.7607 -73.5,26.4929 z m 16.5685,-61.8692 c 12.4765,-3.7018 19.3884,-9.2719 24.1673,-19.4758 4.6388,-9.9047 6.0214,-22.8102 3.6546,-34.1135 -1.4229,-6.7952 -7.361,-18.2031 -11.7704,-22.6126 -5.2093,-5.2093 -14.53,-10.8456 -20.1743,-12.1996 -5.0692,-1.2161 -15.557,-0.7662 -23.4061,1.0041 -8.3736,1.8885 -20.5009,13.4451 -23.6207,22.5089 -0.8769,2.5477 -1.3531,8.1753 -1.3116,15.5 0.06,10.5522 0.3302,12.1555 3.2802,19.4536 7.3692,18.2306 15.9927,27.6675 27.83,30.4548 6.1169,1.4404 15.5153,1.2115 21.351,-0.5199 z m -1246.9996,169.0495 c -50.3938,-119.4733 -49.5695,-117.5582 -50.6259,-117.6251 -0.821,-0.052 -69.3532,118.8549 -69.4141,120.4371 -0.016,0.4125 5.4836,0.7676 12.2211,0.7891 22.1591,0.071 55.1253,1.8689 62.0369,3.3841 10.563,2.3156 19.2259,7.0971 27.3103,15.074 9.7688,9.639 14.9851,20.6141 17.8246,37.5028 0.4949,2.9434 1.821,4.4085 8.3385,9.2123 4.2625,3.1418 13.3727,10.8496 20.2449,17.1284 6.8721,6.2788 12.5977,11.3304 12.7235,11.2257 0.1258,-0.1048 -18.1711,-43.8125 -40.6598,-97.1284 z m -323.8314,-20.438 c 9.6325,-16.775 22.518,-39.275 28.6345,-50 l 11.1209,-19.5 -28.2569,-0.5429 c -15.5413,-0.2987 -28.8147,-0.8877 -29.4965,-1.3091 -0.98,-0.6056 -1.2395,10.1757 -1.2395,51.493 0,29.3294 0.3782,51.8422 0.862,51.309 0.4741,-0.5225 8.7431,-14.675 18.3755,-31.45 z M 3004.8658,1727.721 c 7.1504,-2.2499 13.9007,-4.4369 15.0007,-4.8599 1.1,-0.423 4.7,-1.5593 8,-2.5253 3.3,-0.9659 6.9,-2.1005 8,-2.5212 2.0952,-0.8015 20.6296,-6.6274 38.5,-12.1018 5.775,-1.7692 18.6,-5.845 28.5,-9.0575 9.9,-3.2124 18.5686,-5.8414 19.2636,-5.8421 0.6949,-7e-4 2.0449,-0.4343 3,-0.9635 0.955,-0.5292 7.8114,-2.7962 15.2364,-5.0378 7.425,-2.2416 14.2814,-4.5086 15.2364,-5.0378 0.9551,-0.5292 2.3411,-0.9622 3.0802,-0.9622 0.739,0 8.2826,-2.2484 16.7635,-4.9964 17.358,-5.6244 19.101,-6.1738 37.9199,-11.9537 18.3117,-5.624 18.2633,-5.601 17.4852,-8.308 -1.0679,-3.7153 -8.5968,-28.0573 -9.5083,-30.7419 -0.4669,-1.375 -2.5088,-7.7875 -4.5376,-14.25 -4.0728,-12.9732 -3.9545,-12.8681 -11.6544,-10.347 -2.3567,0.7717 -10.3599,3.3017 -17.7849,5.6224 -18.6258,5.8213 -33.3606,10.4594 -47.5,14.9515 -14.0629,4.4678 -23.0372,7.2818 -41.5,13.0129 -7.425,2.3048 -15.525,4.8734 -18,5.7081 -10.8869,3.6716 -10.3246,3.6995 -9.6924,-0.4812 0.3091,-2.0442 1.2758,-6.8667 2.1482,-10.7167 2.503,-11.0466 3.2546,-14.4614 5.062,-23 0.9314,-4.4 2.0559,-9.575 2.4989,-11.5 1.2937,-5.6215 4.0434,-18.1609 4.9338,-22.5 1.3424,-6.5409 4.1702,-19.7422 5.0338,-23.5 0.4425,-1.925 1.5649,-7.1 2.4944,-11.5 0.9294,-4.4 2.2666,-10.7 2.9716,-14 0.7049,-3.3 2.2645,-10.725 3.4657,-16.5 1.2013,-5.775 3.102,-14.325 4.2238,-19 1.1219,-4.675 2.4144,-10.525 2.8723,-13 0.4579,-2.475 1.5651,-7.65 2.4606,-11.5 0.8954,-3.85 2.0278,-9.025 2.5163,-11.5 0.4885,-2.475 2.0722,-9.9 3.5194,-16.5 1.4472,-6.6 2.8495,-13.125 3.1162,-14.5 0.6403,-3.3004 3.3423,-15.583 4.3998,-20 0.4608,-1.925 1.5705,-7.1 2.4659,-11.5 0.8954,-4.4 2.0316,-9.8 2.525,-12 5.5752,-24.8611 5.4457,-23.7681 2.7224,-22.9765 -4.3298,1.2587 -8.3105,2.4947 -15.7377,4.8864 -4.125,1.3283 -14.925,4.7414 -24,7.5846 -9.075,2.8432 -21.9,6.89 -28.5,8.9928 -6.6,2.1028 -18.075,5.7056 -25.5,8.0061 -18.2798,5.6637 -29.0985,9.0927 -31.5,9.9841 -1.1,0.4083 -4.7,1.5326 -8,2.4986 -3.3,0.9659 -6.9,2.1037 -8,2.5283 -1.8396,0.7102 -15.2421,4.9452 -36.5,11.5335 -4.675,1.4489 -15.25,4.7905 -23.5,7.4259 -23.511,7.5102 -25.2763,8.0362 -26.9693,8.0362 -2.5641,0 -2.7685,2.3386 -0.7532,8.6163 1.0389,3.236 3.1373,9.9337 4.6633,14.8837 1.5259,4.95 3.116,9.9 3.5336,11 1.9234,5.0669 7.0256,21.7038 7.0256,22.9086 0,3.5213 2.5832,3.6349 12.6052,0.5545 5.4421,-1.6727 10.6762,-3.4737 11.6312,-4.0022 0.9551,-0.5285 2.3051,-0.9583 3,-0.9552 0.695,0 8.2386,-2.2203 16.7636,-4.9411 25.86,-8.2531 55.7423,-17.6549 70,-22.024 7.425,-2.2753 14.5337,-4.5652 15.7971,-5.0888 3.8411,-1.5917 4.5087,-1.196 3.8776,2.2982 -0.6124,3.3911 -4.7494,22.7087 -9.2622,43.25 -1.45,6.6 -3.0068,13.8 -3.4596,16 -0.4528,2.2 -1.5714,7.375 -2.4858,11.5 -0.9143,4.125 -2.0393,9.3 -2.5,11.5 -0.4606,2.2 -1.5856,7.375 -2.5,11.5 -0.9143,4.125 -2.0393,9.3 -2.5,11.5 -0.4606,2.2 -1.5856,7.375 -2.5,11.5 -0.9143,4.125 -2.0275,9.3 -2.4736,11.5 -0.4461,2.2 -2.0179,9.4 -3.4929,16 -1.4749,6.6 -3.0736,13.8 -3.5525,16 -0.4789,2.2 -1.5698,7.15 -2.4242,11 -0.8544,3.85 -2.1816,10.15 -2.9493,14 -0.7677,3.85 -2.7962,13.3 -4.5077,21 -1.7115,7.7 -3.8007,17.15 -4.6426,21 -0.8419,3.85 -2.1286,9.7 -2.8594,13 -0.7308,3.3 -1.8654,8.7 -2.5214,12 -0.656,3.3 -1.5811,7.575 -2.0557,9.5 -1.1129,4.513 -3.6555,16.5662 -4.3772,20.75 -0.7345,4.2579 -0.2302,4.2312 15.8887,-0.8409 z M 756.93714,1693.11 c 3.23724,-6.1021 3.3777,-6.7282 1.94891,-8.6871 -0.84687,-1.161 -1.9356,-3.011 -2.41939,-4.111 -0.4838,-1.1 -3.6867,-7.175 -7.11757,-13.5 -3.43087,-6.325 -8.05248,-14.875 -10.27024,-19 -2.21776,-4.125 -5.03159,-8.85 -6.25295,-10.5 -1.22135,-1.65 -3.88748,-6.15 -5.92473,-10 -2.03725,-3.85 -4.54845,-7.87 -5.58045,-8.9333 -1.80967,-1.8645 -1.90153,-1.8677 -2.58432,-0.088 -0.38937,1.0147 0.019,4.3597 0.9074,7.4333 0.88844,3.0736 2.59342,8.9634 3.78886,13.0884 1.19543,4.125 2.98908,9.525 3.98589,12 1.98849,4.9373 3.34454,15 2.0214,15 -1.24238,0 -14.32324,-16.7516 -17.56956,-22.5 -1.55304,-2.75 -4.3857,-6.6543 -6.2948,-8.6763 -1.9091,-2.022 -5.13303,-6.747 -7.1643,-10.5 -3.87144,-7.153 -7.04483,-9.4268 -7.04483,-5.0477 0,7.4129 29.27405,50.2288 37.11454,54.2832 2.89527,1.4972 6.64159,8.3727 16.30729,29.9281 l 2.68476,5.9872 2.98771,-4.8002 c 1.64324,-2.6401 4.55761,-7.7594 6.47638,-11.3762 z M 564.11363,1576.5619 c 0.54562,-0.6875 1.30573,-2.9887 1.68911,-5.1138 1.37628,-7.6288 6.67389,-22.0563 10.29564,-28.0392 7.09537,-11.7209 17.14243,-20.6149 27.68692,-24.5093 21.16509,-7.8168 48.78694,-6.4886 74.08116,3.5623 7.06475,2.8072 7.85429,3.1479 16.99972,7.3344 10.43194,4.7755 13.5263,7.4235 17.60296,15.0633 3.5907,6.7291 15.39115,20.5348 23.69444,27.7209 l 6.08768,5.2685 23.19934,-0.2685 c 19.42879,-0.2249 23.32334,-0.5124 23.96227,-1.7686 0.41962,-0.825 2.94333,-5.932 5.60826,-11.3488 4.86144,-9.8815 11.67751,-19.391 16.34533,-22.8042 3.02025,-2.2084 11.16935,-3.847 19.13251,-3.847 3.22274,0 8.44882,-0.8772 11.61351,-1.9493 14.05748,-4.7625 23.00078,-4.8569 33.70878,-0.3559 4.46609,1.8772 8.72273,2.6929 17.02648,3.2628 6.89759,0.4734 12.19271,1.3609 14.0452,2.3541 5.73811,3.0763 16.35263,14.5929 19.5288,21.1883 1.28145,2.661 1.47407,-3.272 1.70445,-52.5 0.14286,-30.525 0.045,-56.0613 -0.21755,-56.7472 -0.3783,-0.9886 -37.35249,-1.2997 -178.25974,-1.5 l -177.78244,-0.2528 -0.25147,-336.75 -0.25147,-336.74997 h -62.49853 -62.49853 v 399.99997 400 h 58.37756 c 45.50628,0 58.59628,-0.2756 59.36961,-1.25 z m 2401.79797,-23.0688 c 2.5578,-12.0004 4.4001,-22.0693 4.0941,-22.3754 -0.4637,-0.4636 -23.508,5.3819 -24.441,6.1998 -0.166,0.1456 1.9201,5.6038 4.6356,12.1295 2.7155,6.5257 5.9491,15.0149 7.1857,18.8649 2.515,7.8304 3.2156,9.3732 3.6108,7.9507 0.1453,-0.5229 2.3569,-10.7692 4.9148,-22.7695 z m 213.4549,-296.1812 0.5,-40 12.75,-0.2799 12.75,-0.2799 v -7.4701 -7.4701 h -33.0438 -33.0438 l 0.2938,7.25 0.2938,7.25 12.25,0.2808 12.25,0.2808 v 39.8858 c 0,30.9615 0.2797,40.0036 1.25,40.412 0.6875,0.2893 3.95,0.4393 7.25,0.3333 l 6,-0.1927 z m 50.4182,39.893 c 1.3824,-0.5305 1.5818,-3.674 1.5818,-24.941 0,-13.3837 0.3886,-24.5741 0.8636,-24.8677 0.475,-0.2935 7.5184,10.2549 15.652,23.441 8.1336,13.1861 15.1053,23.9747 15.4926,23.9747 0.3873,0 6.0124,-8.6625 12.5001,-19.25 17.4617,-28.4961 17.626,-28.75 18.5959,-28.75 0.5037,0 0.8958,10.8957 0.8958,24.893 0,28.1121 -0.6502,26.107 8.4652,26.107 4.6526,0 5.3753,-0.2754 5.9045,-2.25 0.9179,-3.4252 0.7165,-93.066 -0.2124,-94.5298 -0.7695,-1.2126 -5.314,5.3796 -37.074,53.7798 -4.5114,6.875 -8.585,12.5 -9.0525,12.5 -0.4674,0 -6.49,-8.55 -13.3835,-19 -6.8935,-10.45 -12.9411,-19.4706 -13.439,-20.0457 -0.498,-0.5751 -1.0861,-1.4751 -1.3069,-2 -1.5695,-3.7311 -17.2855,-26.3349 -18.0022,-25.892 -1.4542,0.8987 -1.1608,94.7761 0.3008,96.2377 1.2496,1.2496 9.4677,1.6485 12.2182,0.593 z" id="path1"/></g></svg>