<svg id="visual" viewBox="0 0 900 600" width="900" height="600" xmlns="http://www.w3.org/2000/svg" xmlns:xlink="http://www.w3.org/1999/xlink" version="1.1"><rect x="0" y="0" width="900" height="600" fill="#1e2839"></rect><path d="M0 280L18.8 285.8C37.7 291.7 75.3 303.3 112.8 311.3C150.3 319.3 187.7 323.7 225.2 312.5C262.7 301.3 300.3 274.7 337.8 268.7C375.3 262.7 412.7 277.3 450.2 277.2C487.7 277 525.3 262 562.8 265C600.3 268 637.7 289 675.2 304.8C712.7 320.7 750.3 331.3 787.8 335.7C825.3 340 862.7 338 881.3 337L900 336L900 601L881.3 601C862.7 601 825.3 601 787.8 601C750.3 601 712.7 601 675.2 601C637.7 601 600.3 601 562.8 601C525.3 601 487.7 601 450.2 601C412.7 601 375.3 601 337.8 601C300.3 601 262.7 601 225.2 601C187.7 601 150.3 601 112.8 601C75.3 601 37.7 601 18.8 601L0 601Z" fill="#ff0000" stroke-linecap="round" stroke-linejoin="miter"></path></svg>