<svg id="visual" viewBox="0 0 900 600" width="900" height="600" xmlns="http://www.w3.org/2000/svg" xmlns:xlink="http://www.w3.org/1999/xlink" version="1.1"><rect x="0" y="0" width="900" height="600" fill="#1e2839"></rect><path d="M479 0L470.2 12.5C461.3 25 443.7 50 431.7 75C419.7 100 413.3 125 430.3 150C447.3 175 487.7 200 496.7 225C505.7 250 483.3 275 483.5 300C483.7 325 506.3 350 501.8 375C497.3 400 465.7 425 442 450C418.3 475 402.7 500 396.3 525C390 550 393 575 394.5 587.5L396 600L0 600L0 587.5C0 575 0 550 0 525C0 500 0 475 0 450C0 425 0 400 0 375C0 350 0 325 0 300C0 275 0 250 0 225C0 200 0 175 0 150C0 125 0 100 0 75C0 50 0 25 0 12.5L0 0Z" fill="#c7a51a" stroke-linecap="round" stroke-linejoin="miter"></path></svg>