<svg id="visual" viewBox="0 0 900 600" width="900" height="600" xmlns="http://www.w3.org/2000/svg" xmlns:xlink="http://www.w3.org/1999/xlink" version="1.1"><rect x="0" y="0" width="900" height="600" fill="#1e2839"></rect><defs><linearGradient id="grad1_0" x1="33.3%" y1="0%" x2="100%" y2="100%"><stop offset="20%" stop-color="#1e2839" stop-opacity="1"></stop><stop offset="80%" stop-color="#1e2839" stop-opacity="1"></stop></linearGradient></defs><defs><linearGradient id="grad2_0" x1="0%" y1="0%" x2="66.7%" y2="100%"><stop offset="20%" stop-color="#1e2839" stop-opacity="1"></stop><stop offset="80%" stop-color="#1e2839" stop-opacity="1"></stop></linearGradient></defs><g transform="translate(900, 0)"><path d="M0 486.7C-67.2 483.3 -134.4 479.9 -186.3 449.7C-238.2 419.5 -274.8 362.6 -314.7 314.7C-354.5 266.7 -397.6 227.7 -426.8 176.8C-456.1 125.9 -471.4 62.9 -486.7 0L0 0Z" fill="#FBA"></path></g><g transform="translate(0, 600)"><path d="M0 -486.7C54.4 -446 108.7 -405.3 154.6 -373.2C200.5 -341.2 237.8 -317.8 291.3 -291.3C344.8 -264.9 414.4 -235.3 449.7 -186.3C485 -137.2 485.9 -68.6 486.7 0L0 0Z" fill="#FBA"></path></g></svg>