<svg id="visual" viewBox="0 0 900 600" width="900" height="600" xmlns="http://www.w3.org/2000/svg" xmlns:xlink="http://www.w3.org/1999/xlink" version="1.1"><rect x="0" y="0" width="900" height="600" fill="#1e2839"></rect><defs><linearGradient id="grad1_0" x1="33.3%" y1="100%" x2="100%" y2="0%"><stop offset="20%" stop-color="#1e2839" stop-opacity="1"></stop><stop offset="80%" stop-color="#1e2839" stop-opacity="1"></stop></linearGradient></defs><defs><linearGradient id="grad2_0" x1="0%" y1="100%" x2="66.7%" y2="0%"><stop offset="20%" stop-color="#1e2839" stop-opacity="1"></stop><stop offset="80%" stop-color="#1e2839" stop-opacity="1"></stop></linearGradient></defs><g transform="translate(900, 600)"><path d="M-335 0C-345.1 -38.1 -355.2 -76.1 -351.9 -114.3C-348.5 -152.6 -331.8 -191 -306.3 -222.5C-280.8 -254.1 -246.7 -278.8 -210.4 -289.6C-174.2 -300.4 -135.9 -297.3 -100.4 -309.1C-65 -320.8 -32.5 -347.4 0 -374L0 0Z" fill="#ff0000"></path></g><g transform="translate(0, 0)"><path d="M347 0C321.3 28.3 295.5 56.6 291 94.6C286.5 132.5 303.2 180.2 292.1 212.2C280.9 244.1 241.8 260.3 209.3 288C176.7 315.7 150.8 354.8 117 360.1C83.2 365.3 41.6 336.6 0 308L0 0Z" fill="#ff0000"></path></g></svg>