<svg xmlns="http://www.w3.org/2000/svg" width="2509" height="2509" viewBox="0 0 2509 2509" version="1.1"><path d="M 2328 1115 L 2328 1186 2338.988 1186 L 2349.976 1186 2350.238 1148.394 L 2350.500 1110.788 2372.500 1146.578 C 2384.600 1166.263, 2394.950 1182.487, 2395.500 1182.631 C 2396.050 1182.776, 2406.400 1166.789, 2418.500 1147.104 L 2440.500 1111.315 2440.762 1148.658 L 2441.024 1186 2452.012 1186 L 2463 1186 2463 1115 C 2463 1075.950, 2462.621 1044, 2462.157 1044 C 2461.694 1044, 2446.547 1066.502, 2428.497 1094.005 L 2395.679 1144.009 2386.527 1130.255 C 2381.493 1122.690, 2366.648 1100.188, 2353.538 1080.250 C 2340.428 1060.313, 2329.319 1044, 2328.851 1044 C 2328.383 1044, 2328 1075.950, 2328 1115 M 12 1210 L 12 1373 110.500 1373 L 209 1373 209 1347 L 209 1321 136.500 1321 L 64 1321 64 1184 L 64 1047 38 1047 L 12 1047 12 1210 M 2216 1058.500 L 2216 1070 2234.500 1070 L 2253 1070 2253 1128 L 2253 1186 2264 1186 L 2275 1186 2275 1128 L 2275 1070 2293.500 1070 L 2312 1070 2312 1058.500 L 2312 1047 2264 1047 L 2216 1047 2216 1058.500 M 1180.994 1224.250 C 1147.276 1304.138, 1119.481 1370.287, 1119.228 1371.250 C 1118.790 1372.910, 1125.814 1373, 1256.457 1373 C 1373.540 1373, 1394.098 1372.792, 1393.823 1371.609 C 1393.645 1370.844, 1367.400 1304.702, 1335.500 1224.626 L 1277.500 1079.034 1259.900 1079.017 L 1242.299 1079 1180.994 1224.250 M 328.655 1124.597 C 281.169 1133.176, 245.034 1170.798, 233.841 1223.312 C 231.056 1236.378, 230.783 1261.763, 233.281 1275.500 C 238.595 1304.735, 250.637 1328.692, 269.478 1347.513 C 284.084 1362.103, 300.574 1371.658, 319.794 1376.667 C 331.851 1379.810, 354.714 1380.961, 366.757 1379.032 C 391.344 1375.093, 414.537 1362.127, 427.571 1345.035 C 429.665 1342.290, 431.535 1340.202, 431.728 1340.394 C 431.921 1340.587, 432.623 1347.890, 433.289 1356.622 L 434.500 1372.500 457.750 1372.768 L 481 1373.037 481 1251.500 L 481 1129.963 457.750 1130.232 L 434.500 1130.500 433.289 1146.378 C 432.623 1155.110, 431.937 1162.396, 431.765 1162.568 C 431.593 1162.741, 429.312 1160.207, 426.696 1156.938 C 414.325 1141.479, 393.694 1129.376, 372.343 1125.056 C 360.258 1122.610, 340.785 1122.405, 328.655 1124.597 M 1544.539 1124.112 C 1523.242 1127.215, 1506.085 1135.974, 1489.867 1152.022 L 1479.234 1162.543 1478.635 1155.522 C 1478.306 1151.660, 1477.738 1144.338, 1477.374 1139.250 L 1476.713 1130 1454.357 1130 L 1432 1130 1432 1296.500 L 1432 1463 1456 1463 L 1480 1463 1480 1402.289 L 1480 1341.579 1486.512 1348.713 C 1495.136 1358.163, 1503.360 1364.241, 1515.500 1370.139 C 1532.670 1378.481, 1551.303 1381.738, 1571.317 1379.896 C 1598.961 1377.353, 1622.500 1366.508, 1641.569 1347.530 C 1677.064 1312.204, 1689.200 1255.169, 1671.911 1204.935 C 1659.291 1168.271, 1632.185 1140.395, 1598 1128.927 C 1581.892 1123.523, 1561.309 1121.669, 1544.539 1124.112 M 1835.585 1124.038 C 1811.786 1127.785, 1788.435 1140.526, 1775.320 1156.919 C 1769.518 1164.172, 1769.571 1164.257, 1768.546 1145.866 C 1768.167 1139.065, 1767.634 1132.713, 1767.361 1131.750 C 1766.908 1130.150, 1764.941 1130, 1744.433 1130 L 1722 1130 1722 1296.500 L 1722 1463 1746 1463 L 1770 1463 1770.033 1401.750 L 1770.067 1340.500 1772.098 1343 C 1781.900 1355.063, 1795.115 1365.448, 1808.220 1371.384 C 1835.116 1383.567, 1870.155 1383.242, 1899.041 1370.542 C 1935.792 1354.383, 1961.760 1317.998, 1969.014 1272.500 C 1970.791 1261.354, 1970.362 1240.104, 1968.095 1227 C 1959.312 1176.221, 1926.206 1138.388, 1880 1126.324 C 1869.302 1123.531, 1846.318 1122.348, 1835.585 1124.038 M 1258.731 1129.207 C 1258.448 1129.918, 1239.217 1176.850, 1215.997 1233.500 C 1192.776 1290.150, 1173.550 1337.287, 1173.272 1338.250 C 1172.794 1339.907, 1177.251 1340, 1256.990 1340 C 1323.960 1340, 1341.115 1339.744, 1340.732 1338.750 C 1340.467 1338.063, 1322.145 1290.475, 1300.017 1233 C 1277.888 1175.525, 1259.662 1128.368, 1259.515 1128.207 C 1259.368 1128.046, 1259.015 1128.496, 1258.731 1129.207 M 530 1153.991 L 530 1177.982 582.306 1178.241 L 634.611 1178.500 579.314 1275 C 548.900 1328.075, 524.012 1371.838, 524.008 1372.250 C 524.004 1372.662, 567.425 1373, 620.500 1373 L 717 1373 717 1349.008 L 717 1325.017 660.569 1324.758 L 604.138 1324.500 656.151 1233.500 C 684.759 1183.450, 709.741 1139.688, 711.668 1136.250 L 715.172 1130 622.586 1130 L 530 1130 530 1153.991 M 739.310 1130.734 C 739.557 1131.155, 761.193 1182.188, 787.389 1244.140 L 835.019 1356.780 812.531 1408.951 C 800.162 1437.645, 789.777 1461.552, 789.452 1462.078 C 789.081 1462.679, 798.556 1462.934, 814.973 1462.767 L 841.085 1462.500 912.150 1298 C 951.235 1207.525, 983.445 1132.705, 983.728 1131.733 C 984.212 1130.071, 982.706 1129.982, 958.422 1130.233 L 932.601 1130.500 896.487 1214.343 C 876.624 1260.456, 859.951 1298.844, 859.436 1299.649 C 858.762 1300.703, 849.279 1277.289, 825.481 1215.806 L 792.462 1130.500 765.662 1130.234 C 750.922 1130.087, 739.064 1130.312, 739.310 1130.734 M 2004 1154 L 2004 1178 2056.500 1178 C 2085.375 1178, 2109 1178.240, 2109 1178.534 C 2109 1178.828, 2084.250 1222.266, 2054 1275.063 C 2023.750 1327.860, 1999 1371.497, 1999 1372.034 C 1999 1372.664, 2033.154 1372.920, 2095.250 1372.755 L 2191.500 1372.500 2191.768 1348.750 L 2192.036 1325 2135.518 1325 C 2104.433 1325, 2079 1324.830, 2079 1324.621 C 2079 1324.413, 2103.750 1280.933, 2134 1228 C 2164.250 1175.067, 2189 1131.362, 2189 1130.879 C 2189 1130.380, 2148.999 1130, 2096.500 1130 L 2004 1130 2004 1154 M 345.500 1172.649 C 339.105 1173.664, 328.213 1177.347, 322 1180.595 C 303.741 1190.140, 290.558 1206.520, 283.848 1228 C 281.810 1234.522, 281.506 1237.522, 281.517 1251 C 281.531 1268.715, 282.706 1274.448, 289.011 1287.578 C 303.371 1317.479, 334.072 1334.266, 366.779 1330.103 C 398.803 1326.026, 423.247 1302.345, 429.576 1269.265 C 431.394 1259.762, 431.401 1243.266, 429.591 1233.838 C 424.174 1205.625, 405.426 1183.740, 379.500 1175.364 C 373.208 1173.332, 369.044 1172.715, 360 1172.476 C 353.675 1172.309, 347.150 1172.387, 345.500 1172.649 M 1539.500 1173.653 C 1519.911 1177.824, 1504.168 1188.349, 1493.652 1204.307 C 1484.237 1218.594, 1479.994 1233.024, 1480.008 1250.708 C 1480.017 1262.978, 1481.324 1271.239, 1484.912 1281.694 C 1492.603 1304.111, 1510.148 1321.058, 1533 1328.141 C 1543.731 1331.467, 1563.010 1331.489, 1574.455 1328.188 C 1610.769 1317.714, 1633.450 1283.006, 1629.760 1243.559 C 1626.811 1212.048, 1607.195 1186.090, 1579.113 1176.538 C 1565.847 1172.026, 1551.910 1171.011, 1539.500 1173.653 M 1830 1173.572 C 1825.535 1174.473, 1818.303 1177.123, 1812.129 1180.119 C 1803.302 1184.404, 1800.549 1186.370, 1793.629 1193.327 C 1782.090 1204.928, 1775.709 1216.601, 1772.311 1232.322 C 1770.286 1241.690, 1770.346 1261.177, 1772.430 1270.845 C 1778.451 1298.786, 1795.895 1318.950, 1821.500 1327.567 C 1828.502 1329.924, 1831.183 1330.275, 1843 1330.380 C 1853.187 1330.471, 1858.274 1330.045, 1863.727 1328.648 C 1907.371 1317.463, 1931.520 1269.468, 1916.382 1224 C 1912.600 1212.642, 1906.769 1203.563, 1897.099 1193.973 C 1887.397 1184.353, 1877.547 1178.544, 1865.071 1175.087 C 1855.033 1172.305, 1839.583 1171.638, 1830 1173.572" stroke="none" fill="#fcfcfc" fill-rule="evenodd"/></svg>