<?xml version="1.0" encoding="UTF-8" standalone="no"?>
<!-- Created with Inkscape (http://www.inkscape.org/) -->

<svg
   version="1.1"
   id="svg1"
   width="1290.0153"
   height="3307.2112"
   viewBox="0 0 1290.0153 3307.2112"
   sodipodi:docname="logo.svg"
   inkscape:version="1.4.2 (ebf0e940d0, 2025-05-08)"
   xmlns:inkscape="http://www.inkscape.org/namespaces/inkscape"
   xmlns:sodipodi="http://sodipodi.sourceforge.net/DTD/sodipodi-0.dtd"
   xmlns="http://www.w3.org/2000/svg"
   xmlns:svg="http://www.w3.org/2000/svg">
  <sodipodi:namedview
     id="namedview1"
     pagecolor="#ffffff"
     bordercolor="#000000"
     borderopacity="0.25"
     inkscape:showpageshadow="2"
     inkscape:pageopacity="0.0"
     inkscape:pagecheckerboard="0"
     inkscape:deskcolor="#d1d1d1"
     inkscape:zoom="0.10126059"
     inkscape:cx="1160.3724"
     inkscape:cy="3639.1254"
     inkscape:window-width="1025"
     inkscape:window-height="984"
     inkscape:window-x="0"
     inkscape:window-y="0"
     inkscape:window-maximized="1"
     inkscape:current-layer="svg1" />
  <defs
     id="defs1" />
  <g
     id="g1"
     transform="matrix(1.5699759,0,0,1.5236389,-2106.7819,-905.44583)">
    <g
       id="g1782"
       transform="translate(20.742443,-107.86108)">
      <path
         style="fill:#fedd9b"
         d="m 1671,2871.463 c -17.2244,-3.7738 -33.1813,-16.2325 -40.9177,-31.9474 -6.4633,-13.1289 -6.1456,-5.0313 -5.8505,-149.1108 L 1624.5,2559.5 l 2.1703,-5.7386 2.1703,-5.7387 -2.8246,-2.0113 c -3.9607,-2.8203 -5.2196,-2.6033 -4.2851,0.7386 0.423,1.5125 0.7138,7.25 0.6461,12.75 -0.2873,23.372 -6.5601,36.1054 -56.1593,114 -32.8437,51.5805 -53.7183,82.3197 -62.57,92.1384 -18.1184,20.0977 -48.3338,26.1304 -71.7282,14.321 -15.89,-8.0213 -64.3415,-39.51 -76.4039,-49.655 -18.4276,-15.4986 -27.4724,-34.7208 -26.2346,-55.7549 0.9283,-15.7743 3.4311,-21.0745 31.19,-66.0495 7.8076,-12.65 24.6207,-39.3188 37.3624,-59.2641 12.7416,-19.9452 23.1666,-36.6474 23.1666,-37.1159 0,-0.4685 -7.0875,-1.1564 -15.75,-1.5287 -27.4802,-1.181 -37.6599,-3.1188 -51.1919,-9.7448 -15.5106,-7.5947 -27.7259,-22.8259 -31.6468,-39.4598 -2.9695,-12.5982 -0.7026,-31.1406 8.146,-66.6305 11.1123,-44.569 28.1208,-82.5532 55.8631,-124.7562 27.924,-42.4794 73.8382,-87.4616 119.7926,-117.3607 6.2079,-4.039 18.3724,-11.2943 27.0324,-16.1229 l 15.7455,-8.7794 0.2545,-539.6185 c 0.2465,-522.5027 0.3134,-539.775 2.107,-544.5533 1.8032,-4.8036 1.8032,-5.0958 0,-11 C 1549.5873,1026.7859 1549.5,1019.9715 1549.5,888 V 749.5 l 2.3117,-6.69044 c 5.9702,-17.27875 19.798,-31.22028 37.3075,-37.61427 L 1596.5,702.5 1732,702.20132 c 96.857,-0.21349 137.2111,0.0204 141.5,0.82019 20.5174,3.82603 39.6487,21.43642 46.147,42.47849 1.7658,5.71756 1.853,12.44899 1.853,143 v 137 l -3.2242,9 -3.2242,9 0.1119,184 c 0.062,101.2 0.3875,345.775 0.7242,543.5 l 0.6123,359.5 14.9867,7.7629 c 40.1576,20.8009 67.7591,41.4917 100.2557,75.1539 24.9542,25.8494 39.6856,44.8153 56.7661,73.0832 24.1536,39.9737 43.7741,92.6262 52.5145,140.9249 4.9359,27.2757 0.046,45.7792 -16.417,62.122 -16.0757,15.9584 -33.9256,21.3165 -71.356,21.4194 -6.7375,0.019 -12.25,0.2463 -12.25,0.5062 0,0.2598 5.0951,8.4723 11.3225,18.25 27.8731,43.764 75.6313,120.239 77.9494,124.8202 4.1899,8.2802 6.0882,16.2074 6.0963,25.4573 0.019,21.4972 -9.0812,37.8804 -28.8397,51.9228 -9.6265,6.8415 -43.8976,28.7273 -65.0964,41.5711 -19.0785,11.5592 -26.09,13.9991 -39.9321,13.8961 -15.5738,-0.1159 -28.6635,-5.3154 -40.6549,-16.1489 -5.2159,-4.7122 -7.339,-7.9072 -44.0201,-66.2411 -53.2369,-84.6628 -69.8088,-112.2214 -74.0327,-123.1145 -1.2552,-3.237 -2.6134,-5.8855 -3.0184,-5.8855 -0.4049,0 -0.8572,56.3625 -1.005,125.25 l -0.2689,125.25 -2.6851,6.6965 c -7.1362,17.7977 -21.0223,31.0644 -38.7996,37.0687 -6.3789,2.1545 -7.709,2.2049 -63.5153,2.4112 -46.2085,0.1708 -58.2306,-0.059 -63.5,-1.2134 z m 169.3456,-321.713 c 0.6657,-5.1317 0.2577,-5.5613 -3.0684,-3.2316 -2.1214,1.4859 -2.1323,1.6142 -0.509,5.9941 1.8568,5.0099 2.6486,4.3985 3.5774,-2.7625 z m 19.0474,-1539.3318 c 0.9152,-2.3849 0.6988,-243.72532 -0.2198,-245.17215 -0.6326,-0.99646 -26.1443,-1.20181 -124.2347,-1 L 1611.5,764.5 l -0.2539,123.75 -0.2539,123.75 h 123.8969 c 112.0553,0 123.9549,-0.1512 124.5039,-1.5818 z"
         id="path1788" />
      <path
         style="fill:#fec658"
         d="m 1674.6907,2870.9568 c -8.8633,-1.489 -16.093,-4.338 -23.3845,-9.2148 -9.0082,-6.0251 -15.3828,-13.1722 -19.8378,-22.242 -6.8452,-13.9359 -6.4745,-5.4379 -6.4108,-146.9601 0.056,-124.6201 0.1107,-128.2269 2.0433,-135.0399 2.98,-10.5059 2.9662,-10.6015 -1.91,-13.3162 -2.37,-1.3194 -4.5442,-2.1639 -4.8314,-1.8766 -0.2872,0.2872 -0.01,3.9032 0.6167,8.0355 1.8934,12.4913 -1.0632,27.9983 -8.391,44.009 -5.0239,10.9767 -22.2641,39.3988 -54.0755,89.1483 -33.5761,52.5093 -50.1612,76.1417 -59.6733,85.0295 -17.646,16.4879 -43.0165,21.0043 -64.5304,11.4877 -9.4757,-4.1915 -57.2105,-34.5915 -72.3798,-46.0952 -26.7835,-20.3113 -37.3087,-47.1333 -29.0075,-73.922 3.1897,-10.2935 17.1531,-33.6797 63.7602,-106.787 14.4766,-22.7078 26.3211,-41.6735 26.3211,-42.146 0,-0.4725 -6.6375,-1.1559 -14.75,-1.5188 -41.1395,-1.8399 -53.2833,-5.5471 -68.8284,-21.0117 -12.9461,-12.879 -18.3065,-26.7986 -17.1185,-44.4523 1.6287,-24.2004 16.0942,-78.0542 29.1665,-108.5842 9.9653,-23.2736 31.0358,-59.6197 46.3776,-80 36.9537,-49.09 87.2786,-92.2285 140.6566,-120.571 5.4979,-2.9192 10.3268,-5.785 10.7309,-6.3684 0.4041,-0.5833 0.7416,-242.4639 0.75,-537.5123 l 0.015,-536.4517 2.1311,-8.6895 c 2.1072,-8.5923 2.11,-8.7439 0.25,-13.5483 -1.8029,-4.6569 -1.8929,-10.4688 -2.1656,-139.8588 -0.2058,-97.68123 0.031,-136.89292 0.8569,-141.84762 2.3839,-14.30333 13.7729,-30.96584 26.3354,-38.52956 3.085,-1.85745 8.6428,-4.55745 12.3506,-6 L 1596.5,703.5 h 138 138 l 7.3276,2.40034 c 18.597,6.09197 32.8075,20.94904 38.8327,40.59966 1.7477,5.69993 1.8397,12.77669 1.8397,141.5 0,149.167 0.3428,140.483 -6.0435,153.0859 -1.7124,3.3792 -2.315,5.6764 -1.7746,6.7653 0.4499,0.9069 1.0431,244.8735 1.3181,542.1481 l 0.5,540.4994 11,5.7914 c 48.8778,25.7337 70.9059,42.2572 109.024,81.7797 20.8574,21.6259 27.8159,30.2458 42.7289,52.9302 21.9326,33.3623 34.7063,59.8332 47.7728,99 8.8444,26.5112 16.9965,62.9758 16.9569,75.8494 -0.065,21.2387 -12.2334,42.3345 -30.4826,52.8471 -12.8893,7.425 -25.312,10.0133 -52.6175,10.9628 -12.5818,0.4375 -18.8825,1.021 -18.8824,1.7487 0,0.6006 3.8922,7.167 8.6492,14.592 25.3708,39.6002 79.9174,127.1083 81.6533,130.9948 3.3713,7.548 4.6731,14.0898 4.6855,23.5451 0.014,10.7677 -1.8134,18.4394 -6.5197,27.3679 -6.79,12.8819 -12.7745,17.9446 -47.676,40.3328 -28.2412,18.1157 -52.3384,32.4458 -58.3302,34.6877 -12.6322,4.7263 -26.3057,4.6364 -39.7999,-0.2618 -15.1015,-5.4815 -22.7403,-13.028 -38.6335,-38.1665 -62.829,-99.3778 -93.7045,-149.892 -98.2991,-160.8238 -4.6587,-11.0841 -5.9273,-19.1041 -4.715,-29.806 0.5702,-5.0337 0.7945,-9.3943 0.4985,-9.6904 -0.2961,-0.296 -2.156,0.2332 -4.1332,1.176 -2.6189,1.2489 -3.4429,2.1799 -3.0349,3.4293 5.0476,15.4578 4.7063,4.1648 4.4189,146.2149 l -0.264,130.5 -2.5785,6.6196 c -8.4863,21.7858 -24.7434,35.2121 -47.0107,38.8251 -7.563,1.2271 -106.9251,1.2377 -114.2201,0.012 z m 185.1908,-1858.314 c 0.8248,-0.9939 1.0584,-34.52342 0.8724,-125.25 L 1860.5,763.5 H 1735 1609.5 l -0.2539,123.8928 c -0.186,90.72658 0.048,124.2561 0.8724,125.25 1.68,2.0243 248.083,2.0243 249.763,0 z"
         id="path1787" />
      <path
         style="fill:#fda900"
         d="m 1676.3983,2869.9496 c -23.8683,-2.913 -43.9695,-21.2765 -48.9341,-44.7039 -1.1955,-5.6418 -1.4323,-27.3804 -1.4468,-132.8357 -0.017,-125.5298 -0.01,-126.1252 2.1121,-134 3.1578,-11.7298 3.1048,-12.0915 -2.2167,-15.1298 -6.0285,-3.4419 -8.0392,-2.736 -6.8462,2.4037 1.4213,6.1236 1.0762,21.9644 -0.6247,28.6718 -4.7696,18.8088 -11.6082,31.1864 -53.9492,97.6443 -47.1511,74.0079 -59.1401,90.8095 -71.3674,100.0159 -17.5978,13.2499 -41.0674,15.6045 -60.046,6.0241 -16.267,-8.2115 -64.4914,-39.5871 -76.6977,-49.9007 -21.5801,-18.234 -30.1045,-44.3762 -22.2609,-68.2689 3.3732,-10.2755 17.0704,-33.2087 61.4876,-102.9487 15.6154,-24.5181 28.3917,-45.2873 28.3917,-46.1538 0,-1.3001 -1.8785,-1.6771 -10.75,-2.1573 -24.9425,-1.35 -38.1932,-2.7184 -45.2337,-4.6713 -21.0214,-5.831 -35.8654,-19.7451 -42.6083,-39.9393 -2.3918,-7.1633 -2.3876,-23.2402 0.01,-35.5 12.4889,-63.877 29.6282,-106.727 62.9974,-157.5 18.8586,-28.6943 48.9554,-61.7827 78.7692,-86.5987 22.0265,-18.3341 39.853,-30.5527 66.316,-45.4541 l 17,-9.5727 0.5,-539.4373 c 0.4896,-528.2662 0.5397,-539.5583 2.4173,-545.2854 1.8897,-5.7642 1.8897,-5.9511 0,-13 C 1551.5719,1024.7681 1551.5,1019.3837 1551.5,888 V 751.5 l 2.2155,-7.04153 c 5.4911,-17.45284 19.7611,-31.76139 37.4569,-37.55813 L 1598.5,704.5 h 137.5 137.5 l 6.7416,2.62282 c 14.9118,5.80149 26.262,15.57823 32.6141,28.09293 6.4711,12.74908 6.1194,3.98397 6.1324,152.82415 0.013,147.5933 0.2858,140.0853 -5.5554,152.875 -2.2323,4.8877 -2.3737,5.9524 -1.4529,10.9337 0.6855,3.7079 1.0202,181.3016 1.0202,541.2533 0,294.654 0.2778,536.4584 0.6173,537.3432 0.3395,0.8848 7.2495,4.968 15.3554,9.0738 45.924,23.2614 79.1644,49.698 119.3865,94.9498 13.9485,15.6927 25.3269,31.6408 39.6071,55.5134 23.1809,38.7523 43.164,93.3463 51.0128,139.3673 2.4091,14.1253 2.4863,18.0423 0.5548,28.1372 -4.468,23.3521 -22.6197,41.7713 -46.8315,47.5216 -8.4009,1.9952 -30.7685,3.9307 -45.8934,3.9712 -4.23,0.011 -7.9773,0.4839 -8.3273,1.0502 -0.3499,0.5662 6.9901,13.0537 16.3112,27.75 35.6827,56.2595 71.0335,112.9333 73.5748,117.9536 10.0861,19.9255 6.4805,46.3301 -8.5761,62.8045 -6.102,6.6765 -14.5048,12.7408 -41.7916,30.1608 -33.0339,21.0891 -51.1851,31.766 -57.5482,33.8511 -4.5752,1.4993 -8.7274,1.9473 -17.9518,1.9372 -10.4324,-0.012 -12.9427,-0.3561 -19.216,-2.638 -9.0581,-3.2948 -19.1424,-10.4265 -24.5909,-17.3907 -2.3062,-2.9478 -11.3687,-16.7443 -20.1388,-30.6589 -82.0135,-130.1215 -92.8886,-148.6146 -95.6038,-162.5739 -1.0533,-5.4153 -0.9248,-18.773 0.2566,-26.687 0.4272,-2.8615 -2.2713,-2.9733 -6.2575,-0.2593 -3.9607,2.6967 -3.9948,3.1499 -1.0621,14.131 2.0975,7.8537 2.1124,8.8068 2.0951,134 -0.019,138.6109 0.2052,133.2717 -6.148,146.3769 -4.1302,8.5195 -15.8019,20.4539 -24.4161,24.9656 -12.5955,6.5969 -12.4123,6.5792 -70.9185,6.8335 -29.15,0.1267 -56.1958,-0.1597 -60.1017,-0.6364 z m 184.4832,-1856.3068 c 0.8248,-0.9939 1.0584,-34.78396 0.8724,-126.24997 L 1861.5,762.5 H 1735 1608.5 l -0.2539,125.43858 c -0.2018,99.69043 0,125.60202 1,126.23472 0.6896,0.4378 57.3363,0.803 125.8815,0.8114 103.7445,0.013 124.8162,-0.2121 125.7539,-1.3419 z"
         id="path1786" />
      <path
         style="fill:#eb5f00"
         d="m 1683.2,2812.8 c -0.9201,-0.9201 -1.1964,-28.9717 -1.1847,-120.25 0.01,-65.4775 0.3752,-119.6168 0.815,-120.3096 0.6289,-0.9907 11.2496,-1.2042 49.7347,-1 l 48.935,0.2596 0.2541,119.8926 c 0.186,87.7689 -0.048,120.2564 -0.8725,121.25 -1.5535,1.8719 -95.8152,2.0238 -97.6816,0.1574 z M 1441,2717.4717 c -9.075,-5.7791 -25.1625,-15.9946 -35.75,-22.701 -15.5302,-9.8373 -19.25,-12.6213 -19.25,-14.4072 0,-1.2175 9.0689,-16.5348 20.1532,-34.0385 11.0842,-17.5038 24.9746,-39.475 30.8674,-48.825 46.051,-73.0675 53.1884,-84.0206 54.9381,-84.3086 1.0821,-0.1782 12.3741,6.3382 26.708,15.4125 13.6583,8.6467 30.1208,19.0628 36.5833,23.1469 7.3865,4.6681 11.75,8.0493 11.75,9.1048 0,0.9235 -7.6901,13.8213 -17.0891,28.6618 -9.399,14.8404 -22.2248,35.0826 -28.5017,44.9826 -6.2769,9.9 -22.1047,34.875 -35.1729,55.5 -20.1105,31.7395 -24.1426,37.5368 -26.2484,37.7396 -1.7049,0.1642 -7.6808,-3.0673 -18.9879,-10.2679 z m 559.8936,8.8398 c -0.8403,-0.9963 -3.3321,-4.7365 -5.5374,-8.3115 -2.2053,-3.575 -13.4657,-21.575 -25.0231,-40 -11.5574,-18.425 -32.8112,-52.3246 -47.2307,-75.3324 -14.4195,-23.0078 -26.079,-42.5217 -25.9099,-43.3641 0.2548,-1.2691 63.1316,-41.8048 70.6352,-45.5374 1.6179,-0.8049 2.8375,-0.8459 4,-0.1344 0.9197,0.5629 13.263,19.4385 27.4295,41.9459 54.8024,87.069 77.0104,122.7296 77.4298,124.3336 0.2399,0.9171 -0.3791,2.3801 -1.3755,3.2511 -2.8353,2.4788 -69.2226,44.0017 -71.1604,44.5084 -0.9514,0.2488 -2.4172,-0.3628 -3.2575,-1.3592 z m -289.2647,-212.8619 c -20.584,-2.8034 -35.9091,-7.4836 -54.1289,-16.5309 -16.5633,-8.2246 -28.7672,-17.1654 -43.8821,-32.1488 L 1600.7358,2452 h -108.2861 c -59.5574,0 -108.9979,-0.2731 -109.8679,-0.607 -2.1684,-0.8321 -2.0271,-4.3268 0.8798,-21.7629 4.9946,-29.958 15.2173,-60.8759 29.8006,-90.1301 8.4307,-16.9119 34.1395,-55.5203 46.6122,-70 19.3702,-22.4871 48.7258,-48.3988 72.5961,-64.0794 19.3905,-12.7378 44.2622,-25.4477 73.2795,-37.4473 l 2.25,-0.9304 v -552.4863 c 0,-545.2035 0.025,-552.4999 1.9343,-553.5214 2.6928,-1.4412 241.4386,-1.4412 244.1314,0 1.9088,1.0215 1.9345,8.3173 1.9496,552.75 0.01,303.4431 0.3517,552.2437 0.7629,552.8901 0.4111,0.6464 3.4417,2.1548 6.7347,3.352 12.8057,4.6555 42.7776,19.8012 58.9871,29.8079 36.9591,22.8162 68.1791,51.0815 94.6646,85.7055 13.8615,18.1209 22.0809,31.3467 33.2228,53.4593 14.4785,28.7343 23.8133,55.3239 28.9633,82.5 4.8634,25.6637 5.0698,27.2884 3.6803,28.9626 -1.1337,1.366 -13.4469,1.5374 -110.4553,1.5374 h -109.1795 l -13.4481,13.3125 c -28.3306,28.045 -58.9849,43.1242 -97.7898,48.1038 -14.578,1.8707 -26.9633,1.8808 -40.5294,0.033 z"
         id="path1785" />
      <path
         style="fill:#9d6b07"
         d="m 1683.0352,2812.0657 c -1.59,-2.9709 -1.4283,-238.2726 0.1648,-239.8657 1.7284,-1.7284 95.8716,-1.7284 97.6,0 1.7425,1.7425 1.7425,238.8575 0,240.6 -0.8998,0.8998 -13.1477,1.2 -48.9648,1.2 -46.2002,0 -47.7987,-0.063 -48.8,-1.9343 z M 1442,2717.9122 c -8.525,-5.4737 -23.825,-15.1946 -34,-21.602 -10.175,-6.4074 -19.3209,-12.3483 -20.3241,-13.2021 -3.2835,-2.7941 -10.2339,8.874 74.1446,-124.4718 29.2667,-46.2509 28.8545,-45.6363 30.6097,-45.6363 0.6519,0 12.6343,7.25 26.6276,16.111 13.9932,8.8611 30.0025,18.9896 35.5762,22.5078 5.5737,3.5182 10.6644,7.0359 11.3128,7.8171 1.7316,2.0865 5.9643,-4.9647 -49.5617,82.5641 -6.8037,10.725 -21.7486,34.35 -33.2109,52.5 -17.4639,27.6531 -21.2323,33.0295 -23.2574,33.1821 -1.5625,0.1178 -7.8956,-3.3356 -17.9168,-9.7699 z m 556.454,4.4485 c -1.9841,-3.1017 -16.4666,-26.1642 -32.1834,-51.25 -15.7168,-25.0859 -37.5013,-59.8458 -48.41,-77.2442 -10.9087,-17.3985 -20.0808,-32.2769 -20.3826,-33.0631 -0.3017,-0.7863 0.2899,-2.1883 1.3146,-3.1157 2.876,-2.6028 70.4438,-44.6877 71.7465,-44.6877 1.7219,0 3.2968,2.1531 13.1659,18 8.4837,13.6223 34.9638,55.8674 75.6302,120.6571 10.9367,17.4242 17.4492,28.7412 17.0853,29.6895 -0.6086,1.586 -71.4145,46.6534 -73.2977,46.6534 -0.5838,0 -2.6847,-2.5377 -4.6688,-5.6393 z m -281.0445,-208.3918 c -41.6407,-3.9763 -81.5185,-23.8759 -108.89,-54.3379 l -6.8568,-7.631 h -108.7496 c -59.8122,0 -109.4613,-0.2731 -110.3313,-0.607 -2.1721,-0.8335 -2.0244,-4.2404 0.9495,-21.893 4.9436,-29.3442 15.7678,-61.9525 30.041,-90.5 10.0878,-20.1763 34.3467,-55.7781 50.263,-73.765 26.8168,-30.3053 58.885,-55.7845 94.6647,-75.2143 13.9384,-7.5692 39.0658,-19.1214 47.75,-21.9531 l 3.75,-1.2227 v -551.3873 c 0,-544.1169 0.025,-551.4009 1.9343,-552.4224 2.0906,-1.1189 235.6799,-1.5133 239.8157,-0.4049 l 2.25,0.603 v 551.7537 551.7537 l 7.7079,2.7363 c 25.5493,9.0702 67.111,32.3558 90.581,50.7494 14.2772,11.1892 37.8127,32.9916 47.5018,44.0039 28.295,32.1592 50.9242,69.5179 65.2563,107.732 7.4968,19.9889 11.8612,36.0278 15.9826,58.7349 2.727,15.0244 3.0782,18.468 2.0142,19.75 -1.1506,1.3864 -13.0005,1.5528 -110.5719,1.5528 h -109.2832 l -12.8444,12.78 c -26.8608,26.7262 -58.7595,42.8979 -94.8443,48.0832 -10.867,1.5616 -28.0827,2.0613 -38.0905,1.1057 z"
         id="path1784" />
      <path
         style="fill:#d40000"
         d="m 1684.4972,2809.7598 c -0.3002,-1.2429 -0.4223,-54.9098 -0.2715,-119.2598 l 0.2743,-117 h 47.5 47.5 v 119 119 l -47.2285,0.2598 -47.2285,0.2598 z m -260.4373,-105.6075 c -18.9421,-11.9944 -34.8587,-22.4715 -35.3701,-23.2823 -0.692,-1.097 5.5391,-11.6964 24.3511,-41.4221 13.9046,-21.9714 34.8148,-55.0329 46.4672,-73.4701 30.9841,-49.0251 32.4409,-51.2115 33.7792,-50.696 2.2573,0.8694 68.1994,42.891 69.9486,44.5747 1.6394,1.5779 0.9791,2.8665 -11.8661,23.1572 -7.4812,11.8175 -15.7202,24.8613 -18.3091,28.9863 -11.4881,18.3048 -67.0926,106.091 -69.5742,109.841 -1.5137,2.2874 -3.255,4.1501 -3.8694,4.1392 -0.6144,-0.011 -16.6152,-9.8335 -35.5572,-21.8279 z m 563.7111,-2.4023 c -7.9849,-12.7875 -30.9999,-49.5429 -51.1445,-81.6788 -20.1446,-32.1358 -36.6265,-58.9535 -36.6265,-59.595 0,-0.6414 0.7875,-1.8276 1.75,-2.6359 2.2952,-1.9276 67.8883,-42.8403 68.6835,-42.8403 0.8518,0 5.1808,6.7937 57.4164,90.1072 25.3826,40.4839 46.1501,74.2859 46.1501,75.1156 0,1.6298 -67.6664,44.7772 -70.2223,44.7772 -0.8593,0 -7.6266,-9.8296 -16.0067,-23.25 z M 1724,2512.3383 c -15.3686,-0.7749 -36.4954,-5.2202 -51.2813,-10.7901 -19.6309,-7.3951 -39.6631,-20.4626 -55.237,-36.0327 -6.0601,-6.0585 -11.7932,-12.028 -12.7403,-13.2655 l -1.7218,-2.25 h -108.3187 c -85.1099,0 -108.6715,-0.2678 -109.9655,-1.25 -1.7478,-1.3266 -1.7275,-1.5571 2.2628,-25.75 2.0452,-12.3994 9.211,-36.592 16.1429,-54.5 10.9165,-28.2018 19.2343,-42.8994 46.6893,-82.5 16.5711,-23.9019 55.6038,-60.1828 85.6696,-79.6299 19.9787,-12.9226 47.0857,-26.7534 68,-34.6956 l 7,-2.6583 -0.2567,-552.2581 c -0.2411,-518.5183 -0.153,-552.3345 1.4411,-553.5081 1.3359,-0.9835 26.8644,-1.2471 119.7567,-1.2363 64.9324,0.01 119.0714,0.2849 120.3089,0.6166 l 2.25,0.603 v 551.9917 551.9918 l -2.75,-0.6112 c -4.0089,-0.891 2.7686,2.4722 11.9945,5.9519 14.3517,5.4131 45.5565,21.2974 60.7555,30.9266 19.6905,12.4747 31.8293,21.7594 49.4508,37.8235 17.1099,15.5977 27.3086,26.7334 41.6899,45.5197 18.814,24.5769 35.2429,53.5027 45.4253,79.9787 2.4735,6.4317 4.9281,12.7168 5.4546,13.9668 4.0542,9.6257 13.207,48.5743 14.6468,62.3274 0.5524,5.2769 0.449,5.637 -1.7906,6.2364 -1.3072,0.3498 -50.6038,0.6422 -109.5479,0.6497 l -107.171,0.014 -13.329,13.3059 c -23.188,23.1479 -46.7318,36.6944 -76.8289,44.2055 -14.6947,3.6672 -33.4978,5.5581 -48,4.8269 z M 1832.5,2161 c -2.7491,-1.1813 -4.328,-1.1813 -2.5,0 0.825,0.5332 2.175,0.9446 3,0.9144 0.9891,-0.036 0.8187,-0.3477 -0.5,-0.9144 z m -16.7708,-4.6042 c -0.3323,-0.3323 -1.1948,-0.3678 -1.9167,-0.079 -0.7977,0.3192 -0.5608,0.5562 0.6042,0.6042 1.0541,0.043 1.6448,-0.193 1.3125,-0.5253 z m -155,-2 c -0.3323,-0.3323 -1.1948,-0.3678 -1.9167,-0.079 -0.7977,0.3192 -0.5608,0.5562 0.6042,0.6042 1.0541,0.043 1.6448,-0.193 1.3125,-0.5253 z M 1671,2153 c 1.959,-0.6274 2.0672,-0.7966 0.5,-0.782 -1.1,0.01 -3.35,0.3621 -5,0.782 -2.6947,0.6857 -2.7456,0.7653 -0.5,0.782 1.375,0.01 3.625,-0.3416 5,-0.782 z m 128.7292,0.3958 c -0.3323,-0.3323 -1.1948,-0.3678 -1.9167,-0.079 -0.7977,0.3192 -0.5608,0.5562 0.6042,0.6042 1.0541,0.043 1.6448,-0.193 1.3125,-0.5253 z m -120,-2 c -0.3323,-0.3323 -1.1948,-0.3678 -1.9167,-0.079 -0.7977,0.3192 -0.5608,0.5562 0.6042,0.6042 1.0541,0.043 1.6448,-0.193 1.3125,-0.5253 z m 109.5208,-0.058 c -0.6875,-0.2774 -1.8125,-0.2774 -2.5,0 -0.6875,0.2774 -0.125,0.5044 1.25,0.5044 1.375,0 1.9375,-0.227 1.25,-0.5044 z m -5,-1 c -0.6875,-0.2774 -1.8125,-0.2774 -2.5,0 -0.6875,0.2774 -0.125,0.5044 1.25,0.5044 1.375,0 1.9375,-0.227 1.25,-0.5044 z m -11.5208,-0.9419 c -0.3323,-0.3323 -1.1948,-0.3678 -1.9167,-0.079 -0.7977,0.3192 -0.5608,0.5562 0.6042,0.6042 1.0541,0.043 1.6448,-0.193 1.3125,-0.5253 z m -69.4792,-1.1015 c -1.2375,-0.2384 -3.2625,-0.2384 -4.5,0 -1.2375,0.2383 -0.225,0.4333 2.25,0.4333 2.475,0 3.4875,-0.195 2.25,-0.4333 z m 60.019,0.05 c -0.677,-0.274 -2.027,-0.2906 -3,-0.037 -0.9729,0.2536 -0.419,0.4777 1.231,0.4981 1.65,0.02 2.4461,-0.1871 1.769,-0.461 z m -17.9699,-1.0873 c -4.5105,-0.1849 -12.1605,-0.1858 -17,0 -4.8395,0.1837 -1.1491,0.335 8.2009,0.3361 9.35,0 13.3096,-0.1491 8.7991,-0.334 z"
         id="path1783" />
      <path
         style="fill:#020100"
         d="m 1684.4972,2809.7598 c -0.3002,-1.2429 -0.4223,-54.9098 -0.2715,-119.2598 l 0.2743,-117 h 47.5 47.5 v 119 119 l -47.2285,0.2598 -47.2285,0.2598 z m -260.4373,-105.6075 c -18.9421,-11.9944 -34.8587,-22.4715 -35.3701,-23.2823 -0.692,-1.097 5.5391,-11.6964 24.3511,-41.4221 13.9046,-21.9714 34.8148,-55.0329 46.4672,-73.4701 30.9841,-49.0251 32.4409,-51.2115 33.7792,-50.696 2.2573,0.8694 68.1994,42.891 69.9486,44.5747 1.6394,1.5779 0.9791,2.8665 -11.8661,23.1572 -7.4812,11.8175 -15.7202,24.8613 -18.3091,28.9863 -11.4881,18.3048 -67.0926,106.091 -69.5742,109.841 -1.5137,2.2874 -3.255,4.1501 -3.8694,4.1392 -0.6144,-0.011 -16.6152,-9.8335 -35.5572,-21.8279 z m 563.7111,-2.4023 c -7.9849,-12.7875 -30.9999,-49.5429 -51.1445,-81.6788 -20.1446,-32.1358 -36.6265,-58.9535 -36.6265,-59.595 0,-0.6414 0.7875,-1.8276 1.75,-2.6359 2.2952,-1.9276 67.8883,-42.8403 68.6835,-42.8403 0.8518,0 5.1808,6.7937 57.4164,90.1072 25.3826,40.4839 46.1501,74.2859 46.1501,75.1156 0,1.6298 -67.6664,44.7772 -70.2223,44.7772 -0.8593,0 -7.6266,-9.8296 -16.0067,-23.25 z M 1724,2512.3383 c -15.3686,-0.7749 -36.4954,-5.2202 -51.2813,-10.7901 -19.6309,-7.3951 -39.6631,-20.4626 -55.237,-36.0327 -6.0601,-6.0585 -11.7932,-12.028 -12.7403,-13.2655 l -1.7218,-2.25 h -108.3187 c -85.1099,0 -108.6715,-0.2678 -109.9655,-1.25 -1.7478,-1.3266 -1.7275,-1.5571 2.2628,-25.75 2.0452,-12.3994 9.211,-36.592 16.1429,-54.5 10.9165,-28.2018 19.2343,-42.8994 46.6893,-82.5 15.8985,-22.9318 53.5713,-58.3225 82.8779,-77.8575 18.8615,-12.5726 43.2425,-25.2738 67.5644,-35.1977 14.1303,-5.7655 52.9583,-17.3065 63.2273,-18.7934 3.85,-0.5574 10.825,-1.701 15.5,-2.5412 27.6488,-4.9693 80.2008,-4.8119 110.5,0.331 16.61,2.8194 32.4365,6.253 39.5,8.5696 2.475,0.8118 7.8437,2.4222 11.9304,3.5786 4.0867,1.1565 9.7417,3.1599 12.5665,4.4521 2.8249,1.2921 7.8063,3.336 11.0697,4.5419 12.6919,4.6901 44.6679,21.0461 59.4334,30.4007 19.6905,12.4747 31.8293,21.7594 49.4508,37.8235 17.1099,15.5977 27.3086,26.7334 41.6899,45.5197 18.814,24.5769 35.2429,53.5027 45.4253,79.9787 2.4735,6.4317 4.9281,12.7168 5.4546,13.9668 4.0542,9.6257 13.207,48.5743 14.6468,62.3274 0.5524,5.2769 0.449,5.637 -1.7906,6.2364 -1.3072,0.3498 -50.6038,0.6422 -109.5479,0.6497 l -107.171,0.014 -13.329,13.3059 c -23.188,23.1479 -46.7318,36.6944 -76.8289,44.2055 -14.6947,3.6672 -33.4978,5.5581 -48,4.8269 z"
         id="path1782" />
    </g>
  </g>
</svg>
